<mxfile host="app.diagrams.net" modified="2024-02-28T17:11:21.465Z" agent="Mozilla/5.0 (Windows NT 10.0; Win64; x64) AppleWebKit/537.36 (KHTML, like Gecko) Chrome/121.0.0.0 Safari/537.36" etag="Jp17AcfVDrjJOhwqMxSB" version="23.1.6" type="device">
  <diagram name="Page-1" id="gIr3zpdS1PppLRcuTZKX">
    <mxGraphModel dx="1221" dy="621" grid="0" gridSize="10" guides="1" tooltips="1" connect="1" arrows="1" fold="1" page="1" pageScale="1" pageWidth="827" pageHeight="1169" background="none" math="0" shadow="0">
      <root>
        <mxCell id="0" />
        <mxCell id="1" parent="0" />
        <mxCell id="wUmB1A0e3Jy-pXlnWGp4-1" value="" style="shape=image;verticalLabelPosition=bottom;labelBackgroundColor=default;verticalAlign=top;aspect=fixed;imageAspect=0;image=data:image/png,iVBORw0KGgoAAAANSUhEUgAAAUIAAAE5CAYAAADlSCmeAAAAAXNSR0IArs4c6QAAAARnQU1BAACxjwv8YQUAAAAJcEhZcwAAEnQAABJ0Ad5mH3gAAMqtSURBVHhe7L1prm3ZdZ0ZklxKiiBFSoZgiALYCgPp9A+nO+AmuUluhJGGkW5AOv0vKcOGLTJYSK5tZXyH/K7HGzHX2mufe96LSIkDmNyrmHPMYhVn33NvPP7GP/pH/+gv/uk//aef/Rq/xq/xa/xVxD/+x//4s8dF+C/+xb/47L/+1//6q+HPPvuN3/iNx/O3fuu3Hu2/+Iu/eDyR//7f//tn//N//s/H/F8G/OZv/uYjT9vk9j/+x//4S5Xjr/Fr/FXFX/trf+3tPvMuy/P9N/7G3/js7/29v/fLi/Cf/bN/9rgIURIY/c7v/M7jksDICwOd//Sf/tNn//k//+c3B8ILM3nSjjn62jH23/7bf/vg0mnOHfQD/9/8m3/z0U7fQP4cNxaA7W//9m9/9tf/+l9/xEYdyG/6YGhuwbxzcCgWXH8r+xNgn+IYH0w7XnT0D3a61AKocxUvnNiQq7bk3Gu6g/F9m0GM5Jixdsz0c0ybHm/s5ibAK7TNsR3u+noPzN990WdQMJbjWePGSfxt/7f+1t963A3uU/bnn/3Znz32KOAi/Af/4B989puP3q/QRSZ4jFHmouAJ8d/+23/7QY5OOtU+eQB9AuF2RgxKW+aVK+gz/dI21uZv3QZzXCbYkSN5kSN9sbMX6Zs86BuHeZ3kt4OciL70t0POr3QZl2uSBH38uy9oI7bhOYG8k49vG4xRyXUV3Z+QHI0r+55f6Td/96+Q+4z2s9BvC5zWr0W7RPdXaHueXsDuT/bslNPXRjBWeCvi5qSdRYGMy9AN70WBXl8a9LmFmbMAgLF8m2H+Cs0tSJZYfQND4N69bcrFPG+3CDbEx2WIUDxtJt/JZ35ZE/NtvWcAH7ZuUNqrekxQd+fftUFX/WwL9NhUSMbC05xXQEcBye3YtxFTHa6ws7nL9QyyzneAjev4njUhR84X53KX7+Qjx+7WKvW5F/7Lf/kvjyfjCNzt87FjPbxCZRLgMuGCoK8D2lwSvDlJyHMqHDZeToIxL0GF+ewjie4n8Ik9yXoBejEaz3RA9YPtL37xi4cNoB5c9EhehgnGFDjwpQDzbb9THsl1Cvhdm1VtMr7srzDxMKY0iAGRN0WsxkWOTz6+LegaZL9z2+Wj3c4e2O/x5uz5CSc6Cfaw+/dZEKf7I/NtuQPymHJxvOfk5yL8j//xP77llbo+HyfUtx/BwdWAw8Z3Zhw4k+JJ30MPHNd5BsUYPAhvXgTGGJJ6wjG5wKQn1CMeL0OQeZCfP8oll21z8mJBH12+J6U+Dez6kjN/xpjXNxcr40j6vgv4yNGL3rxXYB4bQAzGuooBbuauYkQPMSfz0lfW5SpGIId4T40+NojTdZhyy9hXufc4fUXYnsYmuG76z7brYv8ErjHIPX4HxKvvxpQLYykTepyccox9nneZ4Mz87Gc/e7SnGj0ypOOPOQahAxKBhDcm2oxRIC9GbNRNuwleNPKgi3ShtWfuLoxDgTtjXHEyziXNBUMb4eLsDwkB17TInRu1on6CuQQ6oucacOdlrT4c5JlcCfIH6vNsXcbc/Kk3gXHzdO3si86rpYG+Ms1/G7CKfxoDU40nvVcgedtPxtEx7cCaIuCOXYI43BstCfhPfKx02IfcYZxZzqt7Pnk5N7wZgrzrwGMXEyhEEPDsYJnngvjzP//zt08JHaSjtPEJct5nzmdbaCMmnRNYkOnyBsnLPJcWT+apBbo8p3jgQgRjjvP0YkmdRvq/QnKDjmvHxZxiv8FY8nfOgnEvzNRhjH1CDXc5g8n/txVTrObN3Go+a/Mp8j2JA3R/B/ObeO4ADvfWFOcJJlti4gL0RY4+5yL7Alt+Gs29Kd/jItSBJCAJaDPPbcpGBzjh4ky9HeRv6PtjAH/G7qVEe7rYBIfYYhkX+tNbIUAnuehjqz/azOtz8qufO4CHNXCxjWPiz1zApNNAx73Q0B+85uqHiHKSEzrqZfskvk8N4zPGCbu4P1ZOO96MFT3lLnY5n0IOa3gSR/qdYoDDs8k5AO51xh3TJ3Cvei6N4+0idAOjCFKJedtchOjgnFvX8R0MIgMC+kiO7oO0uQPsiJXn5Esw5kVFkfwR2YPuK/cEbJjPS8PLAcg9fUIldjm2jZxehLTt+1Y/AR/Ial6k3hSvY9aKDw6+R879cweZu76/bTCuK2lk/WhP8h5c+cz5HL/r1wvmGUx2jLVMWM0Rv3cQYC8i7D/bnSM8jKkHvCwfJ8JLEAWVO3HaGHFB+Mbk4ZuKOo11QukDffi4cNK2bQDzK58pgITxAzzYjKVf2oh21IE/unSMgvffFgrmmevLEKDPd4zMmat+nwX+AHzm5Ybo+NRN4F+7CWlDO/vGby48re/k6wRt9yzPtwHWx7Z4ZU5XXOm/Y8mYwHvW7D05dRx3wTlzvxMH+48zm/eYT2NF+nwy9sFF6MHQgEAxwpHGjKOHcBnyJsAc/1WG/2VGAg75kB2Y1w8JZKEMNLEq5DQON+OIBet8Mz776PGdqMUkv88///yt+AJe3obgbB7GcnH0exdTXozBCfBFHz958bedfZ7m1PV1DskPjMRqbBq/Qts8w/Ftgzl8jFzgVFbIOds+WVfOGuI6p1yB/eIZONEHk545tIhsJ+AiBoQ2e11dc2KOFyr66gL0HEOPvmfocfswkI5RJFkOiocldTggvBUizPmbmk5Y/R6fIL82BKxvE3wPKJgCl7nBDfSb8Edk8sWGPKc31r6ABH3GvVAyvwl3c5SfxUQ6BviS07bju3jkBsmxwonOs4DbdRLm8G3HqsaOr+p/gmdtrZ11zTo6voIxT7YrTHE6Jt8KxoNwF3gfAPYogj1jzHEPqXMVH3bu8d/sGCTjkuCpZEAIAfDLEy4BHHppTWhbxHFAQCbEGHzp18TUF91PwIWA1IPLS3B3gTNGTFz2XIaMEQNvv9g00AXogPR/BXztckk0rxeh/uEhBtexY00/fXEKfaSf0/gS5mVMK45pvMfkyfHJ7pvEFOOErOunhHHpP+PM2HdrxX658wG5wpWt88bjXvaOIQdiyVzc9zwZVyf17CeY+uBj1kuC77UgA5IbADBICHlrwokXy5Qg844bIP3UzbaXah5UE1xBPvmFbeaw962ONmMUF39AW8TF9pcBjKH7u7/7uw/9jFdYq2luBePiaaynwCZ9wYMQJ2vId5eZawJfbd/I+Y5t4mswhliX3EOJla2gzXqkT8Z6Q3/T2NWSeDOnne5dJO8E5zsGkGPEhLiPVjGiv/oQvYOMJeNIMOYlSEzqpW7GnHETY74kpG3ag7ebBQKcsVnTECJ/9BNJ4r/Ugm3+J3cCXfjacYI5hBi4ZND3ezX9tr02AJ/ZTzBnTM7zdIwnl0VeYD4Fsfhf15Ar88TasPAuRi4KyD5PfLrAz8K1goM8uAAzH8ZXF5DIGBNZp0bWGp2VHv5TWm9lN+FqH32TII8pNsZy3PY3mQe+rWWunTG5p3JuwnvW48SOfct+dv9mvNobX8ZKXLy8cB7bjzqNtxOIgZeP/b4EGZuEH5F9M0QmTAGkPvO0DZ5kLLTjqwWSQ7SvnCenXECejPFMPTk4vPj2u0JsvWwmYIcNkC/jZc5POC/Bjvcu0k9zOpZ929jZd6zBOHxy7vTcuPw32v4mnTHtkyex66/8fdvg/mmZQE6fMq8rXxlPxs0Y68X+eQX0o68d1GP/pE0+EeJzjxE395VfZaWebTDtwQ8uQg45RAoXRF5A6RRIhh5vTP4meQL8GRR9gwX285ISxtDjK0y8ClzmxZOikas5pq1gDB0ufPTYGFyE/kidIL/VxoGH+jHPE8Cn72eQ9WwexvTpujgmbMvTUP9Ej7xS8iIUK/tE+zqx+asKa3UXWVPainDNGWP9kJx/FnJccemfc2qO2Cj2jQsdzjMynSdtQLbFB7cWZJBw6LkgIDUIwKZmc7PJc3MDL0/mew7Ac1JQY9Avz4wBdP8OsKW4xotksTtGx9Hxj4aZ442HX5zsgK0CsEPkZxxeF06fzwAuN0L6BNlewdgaxJbr0TrZt3aAcfYLQht787yLk/i/SZBf1+UKnyqnk7g6fmIzPp95Jna4U4crXfZLXmzoG4d7jTYxco7UZUxJ5Bi27s9H//G/AUhz4wOMMeACzLZzkvP0InQsASfjzK+g/46hIdcJ1JPPi5DCAeaNyzcZBGCjHTH5ixMuQn4E7Bi8MDu+7tvmieB7V5cJGRtP4vMiBPSJxx/rV1DfSyvh3ITU1T9iH6hDn9gyPkAbab8idVc63wZknFcw387HsTt57nRPeIiFNdvFn/Feca50enyl03DPECPz3i0+ic097t4DzvFMfducc79TB0cnT4LcyByavCwAAfFHyOo3mEcIeHXoDXgC4zmv30k/x3Z6wuIoflIk4PGXJgi5UIOJd8qDvH0DBcyjl75PscpFfuJjc/B1BWNXNWAeO/UmMOdmm3hcW0BO6BtDb9TG5LfHdrF9k7gTF3XL2tme6jmNTTjVA8bKM9usDU+45FNHvRPIk5g4ey9MOcjjWROeLcZ4Mcn9DeRHB13OsqKtOsbxuI2YyEBse0Ah0NAnYDxtM5gVWqd9M7/jQTcTeg/Mj8vMHNM/4+gA42SO7wpZAGz59wqnOJJHaO+4dtSTi4IFPYGxtF+54UKmi02daXwH6kA9+BRtv4Ax8sAnG5f6cAHSdt98KkzxfRswrRlYxXtas0mPsRaw85V6gr4fcD13BXxxrsCKGxiTOpMuMeSe9rx4F8GhCPToe1ekMKaAt9eydNxBNAlww6OrCINdQX25Eqd2fQnfgTY8LQS8HmRlxe1FA/jxWI4EfIy7EZLL2nlJpADtnskNyDXVcho7gfUxxgnokBsbFKG90/9YeDbHTwHW1HUlzpRnoN3ElW2Q87tx57LvfnLuCuTIPlYy70TWYgf8u7c4e5wd+o2JR9/EIcxF/a+f4F8BQ5Ry85sQ4wYlkQmdFKyDugO5s8DPAh7jzaeXFDkypq5g3E8kf6Sd4mBMAXDoA9tcTPXIiUvwKjfnWmdnA5hXJqzGiZtYiTntsy7mhh7PFbSXw+fHRPr8FP6egbXMmn5MTH5y7L31Yg/3TxC0++ye5uvZ5Oz0/lrFqK/JH095treRirmxDcYDPAGHq8AY56BzeQB8ZCF2doIYkJ0fOKf59Gdu6jDuGEKeGZucgB/9+BEZHRbbN7+EdTIOuXjado6Fsi60U2dCzsmBiCt7kPoiuVbzfi8qf/rqdgM7c+XpWPrqPuj+s5D7VXx3QD3YX2KKZarZXSTfVZ65XiL7xjfp7YAudvkLRcdYe0TeO0h9eQHjExc6in0vRcfA20XYigYNaHv5IJPDDAQdONzoCXS4IHijom1QgCdjxuAcl4PFA/DD4UWj3wbjObfT87nKTxCPceKfT6ff//3ff/vtU4PYuTgAdg1yND8gJ3mtcBXnLn4wxQHMi1jIx/9fa/V9Ehv+V0h+7HsfMJ/fN3a89K9yWAG+9C/kew/3K4Dvrt3HiqfrsPJjzVJfXZ9TTa/APv7yyy9/1fsl4PPs7vbQCYiJvQXnKjdeWLhr2he27E3P5mOHNpHtHssD0IVLMI5e2u/gpQewxS7Fy04BttHHdhXLFeBwUeTeQR38Ycf/lwvFpqhcaIxnLPyZDf998io+/LZN1rgvkYZ1uAP9pa3+nUOsiTrpRx3bidSTQ32EMTanH4avBHztT/m24tUx3qlp6lo3YS3v8CWw4+wifvC5n/Xl2b+TP/qcN+BZWcHY9YsPx/QPvnbKUFJRGCTjGfgKyaGjhvM8p2ScB+rkGCAG37i8hO5ixb1C6nmg+Udc/QNr8k0dPhXRyTerBLqKQC/lBGkvVrbq5lOxz+b1k7R5yJE3RmoOtJuQvIA2nH6o7vZS5r/z8SxWfj8FPkY+DWuvXI3Zbkxjd+Ae8qz6U0JKrvUO6HiWMu4d8M9LS+unv/mWGqARz93mnYD+Dsnts8c6CTgpiEWdLpruvwcZU8bCk+8K8Z+Xg+BPSJj3op5i8o3X+dTJnCfbZ5DxJxhj0/RFBfStrbU/RfqEyzWjLtP+eFWuQL8T8PNKX3ewi+svG9hPgPXmzTAvxFyDk7VAh725ql/yAXzzQpI/+amj3vFFKCBJMpBOEwZKwisd5igKMiU22XmIEA+t46k/8T0DOPXZ8eCDIvNWSCwscgPb1YEHXjrAHODNccd2YD51bBuz860Hsm/bGgPGjMG3XOLreoDVGGIdqYcyAT9KQh7bJ1jpJdc3hV1+Hxt3/BCnsT0TnxcR688LA79E4cy731Mcm0Ac/qSSaI4+q9ixX5GsuTpfO5lpLDDUmADs00Y/iUFyoONr6QQTInkOxZQAfceYp5D04VUo9KvRC9KxZNvfILO4Dca5KIE22gnqkJL1QndVvxO0ryvgixisrb4zBuZZL74SaHSs6LFm6PL0AAB0u862eSoNxtrPHTTn5ONT4pvwv6sf8aSA1H8mXi4wzkl/wCP005eYxhrsH15A2Ge5r/Iuoa9Pga76X7sIV8XpcQimQw/QzeC7n/DAAQ4KuqsYQM5bJLn7tn8GcFmgbAPfZPSXsZAHlzG63/ve95Z68tpPHTgQ50T370Be0PG/B3DCA+eE9GEMfiIr5ruKCTtFTGN3ga+M/b1874GxNKaxU5zyPeP3PXXClrPO10WsOfcHT9ush+dDuQL6fQ9phz/m5Vfo6wsBbxfhiVOxKgakfOL7ZxEN5qdxDoNvHx4wBD8pgKdvKeo5rs4rIK/FQuAnvskPY3ziERt/doJ+gnkOf8YMkov2xP0KdK12yPhou2kScJArObGxdkAXPfT9EcnL0HbG9LFqIOBP+cuGKae7YzxTEvZzn5wCW9YcYV95AeYlqJ5o/wJdhPk8lzxThHtZ8RIGH+7uG8CxznFAEpByCSKZlFCvx+HggPBJQdsA+/AB5iliJ07/FYALwXf6Z8yDq98Gc/wpDbF0jqDrdQX0Jp5nkHWfOHssddk0PU8e1sLflq+AjkINFC/D6Tufjwnj6Av41/g0oOacderPvvESzD3qftmtD7oIa5n62th2vyX0h+9H//G/TwAHJAIg9LXTIExOEDBzPHXe0FYuD6CScCN7Kb4HzU3fRYEbH6d+ONQ//elP3+JveHmYG5j899h7gD8Xnafrkj6s/eTbuQZ6fOh95zvfGW16rPti5/tVwIcist34mLF8DGSstq/Gdpj0GFO6lneAHefEf8mJlx7OC888F1dAz3MKOJ+IsRkryHbCM/30RSggNwFgEB46nRukl9cOfKHKJwb62MuZmMbuwMIYH7ANL3Hylsoz/XiRpF0Cfd4KeUtavRlTm7wod7l1jCfQJoU48OfbNmMT9K1/N5YcCebYzPzXA+qIbDPn+jfQI65VLZ5F8tzlNHZj+1TImoHu73CV76vq+kpwGXLOuQ84D56V3A8TmHMP5/7cAR3EfUgbf/gFL7kITSCdgVVC6JsI833A4PACygRppwja8hjLDjlvzD3WFyDzcl/xY8tlzn9RwveFDRaeTQB2XMaWcZwg7RRicl30yfiEtANpm2DejfXFF1881lSk/QRicH9c1XMCNld2VzGAjAOQgzGZ3zPxncIYjfMVviaOV45d1fQU8HgZAi4l6s0LyLTfiIO18b7IOGgzzvrlpZqiHgK/b6XgXRehziTXQQvIYCas5k4uH+ZyM4MrG0C8K6zmzLP5u8/i0vdQJagJHH4arSAnNXADNNcp8MmFhvjj+Sl2utaDvwvL+p9A24l/l6dzk91d5B4Wr+B9Bvp9do2FPFNO01jiynayeQ/Yl1xIvDgkPzXwTPvhNK1VgjkFXYW+0IcvIwh4XIQo34XkkHrAdOJhQ0g0AwHoeBn4vMLEITLx1Ot+4sTnBO3gXXEDcvdvC3f1laf5sHEjuAl2+UxQlydxsy7+1lZ/8iJXUD+RvNP8Cth5OWdNdzBmoM17IJ+xgNzHIv1+DLwil28b7tSMmvMv2/PywP7hL0/86xNeFvItPbHjh8cY1HNd3a9cgpwF8Ni1ONqRToDQSwxi2/bzEpS7A8q2/QT2BMycPJMufXRJPgvGuAVJtD3osclGAfhDEs755I+oKTb1bVAjXsvNC2BnmzzcCIyl72dhzPBRF+JC8IPoO8GY/oGXsrqMk+NPfvKTx9jVW+6EKa/35togtt4LtFkHRKTfV8eww8f2Zd6df2PSm7DTu7KdQP78AyasEV8n8bWSf3wPnwKmvs+WBD4Q1tuL8IM3Qgb7UK8wkWPr5ZcXl/NIXrY8GbOdcoVJBy79esB5Gpe+rpAxNTI+eE840eHi8CJsXvr+QsW+wHbygy6cp0BfXp5eZF5+xIaPfEtMGIPxAH4RlOspGGfz3gXcrJP8J2jfO6DLH+vzzHqaV8Oc0ddm0vsUuJPnCTIP28/42NXDeu10VuDN0P/65ITD2N3nng+eCXkYVxe8jWfnBCtdxvPg+jS4LHZy2EaHw0USqSs8JNMcHIivubRPDtXElbiavwL2XND8FtnLMME8n3gumnkw7sVA28VzgZGT2ORLcY0QOORfvRE2sPODk7agzQYm12eAb/KjHvkmkDBu5QTmyCd/74lTjtY7qdMrYQ47SWR/mn8FPgYnoNbsIfYS68U5ALnvJ7k6E87Bjy77y5cA8HZtSvgsIOwNIxg3oRW0X8WQ/BwY0Lr44DL002QHbSd/K1sKuMLKxryn/5MnbDig5JNvWIwrwE3QcoLkSqFOPPHZfndgc2I7XSpckMQ1/ffHO+Cf/FP6AzHjvANsiKkv7oZ6Ql9t82wcpzhZgytofxrnM/60eW+sEzgz/tgKv/sd2eU07R3Xy37GrYDHyqeyBqDHen5C6+DIm532xGFAV5vVuSxI+5oO6YQpjoS+mv8OkmNaSOb5gtg3oY6HPBDH0VeAvM63/Q6sR35geDFOSP+uETHjO+E4uVwBzow784An5yfs5oQcJ7qg9U/tXoGdr4xLaezmnsWzXK+IgX2Wb/GZ3yTumdyX9EXrKuo8LDDMCQX4BMwnWoenGzrtBPbMc2uDSceDtsPVPFjF8Czw6aI0rvzwpuR/beIiJfwkax78ebEj8LA5/NHUS4cnsC4nuaMLD8KFaG7aTiJo89bHj9MJeLjY/e1fQw753Cv49mI2ngbx5rrTlm8F5+FP24bxoNec3YfHWiVa7y6m+IxrgnPT/NX4NLdC6l/Z3eE9ATVhv7sfjCX90GYfocvemV6E1E977Tw7j93qoMLh8g2lFyj7tlsH8ryZE+hOG4lxJOPAf4IxLoy8UNo3wDd66kxou/YFWmfydQVsEGLhj475/qvj+vnPf/74XsSaC+xYWC4WLz9AfvD4XdoqzyknYB5usKwpNrQR9OirL+i76RKMEyPx8Z/d8ZwgH9zGTizwIfljETpXeTTMQ7u+WPVLfEjyEz+8CpBvAuPWb6VzilU+An4lcTqW2M33+FVc4lTvLjgb7geQsTOW94l9x9RLG56uqXpvJ6gNVIT4KkFtDIKNx1M75kAGCX/yyiGYy3lA34OS/CL9ADY5fq6QfhvtQ2S8K50EOvx5QC6oIBcOExfbFAv62pCTlzx1hm+6kNJmAvbWxksIYOOFRCz+ZjnjQsc1bjDHpcA/RTblkmO0Mx8FDvcJbWTFNYlz8thPyJs+kMZqXMBLzOTxzB+VN/Rl/KLjp6+Iq7EcF9N45zvZTVBvV69nAB/7kQ/fjHfVBvZz3HbuNeceJyEVAZuDjf5MQti4+XC0OuDNTV9b2w3nEQ4ovG68zgG4QXlO0MfKXyJ5O5cTwM/fDfKc7FlkF3oH7F0fbaz3nbjM2UsQsfbWGD7mqR/1zt8so0dtufQSjBMTf0NJO0HfMdvw2VacT3R/lyu6GWfrMoaYr3IFeCa/jFkLavSey3DlY4fU196x7Du2w1QHx65qdFLDZ8FasRcR2o3Ob5Vrj9t/uwi9HUnG25f2ilA4vyqCvA25Fcd8MuZFNtlzwbLxpnns5Vr5F+o9i4l/5Q9fq3h4s/O7tZU943B4UWWezK3sJmjrRZhcQD7mAXEhAl3606EnF//AehUT9uaR+aT+ZLvidNwceNp+Fmkvf8o07gc0+/O9SB8i2wn9J9I+299WZJwT2CN+YCdOc8r1tK3t2852k7PxVeKZxhNWOm5uLlTfhID6BOBBygKoR9/LDj3nATp8b+Ah1V5bgG8/PXI8MY3LpQh07WtHXL4BtO4K8qR+wnWYkHboZV3gTW7HV+j5tFPIi0NNHVlDLmpz4+mbJLoNYuMPrKeLUrg/BLqtL3f6ML4JjBNbrjtP22LH0VBXse4p+ONJ/PwiKf+Pze8gY5U74dg0t0Pmv7PrOewcu+PvBPClZF1XmOqTtsK4U180B3icOjY6GzovwStIkM5Bj098zCFuVjYPlx5P7TwkXnjNQ7wcTA+iIrD3oNJuNF/bO5/cOQZaZwd1iQdwwacNbRezF1UwDsgHST2ebTNxTNDWi8i1IGb+UyffbvRnLjzpT199YPP973//MbcDdn7YuV7NRd/cE+oRB/XgafzN0TCHK2SutuHOOhmf87TJiQ+CqzjuAK6UHVIncxBX9gK9tHsF4Oz1NJ6ruIglz/UUG2NIzzsumBePaJj0siEQhAUm2FVgEiYxyPGeA/Dxx8V/9Ed/9FYM9PDfgaPLhuKtqwsnjDeximHSFeqmTbZXIG4Ar/Xa+dn5h4vLf6UDnEOXzYCdY8Z7FTPQTiF2au3hps2bTb55A/V3vhjDjh+Pp4stwRyXpZdhchoXTzct7RYvI+zcRzm/AvorHcfx3+vqWM8lGCevq7fixsSVsD5Zo4T2qTPBuZ3OK7DKhfGsHyCWvgMmMM86574UzCUPT3Vpt8jxdhE+Ol8FxUFwUyINC/0eEADfIyXgNI6EAU9zCXSuAMcVz4SVDeMU0pqc1sYFaF75wMSTtci2PNiwfq5b868gB4ItBxeBi4s5/SCCNnNeyII2efALk/zRdwK6+gCZt3vQfKb62u/xu0j7iZM2QiyO20Y6f0D9+BGZDxTadwFP8gL705xxXSHttPGZ/I1p7AqrGKcYBH1lBezZM54X+nLmM/V6HzsHPrjpWFguQS9CsAvmLuCCl0vwxz/+8SMIA5kSZ87XYIJuHcaE8YLmuYvJXl/MWUQwtXOskfPTm4L8E6yX8+gi5O7Fxdtzrx8ibOcYfMnNk43DBZW156kIdNFpoJObbwXm8isOciB+nsaozylm50DPJ3Iuod5OP/lTGugpgDUgF34C4jLcvRkmp/bN15hiuMKK61Mj8zJ3hJp1ewX36Wqf0c89Qjv7joG324NBkW3QwfT8FbT3wNLnkGUwBthI37Q7FhNhw7VuY7JP5PxODzhPzF7Wqxwa2HLQp+/WgAvbQFcR1JPLj4PmmwfiRWiNweRLoINP1oUPKn45whudl9xuU3ZMCeyubJk3bi8OasO4Gz1hTplbPm2LlW/R+hMHME+E+WmNGFOMm/XhzXC13kCf+p38JyaenU1yixzruVWc78UqhvRH233jfbECdWa/sk/lSvSY6+IaOfe/XqO+AmR5QRFAB5GkzqXOFPSbs68Sw7mHC5CoItJv2nrgE8w3JzD+BGPyNeD3IBJL661ypL3iZA7eKQ4XpCEXNpOdwpyxArioAU/rmfarNrCvPWIc+lqBOXLkkOcaCsaIsz+oAH1q/vnnn7/Z45v/0oZ/fcS9qA+exjWNTWD+SmcC+gg+eg0Z9wODmtH3UBE/47zl8j2p+uxdfvF0+ttk425dY3EcbuWVeDVv5mPsQj85nmNd/wnuWYS1ALQnqJPzj4swg4OQxaU/GSQY7wBXuujBZZBuMPr4ROhzGKbE4XXzNZjDhv+siwNnDKtYGumPJ/1GcrYI7LSFJyWBjXVO+wQXPodnB3kzlvQ1+QbqJtR1nDa5UE/fMJHpsgMTpyAXfmnQ8/Spg5cGwhq753gSBz65KBFi0XYS8zD+Z2GuPJNTXnylHnH5tI2gry61pA5XcWU+CoBrh9Q9gfkkrnyIU70JxIh9x2o/n+q6Djtwntwz3intY4UPVgSjvJjckA0cZVAnzuRuXXkc5yl/+zC2Cdq33Snk1//VZp2gnYfDNtIx4QdRr+Ea7EC8Qj7b1iHHUmcFbIjJt7iMXfvMhb7rMnE7Zjy2BbZ8uHEBuucAfr1UiMOY6Fsv42mkL4BO9lfQzjVJHtsKH1K+xToG6BszT5BxMsYHA3o7aJPi/hT65KnODupPyBxs7/SvfF1B+4kn4xBX8QDqkzW6E+N42iHwdk0YDJvEzXLHGbrqy5MJmoh+mXczCe0Sxsv3WsB5eVeYYgC02ciO5RxQv8cBY3AqO13idrznvRgmO5HrAxd9L9CcO0GuCzXnoHvImVMmXsfNOUEsXnTJl+g+HH4N4jogjLvvAGNXSG55JrucUzqXBHEh6OAj/RAjNeQpmKdGPMlr9VXCCtimCOJsGH/CvnOTzoQTnVdjFdtJzNYn98kJHpq5kDhaERgI8y72SXBCXWzZCGx2+hyW3Egk4iXApjEedbBvn8z5Y7N+WqfBPFxsaGIhH3wheQFnbIIxpH3o18tImYC9ubcPY0NWkBtbnlw2fCD4oybcJ5jyADlmXqBjBYz14QeMsy7ExVoK+dIHoA8P3xv6fZo/LjfSduKa4lwBXWtJrCD3mfzMr3in8da3zY/I5Ldb3wa27iufjPlUBxiv0mN30Pa2XwnjFvIzroArv+oa62mcX7vxIKGwEiQZ41wS9GmzQQ3wBAbpYV1tcMEcBzpjMD7jSDAOtzF1bOh7qQr6XIS2zS3/gYT207zC2Hy2TIDbCy/9wOFm7znAPEK+XoD2V75WaL+TgI6hYRwTvNzIxTWQN8EcH5J/+Id/+OhziaLH0/8/C/edea5qA1a5Adc74Rh5UH8uq9WFJU+CMdcbe9cQPvayOdDnwxfuu9CH/BlH5kN7EjHFv0La0b5je4KOy7UF9B1zPPUb1CRfBHa64rEjUexATJRxNocbGGGOhVTH5x24OcC0Ie2bjMBXFqmRxeq46OcYOflmSgzGxEEDxnCan/xw2Yfzyj5jFnIBDyHxdJ1SD9iedBvathALdV+ty47bt+sEfHzwffnllx+spxzJhU/y/Xf/7t89/nzH+rku2NNfYYrLeFPMjXi97BiD2zn8eWkZh6A9ibUzXi5wDiVP42dOQR9fr4C5neCO7oQ7foD1WSFrqB7PjjP7rlPrADlY3+lDrPG1N8KGwfCJrjOeJ+RXMGmDnsDctAmNgWIkTvgEHPR9O3VzXh22hHpyIcQLnCPGrhf62qhPv6GekLOBDj6sSXM1zw7kr1gPxDhXMJeOkT72XAbEt4qDuP3xmj+h8W0Q8Gzeu9CvTzkVa6QA8049kM9so6tYNyTrCBxDr/fGe2DcO5zoXMGcr9B6kx1jirDtM9dEpP4K1Be7qxo/bpHJWTulz0ZFN/Uau7kJ8CkTdnPEg0zAxlhW8VAkf1zx0KG7O6wT1OXpAQDEBpeSegn65pJztuEEqzoAObRpXfvJvwK65OCHA21iSM6JTztsJnDJ5T/ikHxALuy9JNCZfJ0A/baZ4iVPJIGe9ew47edTEfbJQbGO8DrHc4rzGcjRXK/ifxWyTo2co539XR5ZxxT3ETXf4e0i1CHGwL5ziHO5cRwDOlfXuXza3kEdY5iQcU1IX932ycbkAqRNoTig/FjH67SHFWgDaHdfZCxefr7hJDp2fKPjARG0vVja7wTmPWzJ/wz03Whe2vh1zOcUK/l997vffdRXyIc+cfN2zr/kjW/n5PS5gzrp3zbPbtsX9NMnsJ4J++oqWXvaCLkozmcfUJuO5QSrPAB+EsbV489Af8/EDK5ikLdjZrz7k3imaFPn/qBrjNckJAkWi8MIGU+gjgEB2ujiXGRb9LxyF/jzsplAjMwlNzb0jdvLD7FwCOPT5sROW+dyDA4OOn03O+J8Q738cEnggzjg7HVJUHfsV36MlWfntMKK6wrwT3XnQ+c//If/8Ljsmts+NtZ9qv8EbJXuK8lje7W+OzDvZebTtsJ6Zl8dfLE/QM7ZZr7jOQE27g35HOOp/4b+kLuQb+J9L8yhffBEjDf1Mk/GWAPuKvon+OBkSTTBcR3xpNAsLOJCgJPCZjIKMKEJHC6+1ObHKy4udN10DebQR5f4Jn79MgaHPORibmAVj8BeyAl6/Ar45MJLO8A4v9TJGk/ABzF7iYu7cQD1rAOcxDbFB6axBpxc1vIB7LTVJ/3ONfV2kGOVpzzJhS8k55yHB3HPt7hv2Icp/kjWgg3zbW8fZGxX0A6Z4kayv4K2p75P9d6Ljn+VA+PviWl/sgI6Qtg0bGTlmU27SyifCcbYNGwk+RlDVv68MEXzwtebVk4O7C4P9ZoTG2wRD5jPK8DVusYIcpw29TfOXAtjUr/jTJ4roJtylQt+rGODMf9Q2v6kJ/80d4qV/4R+zG3KS5u0pY3kvplEvdbvcTnBFMMO2iUYSz8geXc+7vi/G2vC2FpEtsGk0/7pT3KFr07N14sIkqCdc+C4YDyECWw4KLvDklwgfSXUk5OF5Zcb/Gjl5dVcgnF0+HHMeED7US/BWModGKu1ad9TnkJ/1FYb+lz8fpfppQfsoyu3+jzV6/YdoI9Qa3lXb4VC/YwVyJU1ERlfHmDFubuYbHqsc1n1e9zYlGlMce4E6LWvK6Qf4ViPJ3fmptg/xR3dE2S8yd1+uq8d44j7zP4aX+3JX7XeABkbUeMkYBzkuAdRMM6Yh6AX4WRRGoxnUoAfsfJHjMkPFxx/hkEsvhmufICc1755T6CN8XqJ5AXVcWjDBcqP/zwTzHetGbMOgKcxWy+gP30yj0xxNNAjfoV+/+dhjCXgZH76cR4O/1xpBfk65hOs8kl7eSfZzSfgk9N2yjSeY4mVjzuA0zVKTL58Tn7Rb50Vcm6nt8Jk7zPj2CH1RXJ5DpAd39cuQoCBbzRtnAVnLi8YbHhb4DDmARUGKydPxlIm4MsDDj//eZJvTXCY6BQvthxI7LDvjQLkwB4d3r7yL9Mb6CsN+Mmdw84f43ro9avNlCtj6P70pz99xJAgFrh4EiswH4W+tTCffLtcYcojYazosQ78VpfnCugTJzmYt6DPOPbwZS4+0cHenN6Dq9wmtM+pn2O7Nf2UwD91o7Y8E8SIGLu1dVzYZ11y/GMg62U7x05hzNgqINtAvQnjCcHYjT4ZUmSEy4VNjT4Hjv+Eij+PMCjRwYgcn4Auh1mgj18uKeKjr4Bp8Zjz4K0gL3peWgiArzmFfhPGoz1wDJ5sry6o1QWgDTVZ2fJhhDhvLvpNODb5SvgBZ33lo42skDVIZH7pW76UO7jSv8pzB2yflbTvGFMnMenegbxIr1eKmMbEavxZrHxcgRwa5ggmjp5H3McKmE/TV6B4XA7tHEPJvaR8ewTYSD4hAwMdEODQ8Rbnb4jzR0Xi8hNPHp95wBJccCSf/9F/Az4EDmCxJr4rpE3bUycvMiSBrvrUAMm6MEd8SI4L522bU/I+i+Sgjq63WPH32grGMv9VPu9Fc3R/8rsD9nLYnvqOAdv64tk6E67mr6APxH2B7xQxjX0sTHmtxlKucBV/cnS+j53ooW9QPIxzLgPjQtKWA8ePgvzYZNETE79jPHMeTt9suAx4emgymQTjk1/AOBcrb6wgfXVc9PGV/tJn668w6cHpJbjiwRdzkx5zXm4i52mzJuSbkkAnbU6APz98ALHB0bVJON452DaOnJNvxzuheRrJlXrt+wp3YhLadHy7eD8GiIO90PFkTowpU64d86TzsZExNjoe+qm/EvDBRehgwsPb4GDwn6bxoyRvXPy4qnBgroJyzGfqww0PFyv/oT6Xqz+C79D8gj4/uvt9ZvLQTn3bXiATF7iKpYEdtQTYeknJxzPb5H+SM9A2OVaAb8c52acNT/8hgivsYnJ8F8sd7Pj079N8UhonOomeb5uJw3gm7OaehXuu40h0re7E+DFivoK55LMFEFvec4p4nEwP/YQkSOCAw8A/V5W/DAA6b6zGhT58A0Hy7ecKK37i4/81j0uVX7RkLrSzTx743NVEdE12sF4I3Ahjfvcm4GSOsanujPljc9qJzqd1nPetrjHVsOO4WkeAPnr6E2lLDLypdxxtQ9s8ePq2LOBUdpjmc+zK/g46pxVO9V4Ba4S4/xKOP4vm+xSwfqs6mi+Cjnun9R+7CSUUkIQ/nk6GQidX0L717ff4FYjJuJQVD30uN3S++OKL8RAl0JM7/QB17d9B+pm4gTrTRhXTBYJuitwrjtV4Ax8IF2/+ph7xqwvniYu2wMf0oaJvuPi+UZu2ncB41yZrmBwAPcW+z26niG6vJDGNid1co3OZgE7XfQd8Uz9riJ22PQdyPtFj6q30X4k79UO3ZYr17UawAAmMfDtLgm8DTIpDwEYwPkAfSTjP4e0cmEvY56lMWI0D51b1Yhwda9tgTElokz825xNhHVk3x/OiSB3nd1AfwJH5yCOoOfXN2u/8cHnyf92ZnNlOyGE89skNmZA2KzSfyLHUWYnI9qdC+1zVUKDvuuT6AcYU0Xz2V+MfE8Y1xdnoHLqf5+Kxg+hQkC4KfQ4dhyrxKRIG+OFQ6Y+nwWcRMh51psNBHvwt3urHykRulPQFun8FYjJGbRHr23UX+uByEYzxo77/grY6CfgU5vVtHN2/AhxypT/GvHDdI83ZNgnWYPrRuCFH62HPWgJ9qLPyOWGKWejbsTu8CX3sfD0D7FkHsPKxgntE6VjoOybf9Dzx9bGxquMUX+p6D2xvgywCkpfHx04efn/04jLEd79xMEaMXAw8FRc1Y6TPWxS/eJn+y40J2DSmsRMYC/aKyLkGcRLvVHvGMscVvKTQhy+5GsnX7akvFzWnvqyF/sin7QRzfAjwSyGgTtcmkVw82QeINjvbnEudKbYG+l4WgrGMJ/lXaN0r/TtIPuLM2HbAhvVS6LedY825GsvnDlc6ExftlAnWoYE+c64lbXUfuzgHGjnnBgcr/RUm/VUiAn8EzGWIroslGPeiFMbLGH+DmAWzAKcXyDOQt/lX9ULPC9/LWVvjJOaEXO2j+0J+azXlTx/JODtm+m4gY8KmL9bmxqe5Cex5O//Zz372tXjaXuhb0ObNOPfEBPiUFeRNftE+wUm8CeyyZimvhPF1rU7R+WXfsSnm07E7OIn/PX7hd03WrwYBiNnI/MbVT+AJzPH2chrcLlHneCJww0HgbnzePhCTSaDj20b6YZw//4ALzmfAwcW2LwDQcadv4KXk4afPLyH4pYF/3qNgy1sTFwZtxgRtcmn+CcbRujk2zSeoMdLxMZZ2yWO8OSbo+0Z4ta8a8GbtaSsNY51gXOaQ/u3n2IQTnUbr7+L7JuBaA2IjDmtkPY2ZMcV+IvVbev4U6aN9t//EpGv/6CJEmUJ48E6DRs8Dfwfq4wuffk9p4AhwwewDbNMu52ijz+Xp3xXeBQfWSzm5d0BPXXPTHjE/xpwHzGXdG13bSQdYJ2W6MHYwVuKwDxhTEt3Xb0NbL0LR9gl8+3YrZ+rLCdA1Vp+NyTbHQPIkWu8KV7Ek7nK/ElMdprEJmduqbnfRcfhcxdLjO13j++BEGHgHDwmHgE9vDhFvMVOCbEwuGTnyoE6BTByO8cQGzrwIr4COenD49iWc58315Iv6BLpwyXcST8PDKxd5UTO/XwPUN2tHe6p56uxgnD6xa9uJhzHHrdsp0qftycddXjiMPS9C2vYbK7+J7Le+fZ6IuhPvCnd0Ozb93uF4FaY65ZhrkfF9U7FOyFg7l8TXLkLfeBqScHlwuXSi9jnYfdCwPS1MBovNzu5qnhi48DoffJADb4RTrqL5J387/6nv08PqWw0xUlPi8LK3vtaNOX50Rlcwd/rhAODJNeHZ0oAbIWb9OHYC9eDG92pf8X/bSS7G0PFkm1j4qoDvBhmHM/PaYeK8yueKl/lTHfV2/qa5HDvxB1rnxKaBXz9gMnbFMZ4r6fkdTvSuOK6Q8Sc+uAhJ+OpwsQF5M0wdg3MMDrh8kwMT587PCTgEXBq8LTXgxv/0ZTpz/Fcm/ilNg3w4XHJ72Hgy5+YAqxxywabFw45xLsE/+qM/+uyHP/zhZ3/wB3/w8JP/CdsuD2JY+U/oXy7WzzViDDGfFeDwwqEm1uUUOx+8DXPRUwuALn4ybmEMKcShnCI5rzDp3rEX2OzsruZSgPVpMI5O1shx23cBX54B+uyhjIV5Jf2oA079ozfpJtcdYNe29N2Tj4uwFQhg+lEMMOaX+268dtL9FSZ+cGLrgoAdTy6WoM/hg4PvpwAc8jCP9KLCxY+vXCZXF0dCPtvyEAOX0r/9t//28dtT/rj4Bz/4weNpbY3LS2sC8+hrk2BOn8a947oCPriwVvtjAr6QnT57yg8lY7at2EfP73jVRXpNHF9hNdfj+hYZj5jGgGPNedU/wc5migVknCudCfhy37QkTjiNoeUEp3qJjhF07B+8EYreUAmMPUwTJqfvwYqPgpjMVbwcXi40kTarCwRwcXCBoKuN7SuoM+nCIS9PfjT8yU9+8vgHWXkbZExgL8dq09DvT2GRcSTXXaS98em3PzBWwDb1eDJGHaz1DujrM9dUDp4THF/Nn6Lt6bckTurxMTDFMuGOf3SpMSJcvxWP+WcdaCuNHpt478Sc0K7jtf21i1BFEp4CZty3oimZFZ7RzYAbbnwvlB06D9rYmgdvOFN8cPsWlbHIN9msMOnmGD+m8w9D/Pt//+8f7b4Mwc4nOhljAhsvKy8QZMW1AvzUgjdZnskrF88UYXw5JsiVH/1ZD+1W+Tgvj88J6sm14rxC2p3y7OL6VLiK8Vk0b/ete7ZzTExzrfNKGGc/wdcuwgys36QSzPUFskuiiwWmsVNg6yU48RgLz37bQB87LhwONT+KOg6wQVa81GRXG6B/IJ/Ivu2c3+UzzZHL7o0KW+L1ez2e/Hi5ix9kTA3iUAC+sz+BuVwv9Y2fNvFlPdQR9pknD3JA0qbR4/Ilr5jGwIr7CukLWcXysaDfV0G+FMcTrsckjWkMOJ7z09gddNxifCNkY7Kxp8MlAd/P8M/y52FqcvBswGBnO/lKOE8uYOJCh/j9I3B1GNcOMO6B8zKxvwIcxtB82PsdV/5CBllBjuRNGOME7FhL3rgQ11SeqTYrGIdv0+6TxCpGsBoHfLCyFujkekzxEYPfseLf2ghteqx5p7EGdU2dU6Dfa9L5o7OrySuBn67TKwCnYp1aRK8HuBOPuu/JIeMRy5NsAn4xnSAINiD/D3Ekv8MzAWOj7GCMV0CHHPytpCB28uA7Ojf7CvrChsPP825uyS8fwLeX6wo7X3Jd2cuhvv5X3Lvx5FuBeX0A21Ou6DLOh8KOm9p7AfojevsBzcH8xOuYPJM8s9ZpD/CvJO7yPouP7Yca7erUeYNnYpp4XoHlySFIhQQTjLEh2YzT3+mdYNoUd+GBuuIxB54J+rzZ8C9tc0meXCS54M13BfWx5y3GNyprgXARPItepwnpS/nYSB/U2B9pE9TGCy5rO8WXa+C8+o3VOCCG3EP6XYn6J4APfbn/KoAaXe3BO7WAL58g2zugl3KF9cn/ChB4YDsBHXCBXG2OtKWtPAts3WRXG4058+DSa3gp7S50c7Wdz2fy0CfigQZwnV7uPQ/H1SYE6E26z+QhdraZG22eSoI5L8Ir7Pw19CvSllpzKfvVxBQXYIw1UX8F9eRBl5+o/PpDP0K9T4H3+Dm1pc5KQvt+fkp0TI3tRSgInAVucJi4XHCySy6DkGsq2AmwV7S3PyHnJj36xHP1ywPjnewT3b8LarrizPGsnbEJ9JQGelzAXDg8zWnSPUHaegk0Ola/WpjQsaCf9ondHCAe1xS95s0+beOfxr0oV/7U4bLTLy8J9P3us/9hjauL9Q4y5ob+7kK7u/bWaLKz3+ParOp7Fys/KxxdhATH5k0wxmbmQHGJnLwZAmzgWiV8Fbh+4eAg+6MlG2qyRTd9TXr02ahsUjbwBHTIz3lj4JmY8priEuiTB29DiDklj+2J+wo73wLezuMuPPzI5NPY8WOOE7BlP13FfVUL7XlOMWFPHCnWPblpG7O/IGrAjeT+T/9AXrmz37FdQX9pJ+8K7Ye2del1sw+MkdzSfgVqaD2p2xTXCc97Yb6T/wlHFyGEUyFwQsJchidvhoB5iry6NE8DB+iqD+/kO8fR7UsG0OcXJuitPqG1XS3uClNMDTjl3XFnLic44WMdVmtxCuxZU31RQ998Juxigos3p12eO/uE9ZLryq71eXohAOwnjrRzHeUQ9rWHlzH7rQ/U2eHuPP3kzfmeS0znZgX0ck83TnneA3LAz5QLYC7j2F6ESSJpEzOeCefG2SGDeC/wPy3UKtaEY1yEHELeRsAqV8Q5ct1t1tV4o+N+FsZ16nfCXVvyz4swBdzlg4u3c+zeW5f0nVy0mUNcQ6XjncYa5qsAbGwn3H/J2fz0+TChFtZ2FcPkY4cVj+i4rvRXIC5yRazL3VjfA32d+vzarTUlDxkJsSATuniNnldYbBc5dRq7OWO7+sRyDi42V3Jizxst4/lGOMXlmBv0JP7TxZBjxZU5NIzhJB5h7RBxGqtAv4W14CcFv2o4jcf4sUuc2Ap9uTaIWPG0vno57npPIGfrSNsxxfFspw/3o2P48WwoQr0eayTfM0g/tu/ymW/XBjQf7ZzP9ivQsbf/RzUd4EnieVGk8hQc8ybMs3WYTy64/U6RT34WPHUmrIqyswHGoz365Lf6LtDNbjza2gdy2H8V2sfEz9jON3O+0bIeJ8j6NFZ+EvjxqxFADV1T/kGL/GA5Ra7XSQwCXWqAT+qA0DaeBD68sP0Q1R7wJBfzcW8438A+DztPvyuDH2E+10V/coP0yzw8cgLmySttcj6ROdPOfmI1nug47sDc5TCWFODzFZj4gTGkgEclKWgXlUILiUgmdUGSncCNyQbhlwPawp0Bi2lM3PEL0McPfnNDAuY40DzZaDnPmL4YR9zcyC7GU+iD2uJ/x4kONWxknDvcjTf1u00sHlpi4sMNoUb8izqu8RRXx4ENF6r/1mDPg1V+xkEMfMjyYUc7L4wEY66jFxa+/a6beS9TLx7i2dU352gnt218ArjgRADz+nWMfgo25jTVJoF++noPsFfsEydyh5t4EGKb0D7EHR9XSB+Jr+0Qi26SBm17l4jzWSDG1OfpgrOYtO2LKchG69C/syjpDxgXf1hNmy/rHZ+QC4rQBm4O4fwp1PcwNhjTL7lmvto6vwPz1itlAuPNl/rOeTi9TLg8mNvFMs2xDnwgrd7aV4CL3LH3UsvfxIv2mbkA5+HCln8NyH8QAm7XegK2yW/fuNJWvfYPmPPybHhJAuyyDxxzL065TZjiaEw6J3aJXCPaWYcJjutn0lvZTsDfVIe3ndaT2Z8MV0C3A0t7CsAGoxipt0pm8j2NYa88AzjZ7Nj3d1RXwDblPcDeDUIsfRmkHyTR/R2a446t0IY4vQhZV+pIn8vw7mXmIeGtTlvjvIqReWqHPTEgtJEEcU6SyFiUvMgmZHzyOYat9l5Q7ZO+c+aC0M65RPuk7rw1+kacNUxb2soE9JNbrGx2XA14sx5CjuQ5iWHSEeahrPCoEsXKxcHABRBNgp5FntDBCnjdpGDSEc5NXLuxzKVBHqs5kPZ3Abd1esa+0Rz0EXz0JhLM++PTDrme2U5M4471XI+7pxKrfBLYkxsXoT+Sko9CH5FfkQt7LjA4FMamuNK39jmmDUiOE6S+nPbxTw6Ou5aZi/bGz5hr6pwi0MHeWp3+SP8K4AO5A+PXdpJE969wJ+e3i5DC8XTzsJkmogwemym4tpuSQofLUD/a9GaY+CcueAAL70bY2fKc5v30d9M9C/PZYfKfcC2Auie8vg2cYlWLq/gA8VCvfMu3dvyIa/wgY0ePdeawth/6jPPLFv6JNIT/j2r6iP+sP3maKz7dO+4fhT7Av32e9K0xoq26zwIuauKeTF78GittYI3oO+ZT0CfPjJcYjZN5OOHWVr/20XUs7UByJVbjjROdFSYfxGVsK1zNg9TZ6f/WD3/4w3/yJ3/yJ49N68JdAUIKjrggCfoU2zb6rZOQj83PxnahtJnsc4w2oA9HHozcZPS1m/iA43D41vptRMcPzJEaMs9hXEFdxFpNNZn8JOTx6VvIVe3U5VJDVz/ycNHBwzrI6f5gDuGXMtjz9JL08vz8888fT8fY24oXSWM1/iysH5w8yYs83OOAOdaJefLLcWOBBzvEcfStGUCHWiH6ReBG4GXcDxD0mJdLjgnTePoG+nwW2utLrhyb4pjG7oCa/vEf//Ev3wjdHKcgOGx2P95SaJyALhD6zLkxXCRB235zOzdxIiw6lzrCWwp6KWLVJy+ebJb2fQX0p3zeA7iIhcNuPcHEb/zkvruIsGV9jFNpZH12UM+DCIij0X6wy4MIaLOGv/jFLx5z6rtXsr7MI+TKP7LLLzb8x3bh4MkvwPjn4twLIP19bEz59nlj3PNibjxF5iuHbUHbOZ76VYe+a44f2uwrPkjoT/pC7pTGavwK2qz883RsxZ+xitMx8ag2xbNAFmVnBAgKOz7FWteFu8KkA++Jf+dbj02mrDYL2PEzZ147vQR65K28CtY540YyrwS6XAw8d7G7Rsabh+EZGI/xKkAf+sz41Ukwx2XOM22Atqyvlx2XH4KNT4Tf9iKMoa/Pj4mMFX+TsD6IFzbQRnSfOgA5Jrjv4USHZ9aXy8/68WTNra9g7C52MZ0A24yTeJBpv+yQeUz605g2j+rSoUj5qeT4Csyh56dMgrk8CHdAsHLv/IOePylW6qz4iZsNJU7iQIy56/Es5GVDe7k57hNf7S9ruAPzrLdriMg9gbkWgU8PIXHmHO0pltV6MY64DubPM4U5LxXa8mnj0/GMeyevwIqHWDJu4gPmah7GLOhfxYaOecNHO9fCSy759QdYI39szr3g/BXeUzt9yMGz5QR39FL3sTs9BLlZVUxJ0KewFj1Bn0875iZbwXj6Vi/HAUVybrUop4sF0FUaxMzbBD9OXfkU6PkBknFfQf4VvKTQs8ba8MSP3581l/M9LsjJedrwT3mmvfOrengh6bsPnnsleRibwBxvc/yIzH8Hzo+49P27Pt+msEcXf/lB7jPjV8ea0Ven5VVYcfW4Z8YaZl2Yo4+NcTccoxZIfwDkh10CbkQdauMvo9x78nwsGLM1yacxO7ZCztNODpFtfZrb45clP/rRj94C0bEK/Uy4QNMcgIeFgzd19OPi8HSBXRg3+SugnynOLE6Ccb6XIwbi2SFzMLfciDukf221wy9tuPmkBvQVddVLrMYBfogVIU4ufp5XeYqMWTCWPokNfvpTHHKsYmSM2rsPEC4KxTcq10ddxbet5OZw84sTnvjn0Ls36PPMNk9kim8CNmClL+8E/VgvRDBHLY11NW/MgHrA59z0gck8tYQLbnSMwXnaPLWljchD+1WAU7H/LIwrOSY+8nr7ZYnJTSKaJHUg6yIDxwFzCqDAttmwLAgHkg1Mm4V8D9IXMdImlt6IjifM6xSt6yY8gXoZ7wT03JSCfo8JxqZxwDg19wLc6U6YdInd30hSY3RYS9pZc/PU585v12NXnytgSzy8WfKG6feKiBcqsRArefgnO74Z9f6eYul80FHPOqiTeiD7PQdYZy932gL+vOSQ3s+gfcMBV54zxukz7hx6+mBt9SXPK+FeTl5zEt1f4UQn8cFFCCTQ4Y6QOQrs9wqtS2Im13OMWfDUc872M8hNB1g4+oCxjGXlh3j8tLwCHOTBRnWzPhM/cVlTYnbjEQO81ii5u9/ougu4PPypQxvf02FaQQ7t5OOpiLuxU4u0B90H+lFyDOCHfKkj6+reYyzFcdeSMWJgHfyRUc5G55L52Ubgk8t9CYw34wbYsF7G5Z5Ux/3S9Qe0raH+AU/4eDpn7lkH9fVBHRDOO0hf7wW+9PdeXnl8gmwL/TxWgY6HzIkOpEmYpzgpDQs6AT7m5fHV3DeKRsdDv8dEx+MljT9znPgS6HkRXumjS54eHnNumytkjbF1YxOD69PY5UMNphjUZx5+33hsu9nVbUxjgFg6B9BxT3lMwJ54EDBxN9Txid5Kt0GNWTvelPkuEsk9QH2s6WkOAn14gFzJR5ua85Q/fWjf+wBd9rVnCZn8gLRDBxvgWSF3z4hPYDwAXdeEcZBP2++BPDuuV/hJvN0WJG6hEYrCkwJkARMEg44XAO0JEwe2FJNPRT8dPYCZJO1Ouud3YF7fcrnZrrDLWxE5lnM+d1CH+rkOHkikOQXxMZabXai/WhPm3NTUnA8g1gDJDyN5rkAsxk4bcQ9dYcXPOHl5ETaMLe1p6x9pTDZXIA9+hPYXNic57UCdkotaW//OdRVn5sbZ48LmCTfxAmzhRowZO9roIdSXef103eTApgW0/qthXDxtn+BU19g/ePXy8FlICsDCTBsRAgrJM9+CEm5ieKaCUUzHnEemhUFEtkEnTSwI42wu4uAXH1988cVjjDk5eJrHDtilH/SnOMg3L5W+oBrJqQ/rnnWb/AHGyIcc0BfUlrEJ2DDv+ngYHLd+wA1vbKDjYBw9fRoP4ClHw1ynvATz5sXTGIR+4TB++bLftuqcIO3a/wrmttM3PmrERcsbKGeJ9eDlIM9d8smJPUKfp+tmbvIjwjHtfAtNEI8cgDZjKcQJMse0eRYTl2Mg2zvcjeXt5OAAoSgeEPpdyITOrpxe2Qtj8HC+B3AjbAy/EOeC+jt/5+88fnMIP75OIBeYbLy04PSJpN0K6qinPX03LPC5ghxTfD029TN++ubQYK7tjY0DQsw9v4O+JzhHHJNP/TLP2nJ5ILT96aIvE6DdDugqE5wzvt4DIGO8AnrWz4uGJz6SEyRn+jDWjBkOf7JA6CvwIpmHfSE/8zyJL/cleftTBHaOPwv97ZDxTVjZtx19xx7V1TmDFsNxE38PdNaB6BdkUNleQbsrsOBehnziuhngZ3Fzg4n0rd4Uj2PmkZsYmeqGzcQF5EkBK/2G+o2OX71eW2Nj/Vc579BxAy8luRWBLv3JH7FZyxXkw94P0OYB09gKV7r6VIA5Z/5Zh1NgQ96+2aUA/PUF30gbuDwDiPVkDg74qJ3nnnbCHN0rcCEgbVI+Fqz1DtZpQs4119eitoAmvCO+ArY49CA09KVksXkKbFNOgS68gE3An018+eWXj0sR/omz+yzstEEEusZP3G62/I1z8l3BOsgp3GQ7rmmOscmOvn4aGYP9FXqOvmP48HLqGLLNHHsEvQT15IOL9QLpK+1z3Dbxu4cB49jgqw8w4y3OITvAi+BPcQzAJZI3x3dobuyoKULNfBND0m/DOfYnPEJ9YxP2FfQ6DmqoX8cUke1n0PZXfM/6+2CVSaYP8Q465akk6FMsvp/rOeDi4IsNi1/FDTzZnYzRd8x26sBvjsTQugk2gocU3Xwyzo8GuYkE/FMdtZ2A79yAAH3aXioi49RuQucDMgbaiOvgW4NrANRpux2Ydy8RA8/JhjlqSH4J47GGbWtejlsDns4JdBDmfaPy8kXXebmsN5J1Tb3Wn5CxyJkvBjmf7RWoBZcZepwr/t4RXuMAE49jjqPPGnsxmou1Jk5qAzeCnTqAvnuRNUKYk/9ZGIN+xMS78pXjq7a56OeD1csJYCEmQCoxTzYy38804GAug0jwie9/NsWiuDDor3yDFV9CHTaeBy3t8KOvRo4REwea2jBujWjzifyHf/iHb7kzRs74Al3THbAlZ3+c5IkA4nTjTtCWJwLow5PjzgHigtP/dI03L9aDXFd+wJ2cAP49NCt4kBIZ6wT0zSljom/OCdcbwR+5025gy/pRe/aN4sUp5MfvxAMyLn26l9wnClB3BeZZG9aKn3D4/4VhLHOlj2QN6BMjT/vEQyysv2uPTsYEByBWuRjzMjdvfeU6pt4psDVWuSd7x3bcPWdcE9Y3zVcwqAnOOT/p0qcwLFzPAQPV1oXK8XwK9RurouDfTe/CivYBhyLYEF5I6Zc2G+lP//RPH/ocFvlzQwh0eqxBjGxI4lWwURpsUA8nPhvEkxs6OWhjY6wprwA+s47080AJ43Dj79Cx2Zczn+kn+9i413i239RVDxC/dVRnqmtiGmdM39YfOQE+0974kEaPm1NCe7kA+4V1yvXKM8w4OsA6KEJbxA/jU6QfkDnQVnYglp1Ox7yNbiIiOMV5nhQKSVBYDjKfNlkkYSBwUTAvnC5c2l4VoGGcHrTk0r9tn9jYx9bN0nCOvwnrN8ZJ/wRyInk5THzGKPSrLk84vEwbqWveKYytZAfmk8MxRJ8ZD+3MVXRsK8gtf4KxCR1Dwrhz3jVJeNCzVidQD355p3i6hmCKeRoDPb7TS+EcezGblzEak3A+Y2Te86y+dToFvpLT2LKdY43UbSSvuLwIERM1uf4RAR0K1xchYJxLwstNzgTjXoJ5EbZe90VyGqvopJuj50GOsQHIi8sENLe+yRE92nlg0CGXyU+jc9BuZ6u/9CmYIybeMN3YE+Cn/m5Wnq6v/lNOYOw8M39iMk9hDj0uJt+pK79j6qZf4Jhtob4wf8dyTh/mpa68rwR+9ZMxfEyQnz+JeCHm3jHfrL+xuYbE634C5nE3B7gUoP17a5Gxi8vVwylCYn7P1kkq9ifwHZqbBZ1MEDCWBZZnChqs/DDunIsoB89cVPoI+j5ZzL7Q1bMN9EHfRaad/G4IJH0oE9BRj3rwoZA2cFpHL0D1k18wlsg5wRh+cm3lSxHtYwd1sSfWtpU3fTjPM2srVm250w4B+M4xx8Gqn9K2rkHGfYI7+q4v0N/HAPkk6HMG+HD3O2NiJgYlayDY+47LOemdAH9exLnHW55Fr8NlhCThQSYwxMUxEAk5QOom6POmtyoI9rno4jTRjEOeTJJ5fHt5J7TJtiK0n+I3NwR+hTro0wvmNB8AHx8eXFC+ISt3eETWY0Lm7uZzXNt82l6BGM0ZvvyAaMBlTjy7zvT9QNghY8KG2qcNe9e3HePBJte7fQPGyCX5eCY37VVNUu8OjK3r9yxfIjkybtrMWQfn6CvaOkeM1JZxP1DRM37nd3uggS362tHXH36Mwed7Md9MAZMhGJ72eVqsxDRGsHkRmhBPRU6BburnHHzZb2Dn5ZPxYOelsivg5M8LTbuchw9ectQnzz6IO6Cn6B+hD1f+1rI5s29urQPkTKjbMoHxtp+ADhvYNwp/zNK/HN3n4udPQhL4JGdyV0/QZx5u/ORvP32TYQ6YV/qbwBw2xuuYtuxTkPtVbmSFnDvRn6CNfsHE4f7juQJz1Js/v6G2yZv8wDnuAD9IyB9xzrb7kzHHWQeer0LHN4EYdmA+ddaVCpgQYpvnlTOhzQrMI8IgVwuZuhO01V5+c7gL/WU8mTucxqyA1BHGIieY9ETOyU0cbjjn4aPN+KpuK8ijwCGPY3dBPP1JDrItjJ3Dy4eJOmlrLA3mqb+Xl5cuon/1bO+ADrb5Y2Hy4Qsd2j1+gswh47mqMfN3crjSZY6Yp7jTFr/p27y9DM0dHdbPPJIfke8uWHdFbp9XQE9JTPbHJ0ZCC2JySBJ3wvQpFp/UPBtyqOfmsoBgCnyF1M3LAn748EEbUFx0TqDNhF5ofQF9274DYwduuIkrfZPTXWAPvz70o4+MI/1eQbvczMiKw9itHTA2Dt4dYJd1OYFx6Q/hIrTtvgQ83avWbuXPcfmn2KzVVJtpTEw+GXMNE8nDvJf9FDv9HGtbc6YuPJnP8wZWcdxB8tr32WM7XOn85kmMkOQGJnE3gGCOhBnrxCkGf7DLU44ODBuKyoXpjzfynxQSPkX9/HE1F8kDxxg6p9BOH/rhmQuuH+CmOdkQOd98AJ6Ungc5fgJ0WUvrrnBI4HoPMj7WwPWwjsJ6mVcCDmLx/94zkXmfQD8r4Eud1Ms1TOy4Jqg/2a18A+as5QlWPNMYOeVeazDOfNr69A7QNp+p8150bJlDtq+ALgKfAni87cgVIUUgGSUTn9AbGaCPbRa8OegzD6ZYTMI2mDiSH+Gy4/s1vgtB6HupExMX7gnk6djwQc6+PfgG4act4tuEsSWSj7Y6cHIh8QGCwHe1BsbS6JgnTHyCuRT4Tji5/BRr7geSsE3c1IqcV9jFeIXJ54Q7Pk508eXFb+0mO8bY/3lGrNkp0F3xgzxfd3iBcRmnbcH6uUcBOtNe/DbA/LMGbxdhJnW3SMDCtANBUU4XYopF/objOUcbX14aPH3ToY+03S4mdLDhoKovsHEeyU2ScoXWcyMlp8AnlwtPD4uCLpI48Q8Pb2wpXmDA+E64EsajXXPYT7kCee6wumxP0XGcxjVB25RTtL5rvELqt5+0dY7+3ct2BTn40PeDn737SmQOYNV+Bh/+jBLYEXdAuQAiDyjI+Uk/0dwTUieR/lyUXBzGPZgcGC+UK2Djpx3oGL184ETuYMqRMaWBb+qbb1piZ7fDSn/iOuWmJn2Z8yTeqeaTL2C+CcZWuqfxXWEVz10kxyrmrIf91u142i6RuqnjWD/RocYI+7f31RX0h3gJyv0eXHHciXGHx+5akTGuJHKsnxl42zWSJ8GYC5HinO0G4/r34kI8fL3QinxXRWe+fadNcq9ifAZwycczYwfGcBV/8kzIT3Avronzyk+iOTL+jGXlC6CXHy6rHOQ2drHi/TbAXIx9qs0E5rURjmXbPug62OeJHjXm6x/+hMn/eOIkFiEPT8/cewGXca6gn/f4G98I0znFQVbO0JsCcDM+ExzF90LJNlzGZnyJaQwbbFlUvqhX+NGPGHlTvAPfINOXbcZbrjDFnIDDOth2TUC+bV3503YFY06f+p1w6s/1635CrlU91GdeSRhzv+GveHex7+ZejczH+vDs+iSITzGvHEu5An7Q8+LiEvz8888f36fzd4aelSsu/ZkL4HlldwW5gD6UhP0en9AxgrHakqFEgUA7p71bLJGJnAJeLy4WwSeb5BTGmzzYO56HcYoRnYZ80xygVl0v5S7ajngR8iAGvpgm7szjWeAHDkS/tidudZw3NmPRtkFt/LHJOt2BPie4V/lgS71n9t/HQsZlO+OkLv5ImXOANutujZ2zjoy7N2iDzj3t0l49avfTn/70sx//+MePNpfi7/3e7332ne9859HGfgU4FNG+noV1sTZXuPLnfHI9Mmvy7NPuxZEon7ZB9ps74VzauljJgX9/xAVXnIr9RHLLD9CbxoWcbLarDUGcucFeAXzq200B2of1m2BcPU8fu77I1FvxgZyTBxCXcbJ2HCzbPKe49T8Bbg75av4Er1yP96DrSd8xYmSNXF9hPd1XaWPtEC9CL0XmzJu2dsmhAMZZK/5FJf5kib9YAKu1wY5Lkv8zfHSEfED/74F7N2vQssOVzuWuSkckl8XsZNOReqdQFw6SZTGUZ98i4LJoImMyB+dTbwK6vF1OGwLob1qou0i75PFSwUduCqHeCtO8Y4j8WfPUz/pdQU5jlc+6J5e66avhwV7FcMKRcx3Dx8YU12psN45QRwSQQ9bFvLiYHNMuL0vHJ7D+/vkWlyK+/P7QM6AfOHj6k9fqfLwX5py5J8yxc1rlCKzPUxGnQwvR2G1YMc3D5WFEPECTjxMYJ9Bfjk1ALz/dAGPkdHIR7rjvQk5qolAP4MWiP5473+Swqnn7SF/NOXEIdK0VNXQfKI7nYQQnsXPIeNpXBG349enzLnZxvBL6uco7QR991gtxTD3mUoDzrCXPvgjVazDOGeS/4eaJLWvAGUDgkJd5eLkouTCp/ccAMbnnjZsYpucO6KTerWhJ2MOhiFUxGzi3SG3TCdjvoCes5i2YAiik8XcMgPhY1CmePIyi+xNnYxVvQz1ipfZu/ruAB1ltUGKGm/ndJu7cVrl6YDx0PB3jiejH2FZwHg5szMO2tjz1pV8Pa+p8k8h6PRNT19vcGFe8KDyrgDoA+sxrJ+SVw3l1+E6a/2sALkXAZccaUmd09MtFyC9b8jvF5noFjFPI3XviCnKsd3xhRTyNd5AJNzC4E+yKrzFxsiHyv9LgD6P9K3h5r2JBj03ERvAywgY5jS1xavMM9wTi5DC4URKMcUGxed3c6k7woAnbPTZJIuNY6Qhqz7pZe7CqPboK816Mk79vGuZwGkvmkG3zpT4+XSeEvQ6wUXp90WPcS1Pohyc8/KjMpUhN+f8IR3xDNA/G+CULF2ZCrldBf1M+d/C85VfAuYVurMYTPW//vUlpnxzGk5Lofi8Y82ww/+sU0Xr02RA9DqaxU8DZMkH/XT/6zKUAn3losj1BG3VasPdDBmmfjAH7V0CfmnMRJu/EDRjvHLDPfsfyTWKKxVhzLHMEzpMbdUHcm2kn3DPWBr7pA2Ja//aNjv/sGXp8gMLPCwZjfmjxJzhciuw/OZvrWchnvGDiZkxZ4dZtAxHJUjw+ARTG0okBGlxiGmsYtIf3FB0DyAvgFCtdCs53IWDHN+VoDHfiANqQR+aCj6k+jLE+bnqBvgdmio8x8lPoT3rtT6ibT8R4jdVx9VZ8CXSJqWNfcfU4T+wT1pM68fyUyNhEx34Hrhnr69r5FK4BUB8wrm+f1ob+Lh78efF5LryQ6fOEh580/HcPwd38djC+5Ox8TnC8A3AEMYeMhBAuQW58L8J0fJVsH9SGi3GCKWHGsPdSmHQSp7H7ibviw7Y3oVjFeQU3JWJNsp8ctD3cOU48xI5Msa3ibu7sN7T1iS5xpDA2+U+0D/SVxmpcjmmeOWrUQnwNdJXM470wvsQ0NmGnZ75TzgnmvRBpM4+QG+faN7yrmLDnMvQXKvThwI42+w0eLsP8EfrV6JzN5yp+52+taDrrIt4B+v1KnoBTbv2tkBypnwuKr9682E3+9c2nWUL9jCf9JdRt/u4D7KfxBPNsHi91n86l/VVMov3SdgP3ePaTW18tQs7kVXb6q4OS9kDbVX8F5vGB6I+a9p50zhxou59Sj/aVz1Oc8tzxiR7xZ61pe1HRVscc+W6P80OujeQzDnj47pAxzx3gcuTHZOZ5aeJ7w3x5ehXMJ2NSiPXK12/98Ic//Cc/+tH/+wj0BFMCOFeugK2bjiKtbPTBc5VEjiePNgjxAhfcovAU2RYWNaEdnMyh00i/yastdvIy1nAsn3CxseRIO2LIOOBmfhrXL0gOeRHqhJ26aQPQ7bErwAcv4i+pEPrGwdM4QMYu1ElJEFfnDYwXffceNUXkaFviUE9YI0DsAB0vR3Bam4494RzP1NvZXMHc4DDXBGPMcYmRo33yJzfHzK/tATqcaWrDE2GdWXPnqRU+EPfAK0HMimsFMnbmBPn94Ad/vH4jTEJF0MaJknMnwIZPnJ0dQVNsEzCJCT1n30Jk/Bm74yvuzg09YtJ+BYqrjhtJcW7ld8qFDcP3MCluuGlDMjaNJ+BNgYsNa80nWAvrlpjG4HSzw+um12ci+xOXsHYN7VexC+KgdtaRnIkLO2sGf66T64jQVz911eOgI4ztgH1KA76PgdX6Gr/5KdbEegDs0UMyB3TRYc2psb4UfVgn/muU/DObV8J4eAL9rrCckUAkYW6KdiiYm2AxKMRKB8CXMuFqjrhcFBY1x93Mkz1jxLb6w9CrosrbdXFjTT4bqUObPJTcpFMNr3ysbK7smEuZkNzoyIsIdKYYUn/iZ2xlewo4EOrXNZVfsMb03e+uObrGkeIHnU8hzx0YJyK6/wxWHMRIzMy5v1J6DSeQY/Lbtp/AH3cAFyFCzUTW9D3Qb/I1p/31aV4AcotCgbxkMtl2Jhi3MKvN/irAzQYnvnzTMXZlggXzx4TGKj+Aj948CH3ioY3O3dyNqcU5n8iOn3k2/Mr2FZArxYPGE2EMZJzWCVlB+8RJLfUHjAlgq9/koe0a9rh985KvcxPOnSL9fSoYs/lm7jzzDc98E/YzdvUYW33YcBnySxQuwz5v7eMZGIOS64WIcXVaCdjnUuE3RHwxmj+iZQHAqmCMw8EfZGoz6Ynd3A5wE1fG1jzJrY7ofkO7KTZs2TSIcAyk3xOkrxYA9zSHNBhzs+X8yibHey5BDC3o48u3JDY90hei+ifQVv2M6yq+Cdprqx77hi/52eM82ecIB1qkDcL6MmZfqLeDNnfs0D3hPgH59ll2jYCXIGCM9dQ3T4R511TY5sxbR8+G/HDxYzL/RQr7A8D1TH5pl6IvRV50wXgRSqZSAxI2pJsyHeogn+gA+XjmpZDIPnZ8SlAcOeRruytM+RjHNI64aA3z3oH51Mk6APqK+azGaHetaWffXGgDNhe1s59wzDy1XdXiWcDHwfLNPC8VxvPQnYI6AO0z5lOutlGEbeuEPjn4VgOYY9zL0pzklsM1AtNa7JAxTXiWdwK+iN+1EoxnvdxXPPnqiCdg3pp03MbHC9TPf/7zx6WIjgLQ4Zzn94bO38kP/SkGAZeSGH9rvHLsOEGyISlCFkJJYINujjMGBwGnL9r2s41eY5XoM8gYAH3iA1lUx9kA1Cs3zA6ZC6Ae9nlaN/l9awLmrk6LcwljZ7xrZyxTTb/tIG7+MNc/7UD8x0PZh9Y18z+BNVFWaL7s00bYF16IcBFXxtMcCeJHN2WFjBPOjD/lWRgnz9wrxJRxpp9dbugwj3BuuAz9cPEDxlrBjzCG/jN56Cv9Is75xA+/Nb795zMNiqToYEIWk+AIIPVpTwkz3nrPAn43F2372VZyIYQ6HETAvPp+KLiY2nW8zYdkW98AXeUUcPjjxWpN0cn1+P8TuAi5+KwT9QbWiDHyR7wsEfvMW2ee4E59d5jWivjSz8oXOuqZG9L66gDazuf4K5ExGxdP+1lH9ttVHPKhq3Axchm2HwRc3S1X0GeCPrHi4wc/+MEvL8J/82/+5OGMCSWTRBoQmch0qHDgpYB9BkKfOS4UfdE3eW0RNrDtHs/N7lsCXII2NsA8nDeulByjnYsDnMMvT6CNcauDXdpm36cc2tinns8uPvFQH2xZm4Z+nuE+Qeayk2cx/YbRH7fJyT3CGrkmCrURxmG9nEeeqc0qJ/mUFVyzjok11I45xtrXyjfYzd0BPNSU2GinAO8B+xNS33q41xHPG4IfzjRPzwJyFzsb5qgnF+Fv/MN/+H/8xb/8l//XBz/muXiAJ4F46Z2CDWsi2OX/QbdJ8s+Aw898Fkmg17HYRpc5ElEA30HwixyKyjx6tPXtU8g3If0CY3RDAGKHv9G8Oz+vhDGCzlUwnzlNeCZeubBNXtrIVPv2T5/xlX//ywT5EPYWP2qxJn5IMd482Xdv+EFKn3VkPfnOr/d682TcObcaX0F9YjBm9rIXI5e854Nx8mPcPY00MoYJJ3El9E1M7nvG4KFP7RFx5V90HNghrqN3COeZ7xfznN3NQRi/wM//9r/9/V9ehP/qX/3fb8XGAcXln6vKYvfGmKA9TxbW/7aQxeSCctFMlE3tJtQHQlG5mGmvisW4c44BbOBKO9tps4I8ifQDiNeCdozNP/HtsLPPOcZbV7BpmVMS2DkPyCN90LeGYMXTwC555XS8eV0j9FKc8w2v8b3vfe9xQNDx4mKv8sQeX/rpuLOtL+LygGtHm/2JMMd+9BcizAPG4YATuylWoS/QetYHX8asvv4YQ4dLgTnn8YtOXhCvgD6MhVyJT+ifJ/6NUxtzpO9Yo3UF4z6pTT7xwVpo+x7oh/vn7SL81//6/3lbYECB+fMWnLrIdx27mXi6YHKYnPMJ4kBWm8sEco72NC6mMaHdhOSUgzHExVnFOWHylbanPFcgtow54aHz8NBHjM051h572idxYe9h8VAowpiYnzhTfzrczH3/+99/tHlDAHB5EAE6+jmFfrWjTQ1d49yP9Dk8fIhTI+Lgg37yh66QX6SffjovL+NcRrwJOweIC1n5T8ABrvQE+sbjy0oD394RwDiBNQPmsMIqJm14skeJAV3WW5zmswIfLlyEj+8Iv/zyJ2+EBs2TRHYHHT0kFxHxYCXHBMbZ8CmMucDYnwjI9imIcQI8zHlJOCaYU4gTXPle+QKTrbVEnsEqHuOwvoCnNUdcM8cbrrGxpS/azeua2ldnJdo28MdlwEHgAoKLPTNx3kHb8TTujF2Yv77p8yGQOqDXfNXXdwq8CICfC4Znc6BLjFfQru1XUA+f+sWPOdNnHRgjBvro9aVpDs7zzLF8rmBNALq2wZXtFVjHP/7jX/23xiboRYSgQPF54uzKIUmii9A26Uyi4dwknwLEZ7xC3z7NY0LGas6IdZBbe/VTAPMt8tifkPopzk1gE7qZbfOprvi3fu6DCXCba/rUBl7b9snV5wryrHSYlydlx/lq4Is68VWPXx8RlxcVT94yEPrarGA+PKlVnkPt3Ev0mwvbBvG4NqLtJqCfNgB+Ljxi4knu9hGgnfsV4N+4Geu90tjNgaxP5/YKPFaKjc8nLIeAJ19O+r0LyAXIgB3PDYlYJBcTfZ6J7ifQJ9ks3pUkpnklQd8FAx0TObDw1kFgR75uBDk4BLwZ8KmYT+amxTOmKVf5resEbd1wCGP6myC/7YRzPd4gJg4DsotPJB+6k37rrJDxTXE6P829EuwJDyZ7hPNCLbgAv/jii4f4VUFjys+6KJmj+wMwZ81tJ9R3L2QdtFnBeW3kJ0c/HAFj5Kwu/tj7SPqjTQ2cA56Z1BOMTePCeJAr3bt4fEf4z//5//lIDOCsoVMFHfWyLeir64JwaFJPngn+kSwFtnA882KlsBREDtpC3wCO1qOtqGdbPeCFgk1ehoyj1z5XSM4V0r7jusLK92SLLkLsPPUlB/0TnyBtgH0ht9jxNtcE1oK/NGCv8h02Nuin/5U9tsyhkzGJ3CN3kX6TnzH2CoA/94tQv+eSE468aBzHhnPluQDMo+8YeTOW+/cK6QOs+jwR4+NJ31y0yTi1ST4hpzFjh6z0E67vlV6De+bv//3//ZdvhDpEVkSMM08y6u30xZUeCfRCc+nxdsqnLJ9EiIU0Bg4DY+h6SbYw3nbEYSwWGJmKnTZXkEfJMQD/ThL2tV1BW/2k/sq29YTrkMKYm3IH45iwmxPMr+JqyKd+2uzsU9/9mPIepD1t+PXh/mFv81cU/Cdk+T0ac4h5IQ242MecA9/EBPwAO9dNToEvfDI38U/IeJJLOO6cvPRta0/s5JDQNu21QzfPHU/3YgMbamtbjrsYf37KIFfiQk+SMKmEARt026JP8Vj0vOjgUrqfHDnfekjqimwLuXhmgadiZz5g4mugs5JE+6O/uqAm+4S2E9oW3ckHWI03OHy+LexiTqy4W2+y88A0h7ptA6Yx7FOMf1W7FeB237kXgT8yJtJfQg7Pgi8BCHNI5qwP4bi6VzjRAekvcwPMwZOXIGMItcxLueOyn2OAHLFrtL68d3C0qh1Utndou4TBUiQLiWij3Y7jCqtCnyCLmbaOP1NsYCwn8eADyUskx54F9hOIyfUwPv01TuIHbl5zuIL+8mAnrmqHXdbqGWgnh2L8zoNsr0C8XmB8B88+N07nMyc5J27WRi540Em95kEYy4uqbXaQb6dvTPowH/r5Bku+7gM+BHhexZGxwkM77RhLn+CKc8Ktj7d0tkMGQnsV2AnXM0ifK98TdrFeYVcbOFfz+lz5ZdHzFy7I6lKZOKaxjgMd+TqWXV7OrQTIp4/kXgEdcm5dOU+gz8kfPBweD5BIGyT1ONTISt/+CeDz6x6gnb4Q/CR3wvEU7XLMvUKb2Nv2CplrYhrHN/lwITLP0/wAY8ZjbrmPr3zxdA20Mwd17FuHOzi+CCHO4HU0OczA0J029ccCfvi04Rcu+Z/5ncC4M7+7MOe0lzdhnMTnL4eo7QTsm8/D0twnca/iaduJ/y6m+K5iZP5kDZzPJ3ancVNv1oDaI7QZm/zK2dz2sWGfn+411w8kXyJ1MiZ9pj2Cvhce+fjjd9oaH7rPAj59J+Dk8vOSR0d/xJFrY25weac4B6Z8bZMjufW90npw5vwOxxehTiDPzaJj+u3YsT7gjt+5pAS26aNhPMbSuitbdVfzgnkWoHMC2hPDFRdzbgAEm9yc5gEYd+PYtt9ov61D37Gcw8ZY5GiuZ6HP9HeFyS9j5k1bvhWv47sc0JGPdeUC6Q8m5hRhO333W1fvEX2lzSlWNs1n37cx6mVcXvRX60w7OZ1LPXUmvdyfSNqB5DCO5AHdTzBHfthxh0xnEciRvle4dQsZ8OoQNnaBEDybjULcxYlv0borW8d5KhMsPoemkXY7jgR8iv0E/awRnG60RNvtMMXFWMbxKvgjEocRWdVFv+bnj1iJq9i0TR/mNNmia1zaUWv2JvrtH6y40DU/QXvSfSWmGBmzhtSeNjn5VkYb8RLKGO3fibtj6BoAawzkZs755tgBXdeNHPjJb4o3Oa/yuX0RkoybZoerIBjr1/YrpO6Ks3GnwCfAB28M00UI8KdcoeOl75jtlBV67kp/gmtq3Hfy2IHNyoFE3DsT0g/t6SIUu9xO9mYDfWNLYRxf04UB9JPjjClwgJyfeIRzO51E+p+EGlJ/0BcfbftX0M8JJl1rkTUFPq3TXbi3yMMPr0bXaIXlRTgZmgzYOU0Q5CthXFN87Z/+FNMO2kx2+vT7pPdgFX/7pc+Cu4kAdlnX5pq4d4AXfv9cSX9Kx/SxkHFP8TPm4Z3mQddFTDboKs6RrzUgb+Z8g0qOrolzzovUY679pY1z4E7N0Z0EJH+OtS9E3bQ/gfxXoKbW1ZrSpubAuE75sGXP8sf1vJiYT8N8VpclmC1/BYwTkEDGJZCOedL3R8Z2tgrAAtxBxwROC3eFiXvCs5cDcSrUjLo04FWHNofSHy3Tp3quAf20vQPsnlmLV4I8jJvntGeIMeuQ87RbHzA25cY4PvN7MwA/NdcGPfY0H37KtMfpuwaNHMv48yxhz5zzzf8s4IKTPURe+oY/fdjvWrWeSJ5E9ic715CnfwIE0KUO/LSFXL1oJLdcYPIpiHn1neLyIjRRgQPGcIpkUR3naSA802aC9qdAv8XxBMX1v0jJTb3DroANc30WeehB5gKmfiLnJ11rfxfaPWP7aqxqzNhqjroq5qAeT9vMoeNF5EXouDVQ/DDCL+JlJZI7ob1QJ59wyZc+icMLeDq4dwG/eXgpAmupAJ8nSFvtzHniYQyf1pM++uSKkHeuzQrJjT1c2uk/0X4b2zfChg4gMgnAU5mcAHWFuj1+ginRBLxusFU8jTtxXPlfIX3AMdVE0N7FtJqHV7kD+Z7N7RUwBqQvG9FjGa/rnjzqtx1gzP3hIfJSTH0uDWW1pyb+FTImYxaMpTDP8xWQD3/mk9yTH8YmeQ+IIfOy9jzdu7kWp7iqFXOrfbX0Mh0IxzKBFOaZ86keAU5Yje8Ad/pbQd87nU+JjIPYyJ1FUazFFO9Jnj7BSp/xkznbK93Eic4JMn7a2U8wPu0bx62lHBOPunm55RpM/ECuiXOq3co/mOayb3wZ14S79dev/Im7XO9B1glkPRjjfHsZnsZFTrta7XD8ozHASQaLeGvn5ZS2tKfgGGeRJz9XsFDGgKzwDL9Y8SbnSifHO0bqwSs6/7CE0ptSYEeuO3SO7Q84NnE551qmLs8V1NvpnIIcrtaKeermvplsTmPBDh74+ArFf4LOtWBeLn98ng4l/d6L9Fe1m8YaqSPnCp3/s9DPytc0votrNyfUYR34ji/vCeZSVnCeOnTdd3aN4/fOLrgbiU3jJ5fSuiZo0Aa++nl9B/3etRN3irTazPjWf+cqTsebf5pfxdEHc9JJeJgF+gg+EfuA/rSWCe3ei97AIuMB6iCrmuzi0XayE6yrHPpBqNtVjDnXtWGOC/XkPyJIO/dZ+73CXX3QMSdW4430exWDnOiRJx9C3AnGgXC3WIMJ6smR67faIxOOL8IVdAoyKPsk0smB0wCBujzZkHypmgdaTJyMpTjmcxKR7UQW+wSZd4PxlR/GPYTG5lgfJufAtAGc73HhnNwrvQl3ajHB+pzwsParL9HN4ST2Sbft+CBg7/K2gtBmP6+g/bQ/mHPNWE9y6DVc4bQ2iWf1rYlyBfPygwIe7e7GQN2sNXXut0SwiklfPokFW38Jc5XLYyVOF2QHAjAInCL0CaaTUTdt7kB+k3uGQyRPY+JlLHNa2TZ2Ma7m4GZt3GgeINsJOcyn44ID29Ulknkhu3gTp3o7wHHKY16nNl2HCckp5KcW/gQy1UW9Ro/pAw6wsnsW8LO2HPpnMNXpKj7msWNv8TSnk7xSV304qI8vT9Q9YYxTrCD9Ji9nhd++r+zA4wZEsZV2RhN0jN2JbQZ9BXX14ca0n7gbd0M+eJpbpM57/V0BXx4effns+Ogj048TbFY/HRvyUdes7Q7P5n3HbtI1xgnmL7Tn+Wy8Iu2bS7/IlR9qq4DmVe7Ai8gPyJW9FyX6E7J+PkVy6osnkhehaPtTwGN95FacV1bIPNgr6JI3Ma/wtYvQ51SIdt59QAJTESbdZwC/nxhuJpD8xto+LZAyIW2uNsyO5xUwV38sU+x3rY3H+Qb5TAfFWmG7Wr9XAB/E0P7vgHqwuYnximeVR47Tbr0dL3M5rz1C7XJPJpy3PQFeD337WQEdP9xYc+oz2THGWxH/SjbfU7bOKiaRMbGHkPeuZcMY0o8f3lkXYB9gp02Cvh/stMl/FfN40ifSBoTesog/sq1wVegrGA9PC5DoIoqMDbmyzeduU4v35nUF+FdxTEB3F1PHLr/jq43S2PlYARsvsR1O/J8CX4pIftqKmOJzTK5VjM43HG9bdRnzwHKuuKw8uIleH+z9Lg3xpwF0+kxae7i5EJ1DVwHGlMBW0EbgwKYv4Mn+FNryhBPASy6I+fN0TJ0GHMZHjfjHGX7nd35nriv/g2IGoIh0Ypt5i+4CWIy2fwVW8SQmv+iStIkz75iX5PSf3aCz80POK6zs7iJjfxUnmLisG3XwU3jafMy/MhYAn5zZnoB/16rXWuS4fDtOsOKagC5yxZlA37Pi3tEnPLblBtSbQ5t7M+exY86+kC/1aHPO+RMh/x8qvRiSY5cTOvokNs9/+mKOmL2g3gsvQ/y5/3gCL2Sgf2EexgYPuRMbFzjPzPXBCFkTiakwjCEE1A5t76Bu6k1+JmDjRjKOBjqOp076lKfHbE+8QrsVes4YknPHLzKeV0C+O5zqTjl8DFzFlwdhhY8dY+KOL3Nb5Zj1ZZ62FwCgP9nlOQTaoetZAbS5EHyDY57/rnf14/IE/cPPWxZ91sQfX/3gfBYdgzHzNE+EPmI8PG3LwdNY0PXN2Xgz1jFinUnY0IGBZXtnt8JdfWHiiSyMvLSzaMJxxE8WsNI/hfVAPLjWB9zJlxiUK1zxdp4N7PWV+TPeOTyDU9tdru+JY2dzl2/SfyYmkPnCgbgOiuMN5xI5pr2wzz7gD8lpcyn4r7lPPhLouzd8sse5VODBHm7m7mLlGz4EXyB9Y8N+8JxNHIyhCwd/q8gT/Xzb/uoinDcdhinCPoFMP1IbyCqpxqmeQD9t9J8wFoSk+UTJQsrhocoC+kyORo9nPLQprpvDNjJxnWCyS5/iip/53QaF01pYl8yD/rOwLhOI66Q2mTPt7CdW9VrZ6H+ns0L6kuMZaAcHa+RB922Itr46xtzbQA6wigcd7H7xi188fmRkbfi/GvUy2wFu3wYBPIzB4T/Tr/8TdD7wym0bH/Dy9G0WG/Yk+5NL3De85EsuQK7ETqzYkO9XWvMbIcjAGhC7ODwtBH3aO1thcDyVKzvmTTSxsjMeRH+AWI2bovrKnDy0KdbEnVwN5uBMYQHzQ+NZEIsL74btmHcwlhXkV8gfPwh94ld2mGKyLifAZqo9HHyis153QOzAPSo6F9s5tsOp3gngssZZJ/cqYM418RA7J7pmO+iLy+HLL7/87Cc/+cm4TyfOXFex21vAPXUH2OCLPN2/+GQM8RKk7V5VH9DOJyBfePy+EIwXIY66GAlIk1gwlgdmh15AcGXDPHZpO8UxYaW3itVcJruOoSGn8baP7oOTPLTzAm+O7je03yF1rIFrit9d3iJ9XPkD+On8rf1UF8enOcC4cdPONUhZYccNnLvSuwv3FbHx5LBab/xwieTbOU8uAX/EQwdbn1d5AnXw4wsD9v7/tqgjmFPsM0+s054ExJbxnQLd1M82XNYha0R9iJsnwIZxffNEnw9UBHvw1M86GdAEnO2A/RWHMAnbbgD74IorN88VkpOCyZ0+WHA2jVj5v4pLZH5XgBNx8U+BDTG72VdQByFP3r7y33W86/cOOv/uEzdjjq/yUMe9kuufnIxlH+gD9NwKqber7RWwVagzayDwYbwZn/mZG2IMz8SiDW9W/iOpE5LbfdF7g9i4lDLmKaYeUxc41/Y8kawTOtSBehC/513dBPuZi5AneOoiBE18F1mcFUzMJ+LCa3sVB3rYUBg3jJxKwzGKlPy2KXwv+hVWvoC8z9S0bXY+ctOAjol5clb4lOcS9CK8G5/c7WeHtJlADMoK+kPcLwjtnHMfCMfF3XxF8thO3hOgn/vUsRVSb4Wr+QT7BH1r1rA2WSP1iNt6I+iwt9RF7yqWq3m4iNF9mXGAtu954mF/cxmCpy/CFQhgFxRtF7j1xKRPQXmCld0KcuSBUOQE8MqdMQjGkNQ7gb61nzDxqb+ymbDS38Ws/p2cJrRf+Vy/FdqvPFMefgjBOc03zHvSnw7nXV5F+7SlLb/PE8jDngHJkfz0yQEROz/aJ0f3AXp8j/bzn//88Zx0Es6rQ9y+kfEThWumf/YCOsyLjjtjpd3zIMfziT+/908dkG30+JtK8JKLMAPGuf2cE7QtRI6D1oUv31AQbnEkE2yehBsbXRJHAHG6QFdxCMamuAW+yG2aN9Yd9Ks9T/whXtoTd2I1n/5bh7kr3sakP+VI3BwKv7dB8gDs0Hz0WS+g/6u4sZnyIwYPClAPyfFX4Fku9rn70/ipJ+fAXxoxTn3Rc2/vYCxy+ttW+RvWQn3tXcO0Q5dxf5LwEgSME7tyhVU8DXziz3hoU5v0e8J16yJcLSjjXayVLiB4FrN1sg8PBWOh/EJY6YVL3w1jkRsd/Cfajj6+c5w2wqZrfcAYRXfBXQCfk01jilW7aW6C8xOmOcbgMt+UK5zqUAPWjHU8qQcxTfsjMc3pq0VfrLtrn/6NR7mCNTtBc6fskPnRRojdNx3BgeetjSe5uvdOsbpsgTHoH6CTfZG6IGsN5GaecZ6uz3sBF/uF2phPxmN7h+ModmSZpHpZ2ATzXaRE+sGeRfFNQrlTPONIEd3Xtxuqga6v/BPMa1oIxxy/A+3SdsXTemI1DroOd3Bqh55rN9kYn9J1FJOtY+ryZAxf7hl5AePGoaziWiHjwi7534uJx3pw4HmaG2j90zjQ4wLtOk/2jvWzwfjVXM67Fu8BfNQlL3XH09cOYwRujjtIfdsk2BfKSXDOkxQLldKLJnac2Cjt/06e6JLPZAOn8aYfxx1bAU55k1+bnN9h5YNx7HvTrTh3sSau9JJf/0iPJ+w3N+OrOWGtew1YF55yuDcR40n+RNpop96kf4JV/MK4E5lbgzjQz7kptmlMX4g8SGMaO0XaZht/1HSHKeZG1+XKpueXEXTSGK7I0UXUsU+CfGqt7FbjAHsS47sGfub3Owdk9WPTNMYBwMbvVPxEVby4jGUX0y6PnR2YYhNt27rMX20WcBWDh7ghf9rTbmlc5ZR21pt++0qkDZhq0batgx/WmT3Dj42svXvGGiC+LWZtJ3/qIf31jPrGRT/lBObj8wTsW96A2NPkm8jL/U6t1df+FCd5qoMP2zzdF/ZX6FhXSO4VJp5ltirzZNF3X6oyhuBcARZ1wsQzQf/8SIrQ7sU95dqhC9ebC6DjmwXAL5I5n8KYtZ+ALw6wknpTzlcxGG/Dced4elkok90O1oS4PbD5QSQmXseu8hHNkX18Ucdp3cyN/aSgrx59933ryiGYO4F1Sdjv8RX0mxcIY8RFHHlZG/OEKQ44kc5vAryeySvoKzldG/MApzUQxmkNwIoj51tnrNCk6FgmAui7MRokOX1igcnHCujBob6+eKbfKQZw4kdbdD28k13mw/wJ9wTt+tlY+WCs878LuXOdciyFsUT3V0AvL0Oe8nXs9Fd7CWBDjBmnAqZ6OKZgSwz5EwLoCwNdxjjoPPNSYS79MsY8l2Z/h5x6K8DXMN6cs73iNM7VPPa+UBhj62nrHje3Cej5wZZxroAeaw9n7in6XNzEBY/jE2eO9bx2DfSSd8L8UVGAgCSQJsMBiRhUzpMshdoFcAV9y4VkEXcgJhaRAvPMOFeAV58T8oKUKw/IKe7orvAMx2RjvuZlDVqwPa2j0Nb9ozB2F/j0n43yv3rwzYeYgP4S2GW8+HcvtTQyVnmSizbrrxAHYj/17+Q85bGzt66cDT9sQPIYE/XKmjW02fkDzOMTTtbhCnJaU2tHLD53lzToMTgmvbu4vAgNnMKawBVcfHRX+m6OE8iDGMvKvsf9BLTYblT0fJ4C/xwWYtBOHrl7fPJBv8eegdynXKs4phgnqH8H2qTkeiKnwJZLkH9MlKfCPyHFpcgbGTL9WDj5cS+xplwePNXjyRzfMzrnGchzgA/9MOY4ser7DqxRovsT8Jt5GKcCB3HKT2yue/JnG2BL3upOkE/+HYgTTv2zTgjofsPaJqYxYSzopB7jijhaKYOfwHh+AoldgOBqXnwQ7K+KbTvnuq0k6MthwS36VTzykWfq0jZ3udMPT2QHueHiuYN86MnfkG+FjB9763Hl27V2L1zpGwdi3Ls6py7PCcar+K8sf/7555995zvfeQhtxpjjUpQL38oJyJNLhR+huRDzF3auuXEA/MDNXJ4Xxq7yYjzndn3bOd8w9owD/44jxMVYxrWqDTm2T9vWxLM06SQYQ9e3P3wSF0Lfc5mxZFtOxlbxAvRW/l035+9/ZA3QobILThjAFeRKfkDRdn6cSx1sXfQsOO0rwKNPYwC0c3O5wTgMtHl6aIC2GZdI3oTjxMnm4XBjz+bT3wnQI9aOH16EjcGTMaWhvkid1sef0nVoaNv8E9BRyJ/v+xR+S4xYF3T8iYD2CvJNcA4+eLPmrrO+pj1FXVkzLuYpDmx3IrItVjEn0CGefLtlHyCA+IxZXZ4KwIZx9NAHGQ91YD+CjlMOQBuOfmtHsHN/Os6YfMbT/II5Ywdwpa1zjBMvT3NZ7jjJTpDBXgFenN/hB/BfHSbjMBaeLKAbAFvGjCGLdgXs3DiJ9GUbyOsYfWTSSeQ80A4wRw7kZH9C2iRav2OhHlmTiZ+xHLeNTevveBLJoayQXKwr/7Don//5n78Jl6BvbwiHc/qJpQHvKk7nnM8nvPjwly+Mubc8iFlXP8i8eE4Ahz6B/R4XXT903Ltpgx5tcsiz4bzQxguk54V6CfpwKkB/idx3PKkhNUrbiV9oO+kkF0hOx5YrsXOoMcgEVjaJtr8D+PMy6qSblzmLnsJFwpMDgpzEDdTT76ldI3lOYM3QJ25rsDpMu/q2z+xjB1/KBGwUYRub/KQ3dqXR4/CQYwMd5rjs/uzP/uzxH8sjXnSsqeIa2/ZCkucZYC9HgjEviPTpOP6yFjzpcyH6pvpqrOJMsSaINRJdI/tpc6eO6CfgyQ8nuKwNAvQjmkNkHG2TSH79pe3Daw7chcR3sAv4DjoZ4Jjj6Yc2xUe8BO9chCtkgcVVjs61zQ6ZE218TtitSY/DxcZ0kydW/MnRfNh4QTPnfLZFjxnLak0Y4/LjLdBLEP0J6CqNjuMO5Js4iMWLEEFXvYyHMS9DngnmdusHmFPsnyBjSGkY14q3/V9h8kOdWGdqJpd5uwfQAVOMIP2vdID+4Uf8YMo6zzu90A51ynjOgV1AiVO9FdLemBRAXCS6AsVeHaIdOl/6Fnaqh8jYEtNYQ9vk4MlGsZ8gnj5gK3h42Xj5YyTjyZ255TjtzllbZFdjdSZJdF3hJMZTwCeHByDXq+UEGSM22Sc+8+bpVzO0U685ED5E+NF5dxEJ83olqEv++N65JazhCdQzZqQvQ+A+dG+vfIOreeF65Np3fd9uihxsrJwxTsA4aejQpOU/Df4E8mTs2WZBjeE9yPjBxLfKCV1iOMGKt+urL8bbb9b9FHDIYxvhsjmJH139ubl5+laEuBmfhfxwPQN8c7i/+93vfvYHf/AHj98u86c3+aU9z5bTC0mg2/rMUxO+R+RJn5rypE7CC4infyO5+0DDDxzp/72Ai4sIkD8x9PqjM+29qU6OqSuXffLn7Z6vOxA+NBhr7mfhesCHkI85kYP1f0SlkpgSAjlOmwVzjOfKDuT8q5LcIeO6A+Nsu+ZLPTfFanNoc4X31gU/HCAP2QTGcw4bL4He8CD1ea5ycQ5J/lcAPmpLfMmvP4Q58mBPeollPsyx6TlsP/3pTx/fNXLg0eNPbbggf+/3fu/x/OKLL97+/AbxvxjhAPmH3PickLE1mCMGDru/XDEv4sCHOfLEn75X/hhfzd2BPuUiVtrUjRh4Osdzapt7wzVBD53Us+/ZybkEsWUMKxjPFBO158OZDyM/kNT7+s7/CqtgcjwDyrZAd+JxLIN9NeROOcFOz7g7J22mXAHjq7lXg1g4pPibfnScYslD6GFPYfMB7Mx1VaeJH92VPlBfnbYX6R/oS/3s5zjAjj418RLyrZUnF5K/YUaPnMmdWnIRTn/EnX+naI1E+p7AofdQAuLLS1C4NrsLoHN9L/CjL9vtW393fJvHs7ibZ+pqS929BL14xeMi7GQ78QkSI0AbnzrXWbdB+z1B68uVSF7bbjLHGzk3cYrMA+x0AfPW6BSrGK+AHZ/eO58dr4fNy9ALEJ5+E9hh0mFsEpFtsavnao5xxQsGoa+P3PjGQZ/Lz1/A/OxnP3u8MXJRwgOoixciT+vDRejl6Di6+tOXoJ9jxtPSyHHWKi+TSf9VyDyoxcqX8VnThvaA+JFnAE+u4QrGM4FxL0FAvMbzFpXGq4RyzHa/dSRxYgrOsR6/A+OAI+Mj0TwMwE2kXuoLdHqcPuNTXkBf78mjob8pxsQqB217fqq3+amfwnja9DORY9j2Ey7qz2VBW6gDJt6GOtitRKCrAOfoexgaXIJciv5mmoMzrS85kAsfFlyI/DjNpdhvdhkPyHgEsXj5Gpc6vsHQh8vLtjneC/jwjcBvDvT9ET590u4YMu8EenB4IX6TMDfXjw8w8LYjTcCCdEIm7WZ2QYBzUyF0jJ3zjtm+A31hl22fjgEK74VIe9powDhyLLmJHUkwj+j7LrRL+xyjPkrWLtE5kBv/J938mGd8QttVzKkrmgNMehM6XtuM74DeSoe5KXbRh1Vo55wcExdj+GfPcBFSzz/90z99fKfoQbYu6ro/uBT9z/x4S1RXTP4EelwWvrGgy9M9yzwxeSl9DOBDnwB/xCOIqc++0JbxKU/mPIvfJMyBteJDSzx23BT4CplQLrKFQBLqsGF6gzOHrIq3Q/tWuu/YDupN8RMXcU/xufnzR6POcQXj0rdiLayXApyboD0HZdpsyX8FdNClFtqJE3sw1UHeCcxNNsC5lW/GvYwm6DN90F7FkkCHOvBfrPD/6saPz1yQuf95ZgwcMN4OvRD1ufNnPFw8fJDx5C0RP9ib245jArzKCeDHJ757L+UaTHx3Y1sBbmuWYNz6rs7aFJdj6FtLn/A85h7/O6CTMjhkcrYDXG2T/MwRFM+73A25SLB/TJngHPGsFtILIYEd3PhR8GuRnwV+vJDT5yo2QCzm0ZdXzk1Aj82e/nwyBnb2CX21z+Sd/KhrfwI6zE86k0/AOuRmB+17wjTHWxIXAxcEwhuiPzqDjgEO/HMR8qMzH5QdXwJ9hProi6d7jDzuIv3t8m2gy57Av3bmZowrvlM/u1qA5EGXOiDGsDtryW07x+RmzPE3lpMEMMKxQTgGsEfS4Qrqtk8DmzhW4wl12DhsvPzkcC45sr2Dm7ORnIgLs/K3Q+q6Cb2gELCqWWNVV9BzcHOYU/Ct/9bfIX20eHjMBRiXdkD9CWkr1G1uAG/vVcU1OkHGQ5sacQl6GfIGZ60Q2q4dvrkM86eGRsZhW77cT88i4z8BvtKGPjEw5jquOHdzDc9LoznwrziOnR8QjIu0dVxbYQ6JtyhSMdsCw+lgdH+H1tUPgXHweE5BiitfzLeOB8GiZ26TPmgdNzVwjqdtdOzjA9GnOjusdODFr3WfYhXOtY52xueYffg52LyB+Kcl/v980Ddv0fwJfSHWLMdS56p9hdQHtrOWjBGDOUwfkO6JbAP5EWuVAsiRi5AfmbkUc5+43+izt/Hnb5ppJ5exg2wDP5BA2ig7GP8dwJk27WvizHmQ7QnMw+FatP0O1BQb6ksd/akPTBw5ph985zqBB0MnNyUqWBjfGu6gOYFjJGJArwAbh4Odbzh5MBtdwF0tsg9fb1JycYFOLkLmp5heAX3Dn7lnrLYbqXsSX+u1DX1qleMr3+LuHNzt14uIcdoIIHfe0jxIPX8aG09suRB//OMfPy5EwCFH2Id+sMDNn+Hw3SHfLWu788O8+9c/7iZuvoOk/WoYj3vDumSctEXud9og5yc4T20Atjsb10Ud/AH7nrMrvwA98/CeAL/1wx/+8J/86Ec/ejvQV/DTjMCSNNtTQMwxvgr2JIlTpJ8sIDDGxDQGpnx6DH42KpK+Vv4b8KV/D+UVtOtNIeBxgyDO64s5f3PmRubZm0r7lhXgQMj7CvB4eHwm9KPPzDHbqwPIOHbEQkz0UwBzrhG65E+7uYwFODeNcY78ADbm1Ncf9UYYY++I5GzAQ3zETts9d4Idr0An9YxbdP0UY8L2NB6BD/22v4Rx6Q9da80zecD0tC1c97/7d//u+pclK2C4C3g1t7IzuB3nXcDlhmveO35c3C6gffhZBC9C3z59nmzUjEdf7W8F9IxxBfjTh203L0/FS4y2nG3bfAn4sPdSzfqtYpRr0mnfK0wxyWcM5kYfATy11be1YM42MiF9as9+4C2DN0DeEunDhW/AnN8pAsZ5w8OHHA3G8eXeQuChfwcrftBzXU/67mXrR+ystf2rvd6Qk+cuf5DxeOa8BPWLvXIFfb/l5OAVIM+NI2zrfOJiLu0yUDiRk+DvYoqlYV4Nx3su82gwzsKktO4qz/SHtJ7zjsu7igUw50ZrmFfPTb7Bzo/w0oCDQ5L9KR9wwjsBeznc0MnVvMZhLJN/xtQz9nxzO0HGxGWFsA8Ac4zTZ5yDDPxlSl4q6CqCWLkAvATpM0+cqbeyXSH1QOs6b50V4Nxqv59glUcDPcQaWFfXKdc2eVZt/YKv3wABCRGc+KlmsklkkA3mCbR15RXdP8Fd/Qnktdroxj3lJXZzV5jyJ56UHPNySTs25DMxJEfjKmdgvAnjtU2sCv0J+mFTe7gmwNsx7XIAcPZbk7lh68G1P9WXtnmp20h9kH385y+erIc68vn/s0IMzDVnwnlrzP7Fjr6x6iN5ptgTq/kct6bk4k8+vqVe8U/ARuE71dU+Aejoj7Z5Ysf3p55j5zr/hOcGAduLUEVktUl1lqTtXNucV5/CegicP8Vd/QZxuJkazF0tDDq5qU/QMVsLNxgC2NgsrJs8/cih3WptdsiYsw2nIrIN2jZF2M/DKWzDSzv9pZ5g7k6O+k0//JjKLy04RO619uslRK0R1/5qbyaP6Dzwyy9SuBT9hQdrmz7ocxlyqCefzalfY58uQ/lPIH/7WYG9l2+nJ0hu2+RKfZpnFwe5UUcvQDgYcw3p8+y4rJkitlWCyGAwmhJuQpD9q/lXw5gz9h1YTDbn3ZjYYG4+f0OosEAuyB0QAwtIndkYbg6EOLuW8nfsjLM5iGUFNrCbGG75r7DKifGMj74HMg8nUI++Y1eYYpOjIb82qUOe/pkQ+TcvusTqZdj89POCST8NxtFH1GN9uZRZW5BcPFk3LkneEJkTcgC5bJuHvhCAL+RjImNpEIe5JYwv7WizF8kfcQxkXog1Yn/TRw8/tHlaN+3bD0g+cPlxkYa0kSRIJzuo/7FhbCkURxGMA+LncExgYab8KDQXHQviZdiCjj52QAddhPissZs4JS8r7NRt6BubFeAiPw4RFwMH08txVY8diEM+BL7ksRZXNel80KcuPK9sExMPY1lLnurxJGZqQR49B4zBPnHl2p0CfmsOl+sFeLJ/OOj8iQzt9JlgzFzMpwUd7NPHx4RrBfA9xc38FIu61nUF83a92G/aZq6Tb2EMxrFdvSTXQEz9lZ5jPfcKyN9+EArqwuQCiWlMkDsFpuDytST0JWfPT7C+LJyXavMIdBWR7QQ8zLFRgDw85ZWLA8TBRNcLbMpZrHw2F0Ib8ZCusOIE+O5aNDLOlBUmXWKwBtbB2BHm1RXExdohtDMP2z7TF4AbP3nxCnTg4zL0p4usgc+EcVrrjDljbNuJC+T4SieBTgvImpyAWmDrW2ECLoTcqJtv9djohxypFyKMBWR8OX70MYYTirtKKgknXM0/i+TNtnEyRmHEFMcqNjiywMJxNzEHxk0naDN2AnSJ0c3qhUjb2Hgi7WMCetjz9EITtPFlTVYcjDs36Tif0sB31oknmHQbGbNY+TmBfKe+0cvYaTOeF4oyce/8MIdgxx7hMPMPObCPHFePefYD34PxY6DzPIG6gDHHAXMIewGO3Fuuf3K1PWDePHfQF9JnoaEf9ROMu2d7/yfUk0ddxHiRtmuoD5YZSoyT6XYlCLFqA4P+GIBbsTA8ERaEDewmnhZTvR3SR4I+tmxgDotfxnvozdl6reCCGS9PRHvq7/eO5rDjJC78w2Xf2LFjLeGC0wszkXnazrEroEvs6XMH53mmbranmN6LVVyr2I2PNWBNENcOsGat77mBL8UxgU//Mz33q77cY7megrY+kxvg21+80PYc+92asSPN2X334grqaOfTHBLpT/8NXy7Yp8wnd4J80FEPHerkCwr9iX/C8iKEBHHhc9EnqN/AxiDtn3K+F8ZEUb1kAD7xP/lmbBXTlJ8+EBYMHzxXi5fADzVIjhb1TviEG6lhbise5rwg7b8Xu5iTP/Od2vZBtk+gvfnrt/PL+dZxbXMPAXiZA47l/raeV3sdDj5I/Rey0YUD6Lft6TtmO3XMG+QcvK5x1gXY1g5ke4f0lTVI6A/4TDBPruzhrOtKF+CDNmeclwBrhX/egntPJ9cbx+N/AxIgtN0AGvBUwNUCA3VF2ndgd6Adzy54Al/k0XG0X2Pp8VOYlwtofwd8aZP6aUc71wDsYkyeHeCgbtbO/rP5Y9eSh6HjR3b+HD/J5QTW5Q6fujw9Cxw4xH6uNzA3+x5IL0Qw5QxX/nSBfdZOPuGYOsAxY9Om/WV8onXkugM4pvUW+pA79QXjxt81o62g53pwAfoCwHjWHKEvRz7Fw0MHghKGiM4aBtWEgnHn4Eg41+NixTlBrl0sE/A9+bfIQn6524dzbXeaG/2MpeOizaZAck4e/Xd7QnIhwHVWTjD5aN+0qUdu5EbbNLBjnrib+72wjifIOKmbh8/L0FrCmfvAegNq63d15jQBfQ41PyZzKcKl3YSsTXISo5JAx/jV71i6n8haNBjP3BHyWemDFZ+28MkF1NeGXLwE9YVgR814piTQk/cxg4LETEAOKZs4F08BPJlDT7JEcvoEjGPHz/WrxZ2QHMIC6X+KA2Cb9uiZYwO9XVzJxZN8/NTxkwd+9VI324msoXOZy6rGwMUWWfcGPGwYDlgeBDhYEwQ43jGBFXePY8vYah/Y3uUG0FPsJ7Bd2Tu3kyu0v4yF2BHBuPug10FfzK2Q3KwP/78p7FPWxe/1Jsid/oCXNRyAWOn3VydTnBNSr33tkHu0Y6WfNUwwR6wZE23FPvbuYZ5wpw5gjPkcy/YjOogIFBKDRsnDAgk6GTALypexq4Kgi61icPLQ54tcOFhk+nKh15jGBHPEOsEC5ea0WAn68DA3bVb9a4+OtfLJWF8moH0B/fmLDTamlzPj2tC27ozhBzhG7TwkyNWB0Y42/vBNDIh/jsB4xowuMGb7wJjSpzr4giv1G8ZzhUlP3xmr0Oc09wzMSQHJTZv1T2FfIOgTP7WmxvQ7ruzLjw2XIWvCurK3prVFL+vAE4HH9eXJpUJbfWID6CknWOk65tM49GXsqee6TnkB5lO/2/apDzVvH+SNEAfzQDu42Z/gzXsGi1B0D7XKFjeBLuMNnQnbPAmMtxI2ha+0rQ8s5LPA1nwSq5gZIxbiE8akvsVDaAPmlAnm1uLchEkXZJ/10idtZRUHYA77jFc+uZXGagzxwkOorxfBKhb0XPcdnE+etKE9cXRu74X1UkBzUwMuGt9i1Et9bRjLfeh4z9PnnHBe+ClqdxkC55KPuPKnAH1ikzE0GO85eVcwDgG/5yVtaWfffKdYGGM/mbs5qItP+Ol7BgD5+vaLoAcP9vbFo2oGJFHerCh3cgAivtBlLhMCJ8XVhmDhWqG5d7BYfDr4a/XcOHJNMZs7c8S0ih+7FPUtOk+hzg4rP1fAjjy154mkT8cQapAXk3rq9jOhzQTmJi6E2vSGMx4wrUNiNWcurC1rjqzyehZX9l0T9N0L7gP6xIkA97k1A+RiDrSRzAVg55sc/+kdeU/+FcB88uQ6pK7SaP5TNC8+lfSTbWC/xxPENM0zZr2BsZszTwQdxL5xgbeLMAO1n+TA4hoQn1Q5L1JvAuNuAH29F/pzM7kBaQP8KBSBZ2PasIh2E4jdjd8X4RXgpgbGSf8ExuWPwfaRjl1kPZTUWeWYHKI5GvC42aY9hN0VMq4Gc+TChZCX4S6mj4Fd7nkZAp5I22Qu5JDz5s4Ytv7yZFU/9LNe2LU/ddRL/Qk5f6Ur5CdmanHiI+uzihm4vjlG3/0Gh3MKY55PP1AcR8BbRV08iu1rdG9iiVk4L7GGQTnXiWUAtHs+23cAl/FzQfMnCIjfj2Q8OzhvbIL21E8BbXcFDkB/v7FC54ANa2GfJ7naRl+hDz/6LfqVR3QfyJO+3ZyNaewUK76ugbkRC3Wknqt4GnJZo8SJ/RU4B/5YSxtOJH3RfjuMv4o748k2a8v/HQCcjk3YzZ0i/X4qkPtq7YyF9W1Y17wIaQvGvM9WeDt5Ovc5XWb0eXp4GyThW0oWceKB3wt30t0BDnC14eHickQszIqfYnlpAngtKoeMg5+Hn3HmEftyr3w0sDMHhf4KzAP56ZOXNbTfa2fMwHHi1pZ2+1UfTPnAyT7wK4i+zLXnqQC4Jr4EuhkzwEYe5hDGzMFPe9evkVyJKZar+FboeAUxUmPQOu4h4vY8TEAXybUFu7yYW803WDdq+rFwEoc5TmDcdW4d7aiNZx1/1nbFmXjb/ZIhBs3TjS0Z/4kOYzhsoEMQAFtthH3svVi6QPSVFeRZcSTQzTiSP+1oq9tzaW/sXAI8PZB3Ab+15QkPz/TbyDltPWTJN3EwpiQc07Yx5Waccqkjj+uSQCf1tE1g64ds6ou2d5O3HG/+X+UhtM/2SoSxJM8K2LlWCP4V1/EK6Q87980E+dBdwTljO4UxnID4jFdZYRWHdbd+jZynlgj9U3wtIgmFbZ37xjd9cqGbAWTAFsM5nrYBc1OCK8CXfu7Y8waT9o2MTU7HEH3BwUb0UqR/BywabzH5xgrf7lLUL+uAHesADzJ9OAE3B7puEsaAfBOsATBn24msjTZp+wyIrzmyn76A7R5PrOL+lEh/1p4x12OHXAOg3SoHxldzwvnW7Vq9Cle8u3iN8YSjc1FW52o8AZJIaB8CDr2LN6FtAPp5uJljAfMwngA9xRgQ+/lcgTnfahPyiIwfGLM+Afp9Ee58J+TzIvRCAxNHjuGTHNKOyw2ujhswhp7SeTSucsg85ZHTWOyjlwJ8TsAuYwQ+ReqI9pFYjTfvK7CLQ+A3fe/iWPHJkXWaoF5iF1v6WumlTmKlbwzOZ3uFlY/OZQXtW1ZndPkKMzn0EpyIRM6ZMHa+6eSFCHZcgHnFfj4BnP6YKnfON1bFxAb7BLpsNqR5mWsuc975b+jDy4xD3rxAPWLkrdZD4Lg2aUubWNRL0PcNUWTcnYN5OW7MXnwdj9Cvtq5TQ9uMR1ugX+pDnRD9wIfArR6gnb5y7puENUIyX0CMKbmvrdEJtBe05clx4JzzovWAMWQcE6dAL+dWMQjn0Jug3+RILm1zXqRtYnkRNjDkb5i4cLoIV8iAeLKwHGT+yxL/rbUO7AocBoRN5NvBVYEBcfOldB5UkTEK29jloaefeo6Bq9pgN8UqZ47ZnzgzjrRJ7GqS4+S10kvAh098K/anGB3jicC/ugjBxAFWcbn+uRfk0Fd/SK58g6v8hfk8C/xgT8wiY2XeNi8S/nNagLmUFYzPvH2R2YF1bOx8iKt6yGHOq/0imJtiAb3n4G4ux20rK87jixCwKFwiSDtOZOHQy09vFiI3JW31lEbOpTgHL8X1u7Zlsl/5ZDOgo/0KWcRE+svD134nfjl5sqn9t+FoExuCndJgDF1zwN9Kn75+EOps3UXaZb4pCfr4dT2td+s1cp6YV78dnXwmruash3AMX+SXNXDfNdqHdVkB/ZQEtm2fdQY5rz7ipeXeALl2on02MjbWCqRPkXopYKXfmMYE66BcQZ4p3wkdX8aesLbT/MOTRCo22DR8IjHHJl59KQ90Ihdtkvfg8lQsTAe1w0pXLvkmPfLg8lmhYyF+FqNrgg665uFFCFq3IaeSlxSbnzfl3Pydixdb/lh4Be3xjR99Zm76SV+JHDf3Xa1XQFfbCcTlL7MSkw9j39UcP8YrB/rKDszfyQ2g35LI/mrOveG+IA7id4/dhbyu1wrOpQ5t5KpWV5AnAae5rrCbE8aWMRqzIrKdeHix2KKVmecihJxDv9rEV8AOey5Sv+jvA70KtHGql8CGS2CCfL1g5O7FYZ0UQOzGn3bOJxxLexdMP7wh+pY4cRjD9FauPk/b6Bij+nD0QWOu+RLNbf+VgJN4uAj5wEJoI3xIMLfCLh7y4hJx75rnKt87+al7xyaRMXjRsTZwuTbE7LlpH3d84kt/+vimYH75oZwwVvSu4lQPtK72VxwP7xy8DMRiCQ/N6Y9CwEREB8KcP2KxyPTR0U5ZYTe3AjZ9GISbLgWQO4fQy0lxIyFy2c6xRM4peUkpcMufoK+9F6E6PLFJqC/Qxxdr6Jy+gGPa9BMYIwJS/z2QByGeL7744rPvfve7D6HN99NcjF172wnnHM+2+fOcgJ6c5ngFuV8B9wJ5wuvLgj+FMZfx3Y3RvKe6iR6/4+cE8HsJIrbb72qNEsTlfha2jZlcEbC6vx6zFh8CDYTBMs/hOwluQjqnLU8mMAU4jT0DciA3/+Xf5CUGBWR8tnmyYL6x+f1e8gA4eiwBF4tBLYmFTU4faMuTMccFFzJzHAp4Vr4YQ7D3w8schDocNMQxAbdQ13mf1IOYjOsKyX8F47VegJ9Kvve97332+7//+599//vff1yQfmWz4nYu5x3ry4A2a8obKLmdwBh3/lOuQK6uieJaA/y4nldIf9jZxx6ZLh/A2DT+HiQfbWrsywW1XvnrPFd6U/1dm6zjCo9bj6JgpCHOdMgmJ2jm3DgZzCqwZ9C87es9IAcOzVQQ8+aZ0HePg2kMML6KWRueCn6pPxei378y1jECP5Dy7UDI1Zh0PAitf1Vzx/PJnkD8VKctkkfdK1gL/oVm/i0+hP8fD/p8cAB8wcVB+s53vvO4FLkg/ZdZALkqIsdSBG1qmx9OAp95YI0hc0wu0WOpvwLr4gcY+sjELZrTvusiOlf8rGKexuHtnE+Q+rQVQAzuycknQNf69x5ijrFdHjmXvoHtt4twAkqQcHmwCXl6g4spgDtI+4nrvfyCYq0KRp65KSwWfWpD3jzRcR7YB+hqP/nYAX03A744iBMHB58cer2IZ9ogxpkwTvx1zsB54fjElVj5E83bcJ6Y+EDgHxbwHyygHgh9LkUuRy5G/789vLiwZ2/6/eLqjcc4pnhcB54Aew+hOcpJzZ07xeQzATc67IPedxOMRWQfHqR1BLzk0PMdIzotd2Ac2eaiRzLPHdI+QeyujWhfxMsHJOdn9dPLI6Op0BDggCcbkA1H4LnwqwK/B3KaxCvgmxQFb+BvtbDYsECIi+XG9AnguKoF89Zu5w9O6jxx+8aFXvqjzfjVWAMeJDGN7TiYU7/tGifz1tb6JjdjvilyISL8fwLzf4Xp//sbNtTYjY/w04C1I96UhP2OU920Nzb7O2QOO8iDHmIdruxAx0FbngmMk8PVHmEOHUU/O5sr4DcvwqsczQM7pHGVg/sBoZ26+h1PpJN8qmJsAAb0MQH/e4o8gTzg5KBMmArTMTDOwvGG4o+wLOAOyUHbBenFaPSctolpHTJ2hA3Sdisk3y62BnbKCYztVXBvshYcKt4O/TEaP/xfQfhdIvVIEPMUizEi6MCND/q5dox7mB1b4ao++nsVMs6V7/S58s24dYNHWenfgWtGbXfIOCcQD/n2+jbQY39M/raWHFo+Tf1ik6ebLnG3KCeJvRfwWxiecFL0CRbm1C/6CD68aCbb1ZiyAnPWRz0ONG1ymGzTRhDjKucVdusi0j9t/ORTZBvAzYW0u5zR8euXk1gm4Je8uQx5W+StkQ9B+DwwHRtwjKdiHz5r79tlironIA5sMj/su34rTHXBTlvmOaPJtbLp/THpOYY+vAixvgenuaKD7k6f+H77t397uw7GvuL52kWIEsRcghCz6P6IwSayEFmwJGbczZY6Ded47vSehTGRB/z0uwDp2zn6xI+db2/mom62p8LmfAK93kRwc8mxkNTYt9fkpM84tryBrJA5KPCfIn3SXokwHnPqeUDfWOy3TgMu+dIWkM/V3hJwGKMXmdwZzxXQRU++Kd+TPQ+YT7kDbfRp2z6wn4KedWswD+TuNvPkaxs4f7oOp4CP+8YPGqCvlAQxsRaN1DUH9oE5NN4qk0kCDh6LCyR1E6GrTNjNCeb1BfTR7feCNxBi5hCsODPWKQ7EjZRzYMqz81c36wcYp+3BWgEdFpEfyX0rEXIkL+vGZuIiz031aqRf5Qodf6N5drrWdQf5lKzTBDhzrdOH9qyXfKD3xhW01X6HjgHY1751Jl7GVnthiiX7tOHHlr2lvBIZv35yDDieIDbWgx95QeZnXVgzPwQb+hhPCGT8GMwTRxJwGJtMZwj62igNHe9wonMCeLjQLQTxXHGbR+bNmOMu0JQbkF8b+/Jp5zjwO0fmOk45+N4LPQ9ho8e0I17XRc4dJm4hnwfqhA+YD7ZZgwnJaTv1sXdd7gCulOTM8e47ljAf4J5wX9jv+siFLXJVB6DNBOf0vVsPfTKfej47jlVc6CtA3legY0k/wH6PA2rJRUhuSAPOac8k15sVAwZBYU3SMYhWn+aMYY8dP97tFgX0XPoyDuS9gItDCyY+5vUnptiNB0k+7eQBjNnPsRbAvJvYBXROMM6H0uoCBD3Opcp3Yv5ZCX7MK+NaIfnU5UnufLCwxn5tsOPKOe13QKf5pjFAjMg0B7RTyJ94iQGx3sJ5OL2ksPN5JcmfXyW13h2gn3naB/hjDXItGJt8aJsfsnKprx/5E9QDYS/Bwf5a3QXPwHgQc7DtPMDfdKEBxrUTu5yEPt52g8oU1C+0k2gVgDCIDCiDSiRvAv0cX9mfgA35u7/7u2+cotuTL9q9qdTNDeB86gnqgEz8gHHm2Vz48oCq75Mxvj8EzeUiTkA3Ny3iGr4t/lfPzrOhT6E+T/aIh3AFdBF4vJibM7GbSxiz+hkTNctLgnHAd7H+Vyl8uCSHh9y+a2Nb0Hcs7RD48G1dOEf0AfrJswM8iD6AfuUmfsTao0/bfsJ4ibXrn205EvrFLuN5NVw7YhDWQeCbGHqcNnN+dUQ/86Cf+5YnAsgLfO0koegmUXQyFYExSQmSgyf5BDmSW2Tb+WlhT0AebJg8fMlvQYhZ0EcXG+0cF4xpAx9zyQu6vwO66TNtzZ/DRDsFTH7QNzeATurRzpzBxNOAE251M5b0l0hdMemdoO3gZkxxDCE/asqh4OkYf4D95ZdfPv7m0IuS2E8w5QIYT19dW/rangJ9JPPTL/GyH3iqp+x8JYf6E9RZ4Wr+GcDpHmKPpThH2yfSMC7zylokR36IIPTBB7uAArM5MITERaXNIusM0FZMAqCbchfy8DT55N9BHZPGP39C4WFo5Jhtnm7oFMZti5OYTgAnPjtOcvCNIn3RJkegPmMt6jSwYZ5n+ltBLkSbtGM+MfW1XaFtEulfmfQzNtcK0a9fGfhfowB4lCus4tefa6jw8sD4KyEf8XaeygpXeTq/0rHuO45nAB97HaFNDtYwod9djgni9Q7BlicXX4rn64OTwgS3JAUmiCw0gMxggO0cxxnoTZN2V0DXwsBnIlcc6pAcuRADG78LCsipY6SPyIOYv3PCedFcOddgbpeTY+SBWP+EmyaRfds8Ww84Zr5gZ+NY1iHHhGMKcC1B1wmol9wg/bgPck8Abdqu+xmPlxRvcQBOay2/SDuQvAl0mPMAc+l62b4ScLsfOy6loV4+lQT9zF203ishtzmRH+viVzqg81K3kWPmgujDMfej6w7eskbJSRx5+AjGBXUM4JQ+djz90WAKEDBuQCsdwJzBmkQKYytgi3AJ8qU+uo6doOPTf8NY5J74c0xdAe/u4KnrQqWPnDMOkTysibrqMa+OdmmPfvazDegrctHO+ID99EW8K/Rc8tlOSf/CuJhvdIzqemnRds/4Sw5zo21/BfnQwQeHGMm5CVdzxpzCONzGPUkixz2vxNk5pV4ix/SPbes9C3m4Y/wFH3cJvoiP/W+c+qff/plL0FcA+tm2Bqw7eKsEm8C3KA2At7OOc44xbAyWubwsGxlII8emtoHzRBLo6N8+QtwZ7xVS11x2MQN9XcH4vQCRPnzJpT59D5UgJuMDO//qogMfAjhIE9RPO57sA/98hzH5rDv9XBf61g/JWt5F28HlBy8gjqwrvhPGl+NZO7j4cZmDyFr43VFyklvzJuAznvS1ytv51Vz7s81TX9iqRzt9yQEYd05b7YVzXkKTb0A799EzkI+nfo2FmKm3Z8O1MJcJmQdozgR5T3Nv7G4mNzfOKYqFSUMSMAkOqTo7mLxo/ewTbPq28MRlobKYQHsvFT5Z+HI8edHF9hQdI/btz6fjIvvoKOYgl7mZn3xuABbNH++dA4yD5HaDOwcyDtr4EGk7AX3n4GQ9/ORG/PFSneShrT9siWuHjHMCHHDytN2ghh4gfmNLDRkD6uuHp/kpxMie4Ykt/40yf3nAb+2Tq5GxZHtC+53AODkm1NWOGFkLhDM46WsjiF//rAu1op1gPPcISB59X63nDvIZo30vQCTPeMak7gnMVdinDkjyvmWcm0sFL7kGehKaSC9EIxPI9gTmKbSXoUXXp8FnknL6yx43SPpiXLmLjl9ZcaU+UN9NZL14kqP11448XIPOQ70cAznec8TJ2NU6NbJm2puD+6N92efJpiYP13BC209IzknfGN27HCSejAHt2lY7hDnrjRAzHOw58uAp3wqTD3Flm1hxOO6+ce8AY+28aecYzzxHCeb4IMlc5eDp+q/iexbwyW9bP50PsH8H2pgDa8w9AR6VQMFJ+yryXDmlWEjjmSAFtiZOTC62B44xJGFxiIULhL4JJrRvnMaLvb4mwLPj0n/m5IVtfnJQA3RXv3ncxSGMV114XOMJ+laMx3VGiMv1Yb5j0xegjQ26Uw6nSM4JxKOfFIBf2pmDcytQI954/ae96OPDNxXaIP0kiNeYnb/yeRf6UDq+9KsI270X4KFecIi2098KqT9hN5/nQnHfmFP6zjwbHat68JE33H7ggbeLMI14+iNCOqKtAPSyL9J5zyXUS7BR+9MXPQLn0lAYUwC6fpKp7xwwlulApt4rsMsZEAMLwCWXF535sMA8zXXC3ZjxoRjfVZyAWFwTPmT86kEYs0hO2qxDH7gEOs0xgXlin/SIJw8FbQR99zBx8+Mtz2l/IfZ9Ejv/9iFrwBj27DEvG0X9Ccz1/CpX9OQ8hVzEpOgvuagDgj51Yf95jgRtcuYDQF0k4zefHEvs5k5AbMSA2OYJkpf2qlYdQ8dDbnCm3ttFmM5o+0nomAYWBsmA6WdQ6t+BvCu4MCD1tGODE4txT0iOE5zG1AK0RayNcyugxz85jx6blXzaJn1woNn8eTntQCzarngVQZs4jAUhzlVdzPlqPeAg9vZ3B5m3debpZteHManDpcZ/aeLFxjgx+JSPtv++IW0vQ+amtRH6QSex0kcXYIcAdG2L7CcX+apPPtZBEbYn7oR7Cj0FYOOea26wqwnYzTXgJq/MDRiPazwB3cmXtgg61v3t5rJwKHAAJdHItk8DmPQS0xgwKWFQFNm51kkkr20Onm9Zp353UFeuO7YJ7FfxTKAGrEGuQyNjMq5sJxzbxTHZCWxYb8TNt+IBznlJTbrGesWlXkoCe95s/AUOwvr7IYJ+X4SK9hlDx4IeY3ByGfLB71sl+5W5Kf4ctz3pidbJGBPMr8bNg/m8CGlTA6EO68MvglwnwBziL5vkQAA8vlEjcKevVwAeuWmz56i7FyKi3gTme03tOwY/uViXx0VooSBmU/npRx/RWMcSOi6u+olJV8HPneKiy6JRKOKnaImO+xR39Rtpf8Vjruh5kMlnBXSt0QrMu+A7PbCLzzy8NEButBV36q9wNa/vlAR9OKiVB8YPEcazTrYRbbHZxaA/95Z/ZsN+40KUK6GvjpWxFdT1OfGK5gXkgDCnfwUu9kH7n3gA4+THhUc7OYF8XlaIc6l3B9op+HRtWFPE/JQdVvOO4yPjflSbhBEG2UDTGxV9E9f4vYBHLp74MGHH9JfS4KDzCcYmpXiJtFkVp4F+LzCY7J1PP6fQJu3w4ZuHcD71U0S3EWrDuj0DOZI3saon+syxlyYd6+o6vwLGCKeib/YEbfvmlGNCnoT68HA2/LMs34wmaCPs59gO1Ah0fCugZ87ph75zgjnH2Ge0V5DHp7Wln+cjnz13hbYFxES9vQzNQ3R/h+ZtAY9q++kGLJiGQrKTBCfbfIJswykv/n0jci4v4LQD9NXBri9CN6oJTxwJ5rChHshOV8ipnAA9cwK5KB5ckW2hvuuVXCL7p3EJ9LXhCb/Sb5jGgqgL3MCNvJyn+QnGo4ipn6CWvMHxNsee8uCjl/E1D1CPZ8aJHb9EYY5cGuiucrc2O0yxrKAuol+FXMnZ3BlrTDECPoyxIV64tdVH+lXcH4hn9g4yftpwCvqrWE8BX/rQD3hEStAo+WmXAQAJKGwf0gnMt05zAvWYY0Nx8fCkgIzjLzcuIPgEsSPEPqHj0OcKzJEjQhxT3BMsLDjZAPpxMfAz+bPPs+ewtUYIfXmSyznQHI30k/yuu/OTmPeuvkDOK70d8AfgSFkBf1wI7BMuRvY57cnGsWk9BDrYwzsBOy/7jtVaTdyMOZ7zk26D9fLH97z4sHVPAPPjuTrP1AjwkgRP2srLM/eFZ9G8GxlH5qN/xhzn2R+4YNen3fPuNWJF8GUOnj/wyI7AGFwVRXQh76Bt7BO4xTORLFYGPfn17WK1qUUXaAX9g2cP67M2StYh43ZeqJe2k7jYgL52V2hu16HfLuRMvRVYK3TAaRxCO5DtKxiX4l43zo7Bvj6mGBmjDuyRVQ6M95npJ/PUhKe6xObhhUP+yQ88KwFw8iO8LxnJMfEJ5rDhN+QAPvVpEyN9YwfETE2QrG+i4xM9DneKY9bLMfRpG4fjCeJQ9GFb/V9m8BX4JCERoHJCJ5OjHVK/OUEG337153jPuQBunJwH2t6F3PDu7NHz6YVsTIw5fxf4hEtOx1axpC/1XPirHBrokgO+OUCuT3K6iZTMk/5dXNXJ+VO9BuNKxg26D8wZ5LhwjjoAuRtZJ5BctLFxz6iHaCevwtgdYJO52LYPaOe+TTDu/gPaEkdedsYKhzyOJ+grE3o8OWk7Zjv1aTs+gXliSnsgxyNqFLwIJyVhv8lAjvVzhyyewE/6WoFPLEDs5DAhFwQuFvYqLv1PiymSg/jh9eJCXLz2NY2BHvMTvDHZip4jfjZrY1Vb+gjx499fonVOzwA77FfrpG8lxyak7k4P7OYSWZe0mfZAjk3+mXf/TP7TBh0F9H7iydhduGYZS66h/vSTaBvHRL79gYw3c7sLbfFlWwE9LtxXPS6wy/gBNp6PR4Yk5UCTSKBROhSTTY51ABPUmZJooIO+/xeY02EHcvpkka4WCl34WGDtJjQ3yA3s5tVX+pt4GXMcXS4g4EYTadu8U3/CahxuYlbQ4zsifjzyF2rkdxfwwEdNdr5T0OuxlSS6D1a6E/QLrMMK6nomGsynJOhj55sVfXxRXz+AqJcfSFm7iW+C8au7yp84eo6+9wIxmCfPFGDsGZdzz0Ien0D+9KWI1TjImGiTGzmCxyr7n9OZHI52QMfFP9HdgUD8I1hikHeVjH2eXmrGnbq0MzYvKMaVHa7iBvpEaJOLm4cxNrB/j2Us8jK/qh1z0+YUjqOz2pzAdo+DaQxQJ+JijjhcE/PhUNC+C/g49K4vmPyL3VzjSvcOl7lhQ6zk35DP2gNqlnWhT634EJnW2TpQb/TYm+5n5thHPhH8NM/JOiSHly7AVl957gT+XC/2cPrqnOkbn2I+jZOYgT7gQawlYr30bez4df+uYKwAe3jAw8KiCxQUyWlPkLSRDndQD//E4aJkculbThaHC9TfbqHjHDZI+ocPbsYyL54rrHJOwIfAbxs7Jf3I55zoPiAvfuRfAT93oZ+drbGiY71E22XczE285p/5qZe2gD66HqKu2w7NKXJcWYE5/fG03Tb2c26qFWNeJs7xRLCzzXxyOYZ98hLPHehX7uT3yRh6SIK+F6iXBcBG+wnw8YGJsH4n6NgUcgfuCXSop1/jmZ+wLdcE80QHzg8uwiQD2TfI3YZEX7kDuUXyIC4QbXUVxv0zAfUbOUY7NxYcq40uJs4JxomAPETCPATt7gPsWBxjvYMpXvNb5bgCXOYDaHdM6W/lgzH0ptjEys4DQE0+FYy11ysxjfcYfetlHTNP9Xky71yPK45PHCtoJ5ftU2AD+o1QyIUe5xAB6CJ9BsDkf4qLPrWTV/FyzpoI9BnD78QJHEfgMMe3HWbATWCfeTZmJ0a/x06h3coevx48Y/KisCgmIuBCt8cds1gKaP/0VzFNsKBy6lsOxswjof+Mg/ymOr8HGYe+VnDzWVsvIezoM57I2CdkXYS6PNtOPzydT53JBkxjEzKOCfjOmJUG/nJu8j/N82zd5M857ZMHdD/R9rt8UncXV48nmIPfi0p/yLTn7yB5eQvkuQP6nJ2rr2+Mjb0s59sboUkD2hwADwFGyHRA25b5XRCJtrsC+uiR6IT0ndwg5ygERZgu0vcAn14kCG2LDvS/AvPUHP2OH2QOdzBxrcCG4/ta4id2bJXMpbGK2TH3UscvN3COPm2e7dN9KR+YapK8oPsT1IFPHxN3wvl+JhjTt22eretYijEYmzyNtgPouoYJdeBmjrZv3w3OiP+RBZJctBXBWmHjxSW/8gy0JV5iRJrLvt8l7nwRk3FSH/C2m3QmAU+Kk4JhJt3Oun+C9CkmHscInIPaYJ7vJSbbHcjHYgjGMs8V8MXiNLBlExAn3/VRN8d9Tvzy5QIJ5ia7q3y1mfztgD6bha8fyMPvZZxLXHET4xQndo6zvzz01pQa5AWbHLSngwuu4tkBW2uPjxVXxg60mfQdS+7Uo42YO0I9zI8aeHCvkFwNxuDlR93+P5/Xh9Aen+yB6fIBnQf7vvdv6kwcO6gvhzm4V0T2Jx8rO9tvpxhHCrDwJIQxhaCdSaX+M5jsCcwvW9+C/FXwJkJs2jGu3iqenAdp8x7AQUxTgfFlvZD2qW2OAfqrHFoXJPdK5z0wj177xJXPtJ8ENAfjrDN2whp3nnKAbD8DufGL//ST6HH603pOUMf8EfOk7dnz/Kmzgzrq+cQXZ5c3JX/b6n7lmUgfyec60IZvl6M2jbTb2SeIkbc77gLf9Pg3JPn/kemXHuMDUwz0UwduRDxaU2AapnwMTEE31CFOgk/9bPcFCVxwE98tAnPKFeR18yPp64QjdWyTQ0JeNjCLr79Gc006J9AWse5Z4wkn85OOPoA6KRNy3D0JT67FK5AxUHfWQNz1gb6yQl5+XjzIqg6nwCd1IQf2EOL+TMl8E4wRx3S2BP3e++o45/gp5EC8vGkTS35ACNs8czzR4/Q9b2+rm0FmEI5biBw7Qepq2xwdfG8C5xHGRfLw1EZxPMXFEow9i7Sl7YLnwisJdUXq8KMFSBt03cS9kYX5Audy/g5O7E/5u94ibad8Ju5cV+BeyPrgz0OTmPiAfnf6GV/rJTI2oY1x5VgCWy/BiQfsfF8h1yDrOK1NAr08i6JzoO1aO67OtB6noCbGS5uvafjO0vGGuldAh7y+dhGmsWS5wU7JFUHbIiSfBVME7SxmgqCzABRYrvSZwMbvLQC6Lkz7vkLqUkR4+e5MHnNH8NEbQD1jyJiTQziGkAeC3xxH0m9KcyBXwM6Nf6J/peObSMMYsWfet13F+EX60Va4X3jCw3dgtBPNN6Fzsc8aW5OJx7HVPCAnYnsW5tcxXoF4iN396llQVpw5BsfOr3nrq6Ft6p0AvY55tw6A8SkG0Xb2P9gtBExh3EQePAVMQWCnrMBG8BJ04/MzP5uWuSwWCePbeBr6wg6gi136x855gZ6FFVm0jOEE6GGfiwSM2brJZxshFuPOmgPGMhfa6Sd9MWdNk4NxRZ8AHcaugL4+EtrKd8WVvkHq00bc6MC9kXbosJZZJ2qXoJ91aUx5d3+CcWQODXhWOowxzz5HwCpGgb552iZ/hPrs4s4529bGvY/4W91VzTqXnU9g/gpI//hozgnYKOibt+vH2G4tmb+qL9CH+F8n5ytAoqiYxGnofI6JadyFhQ/QV1hcv8wFk7+GuvIB2/q3YApAJ0Uwn/0Jzhu3kIu4WfRe+OZmzhxZZN9gsDNW9XmyWeUE6V99NwxtgJ2iTo4/i4kP2G90LbS37Th6HlYOqUCXXD0M5p2Qx7rCI6+wnxzapQhzXOV1B3AQP/ucJ0hfE9q38fV4tkHyaoNQF31bJ8dPIG9yOtYgJmpsrDvdFdSHx33BHvEi77jV11fXRTiunnjsCAYMXAUkjRrTmNBe0CZwD3TO48NNgjSSR2Djpyt8DebNxTbShwA4B3LsCvK1LhxutB2MjbcfhLb+E4zL53zrGcOVTzD5uAs4UhwTWZOsBePWTB050GEtlYT6U72B9op7LNF9wd5Dmjv1J5+JFbfQHh+u9Q7MZzzwpySufAtq4jqsuK5APMjKrsczz1N/6qnrevb6rsAckr4b7QO8fbxS+GkztEFiNS4sHDDAFLm9CIU2O9/oUJRdDM6ha36ZI09F3fTpXCL7zrcOuIoNEAtfD6CHPkib/IAwbuNLEdT0ClP8HxNZB/31OiRaFzAGD/3MF1Ajxhzn6d6akLr6MB5FrDgSVzrmAGhzEZ4g42qOuyBG6neyJ+GffGDXsST0wVMf6Svbd+C6Z1xy5ZhAf3cOVnE8Vh0yCB4DtRGyeKfJGBxcbNQMFj6/myBg+i44PxKlr8kfXOjyh8rY009+oX1K5qId4tgJ2lfypCTg73Ha5MFFSN7+OMi4+lyAfrfEAUJfHnRatBeO+UzIo0xYjT8L6u8lpV9zSpiPgk1+p+VGx44auceUK8Dp0zZxwCNXzvlsrMYbxsSTeE9iRCfXO+UEd3RF+mhbcs3xngdZL9ZIYd0bk31DPtcmfTPnfAJ/7JG7eNx6HjKICRpHCM4ZB6vAVwGB3Rx+vAD4P9Dm/13fBFY2gHjYTBwK9XhmfB44njlHm3GecJA3Od5B1gehrx8AX//4Yxuf1hNgox2QE8CTsdHmQuTihEdgT92oh30hV8YiiMPvZVeHM7lWeMYuN6tr0LFOHNj0OHlYK2xZixWwbXtjUfL7J/da5ygH81P+CXTh8xJ37a7siKsFe87LLkcx5XoC421b+vgnDvsTqMlpXU5ALOa/yhtf+kMHufLfeJzK3kwEiWRBTgPXng3uJqLPs4NjHN88KfIViC85EWB/tQCTbzcWT3kSE49wcbLg+DY25kD6ndrY5JstyFhsm5c21Jb/RIpLkZoAdJnnqYhsA3lScr3uoLkBfFywPI17ArZcEK4BNuRlThM6Ly4G1tHxnBfmu4tjZY+NZyM5VlwN9OAkR0SOKU6hfp4/sbObgD/WtWtKDLuaTNj5hov1cx8pXbdngN/0vYpDH61/gsdFSNEnnBJmkuoz5viuCOpTLLDSZZwiI6tLEx14uvBsKKSB72k8MeXPmLYZvwemOZljkySMj/+O0/o7xhMO35hzfZjDB5usL68pVuC8oJ+blCdjSObx//V2JzmSHEcUhhvgmtOaAEHeVGclwT2HCwhfCT9hMnlEZFU39QCDh7ubPRt8yMiqHjx/BOXbel1x7Rp6LtcZG9k5BPrJrns59XwHMez6FR+IpcP9HogdivEpDiiWUzzvBX9ir62enhsvpvifYjzNG3tlL/7TuPL/lNPb7uxTeW7KjSeijRZ+FndKoANtmD0fzDtUFk+8d4nGkdCduXUJNHfCiX9unrD1Zj89Nt7eNujOr2KQH2Mu/HkZbu50ZzyNz7GNaXeyN9ZhucITvxr7Kt+b6zwkV5CvvzkgV7rEmuOYb5gb6qJes44h/b1OJ5zWLk71aM8A3eQKdKuhnO6+gYRq3x6tNX6V/xPyF0c8Sdj9E650jOHlS82qTb5rP4Ltr/5pPJn+tt4Jb6tE8ZVFeg/2ws8gk5Au0N0x0LUhjLs4JtKNr75FaRNNf8YdLjgdnCuwZzc3ZuNEDi6sLmnSHP18AtviCumyMz/7XRCkDy3j4jenTf9VtDbVYNoXPzmBnhirwUax9VXX/y3jUjytxxWKjz4OoobT7sQxx4pjtuHJv/li1RL2YjLmefKdMP1qrZ01vAM/PjiSflmmluo39wZ5woyxOFr3q/jvuE9zd/oz3i+BuOJ74t3z03biq59//vlfv/3221txPhccWKyTo4peIGQvhE1ggTZw+lcnzPkqeQKueTD1T/y4OmR7fqM8tB3i6mSMP2OkfOKsb65LUN94m9rPB9Ovpe/Qa43tevAv/i7ANnTcG/E2V1x4ehvNvvmps2HOWkC2G8ZwWyt/L9QHhHz9qyEE2OKSp+eJYgB59k+BiUfNE5zb9nOQTxAXfn6sn7bav4K4qtHkvouZT1INSPm2J041v8LkKZbG4cTZ3AnNXcXAx7Sn9yXXCHYOE8bInU4wJ/8ff/zxP2+EBX9n9AS2LdZsJwSXnIpz8l+wLg2Hge1VnHuhSfrZnBb+Cum0EQFPfYLPxoWpnz+Xnk90oNubzSkGNriai594huY6lDPnjTkeH/7ezviLZ0vrUx4Bh4tQTGHqeCb84YjfZfbnn39++v3339/mcHz33Xefvv322zeu7OIq9njKs2eYMZywOZ+QT7Uh1Z+9HORCJ707bJ3sZi5hx3eKu+et+4Tpt+f6RF76cPK7ke4EfbXKbuvc8X0OTrFsvKIDb6eL8qsGV+iQdWinTORr+kvPwmwYd3nMT+OrWCd30jhYkLnwr4J+G0c8ePbiT+TbvHp0qFyAXYLekjbSn/5C/qov5OeE0ziODnmx4IP8TblCfrcPcZFqUotL3X2Q+UDrRwitha/OfUCIJ7mrLWk/9PWxumS34zuBTTU5IU77j4RTbE8QT5fpCe/lPOmfxlrP7Vd/ju/2PWAT3/T3Ea4ryI20x8gr/Fc6c/xtlRFfBZ3DV5Du3JAd3Mmz/TSneBPG2HZYrxLaoDcXIl7PDuArPMUK7B26Du60L+586DffwdYvF8AjDph+6MU1Jb5qcXdJzDbQ3YKrC/GKDyYXG/rzN90T5vFMmxOv3H1l9mdHteVE8PczxeI6cahLa9lFln8cnsH8rscEfbrpA275Vf8uwXimzSm2iTnPHh8Yv7LNzynuu1xgz+snTxDPe/RD+tWpupH3cl2helX3uV4bJ39PMbyxPS1oQdxBAfqUh2ljQ9uo2p0AHUG2QSbicFjwN/Yq5iLgj+MK+UugouOZOU6uLkjQZuswO5TZab0NVaMN896YOuAzFn1SPI2/B+m3QcFYl9CJb45ZQ19pxThzKNZqPPnBXBI80/GW6OvyX3/99VYbcfDRf97fz1O3/YR4SGvS2yH92iuIVS5qDsWlP99gZ71agy7fCfNT2veeYdblBPOJ2JI5NnU+FzPW8MR7mjd2ta8/FzM2UPOd/1PME6ec335Z8ssvv/ydxFSYiq84otPG8izgLj8bog1NB8wB3c1Pj77fnHkDyWbGBPptRs97Hhrfm3bC/Iyh57mRiwHMd+hJ3MbpsnGYu9y0DrVcHCw6G43hINNftSxOfOlrkwl9dvQBX5fFrIXx7NPNtmdwqbuk/E2gGZt5l09xN+Y5Wzj1J/RdQD741Ent/RyRT5eSeKZ9YDe52n9+MfP111+/2eFlm/1VHMbrp6M/7bqgrYe5agqT1/M333zzt17SXJjP5sVP8KpzUv/E8RGw7+15xvb/xlMezWt73vtvc+jPfOb8fLY2f/+yJIM2mv5Ufk+B6JIWrk3Coec2KbSom5/vLiCXSPMzJtAv3onG02/+5CvcjeMRi8PeZR5XC7I3qJ95gXwdwrmpty/cHa4un3Tywb7nOKbOxCn3+mzFQ8Smby6/E5NX3nR8nWWzUUyAz3Nt4+2vYjmBblw+MP7444+3N0ZjPliK4xRvyN7eEa9crZ0LVY2hmDaMz3roT13P+MRmTVq7K7ho+PaBPtd3YvOLn3Re2kOt19SfuKsriLVzJQ5tz+GJ4wn45Tz9PHFe5bNBL3nC9vlk81YBRifDV52ewM5CJi2sFk4+g+LZNApq8XGlu+Opf8UFd3NPEG8bECyuuPokDTsOrbcY0ua1mdObeUxOsjcn0J+13DlNvo34tcAeT4fMM/srDuPsbe75wRT059qGqTfX9OpwGJvjOL0Z9o2gr6jiIHegp97qr8VF+PYh5U3RBVVNQv5POSZiUbcup627IVa+5gcpXNk1L9b2QqJf/p7T3e0JxQ9T7yn+VxHn5jN+iusu1jBti/8uXnP01eqK/8TzPxfhnROY5NnNsY25aTpw4cquQweneLKbyZy4rnLZuk/xE7HLg674OtDbh3kblK5DyM4YcZBxBWNt7hbOM27tHCfFMTnAHFzl28GprnjpxlduWuPxgX5xeKazUWzT/+Qox3zr32HyBPwuxPzHX31Aqz/5cbG1//oRhTp0KRVbEhe74jC2Y9KvbgSyhfRbK758EMy3x6kfir96ZdOHyJQd72yNb36xJFCd0j3ZvAp2+PjPh+fP4YR4X+GZuavPe/y+VaKgJ3KcbBhrYz8Bd5dAfMY6eKE5XyPAxg/0iPkWMMRVwRo7oflXkb9pt30Ul1Y9vHF4JmzbtA5MNsH43NDgWW3Zackp5ylh8+NiS/D0ZjJ9Wpd9wUDP1sOzi/2K3/i0nf108qM9gU38k2uCrb1E6MhJmw8Xxq5nwO1C9HXZ120XI70uGlwzhvDUh+mv+cbiFN8+oJ53vz2RtAeIPh4y7eAU1wR9OvmwDyZXcW7eV8GOTM5434timG28k3/DmNys55XOCf99uhYqzFUic1Nz+OQ0nTs9SZifn7RgTGI2w9VtXzw73tk/5dJYPia3uXLMN+SLLomDvYsjG5vNxWgctn85OtRdRPTSBfXg8yrnO9BnL+5sGxNjP7eq5smG+HHM9Zgop51biFdNrtZoY+vEYWyKiw3Upz+PyMe0nTCOWy70elMknvOzoUZk7w84+aJDv+eTTRKy6cIj2aU3ueRBTjhx4xW/1rrD1It7+ghPfTDW/p0cO5b3wBq1Vkl9mD5Af9fuFbyduLm42vm8MRMqwTnGZhZjY/JPZGcj97O1xtM3L8GPYBZqozHcDlRvB4HtPjx7ISBbumLVx8P+9DZVH6+D6A24Azl1+di2pzyucOW3GLsMwdwU8YtdXPvQiWHH1nPj2qu98CqynX6CMVIN/cZZv8MuvztkT+TX84a5OU/ElWwbOYth5k2nfbORnpbtrNnm1t9r8QpwOl8+AD3j6MLIh+f8PmHqbTvPnaddB9DfeU3czYWTDl659fwqbt8Ir8BBiRRMbc7n3Ctgp2AK14WzE5l+e34VT7rm+Sd7IwKfYvL2Jr5ymzlmb94m6Ctl+WyY6wIyT4+4CLVzs3cI4SmXGVsx44wve21yyge80bIlG/Fsm4n4gd6dLqQ78WTXfLWb+h3GE+8JV34m585bv/0y2756pq/+1oJdYxPGsiUnFEfyKuh2poqjfaFuT1xX8+URf9J+zW7n++RvQi2s45ZZo/ibA2Pb7xU+dBHeLdSEIKZehZlFoOPy8OlNugBmAT3PpLSSbYyPOb/R+PY9UQEnx4lTfBY6njhnTWwuz/Iy19vtBF46fWLmm7788zPlVRQ3fnxdZDN2AvmbNYc4CBvzE8Y30p+QV3FM/hPonXjfg3yIub0Ur1iq90dQbLXVDmbcnsnMh66Yuqhh2kxkH+qTfGrJ1HuCesx9oLU3jZVHnCfeOV4OQR/nltZg6t/FfPLd2VTPZJ6Zieb53THe4fE2OwV9ChY4lnRzAtrBmq/oYN4npz/86rXdH9aVRCiZuLXxJiV/ikufTTzgeep5VtjG0s/GOOEDjBdLNi5xzzZW8dPpUxfSDcXfh4DnCRuJLY5ZsxnbCfw48DjbMPTx+PqoxV0ePW/I19f106aqFjOuiXKtvYs30I13YtftBPxJqP59EKmHnyOSjyD+nXM13C2/9bPVh/o9TzR3JfHXfxXqaD9pe1tlr1+N9Y3PsWC8Objzb1yM9k6xhiubsOf1ibyrZWhuxstf55D+K3j7myW//vrrrUFOiEOlncFsNDeDPOkb72cWngVv425kTyRZrMYtjJgc+Flwc9n1TJqbep4r8JT8TB8Tk8fh0rfRjNloFqJLZwNfmzHfMDkn6L0Kcfbm00WIF3BXQ22bZfsVm38Z5vSzwY24ayfYxg98zFzFp535zflX8OqeLF8C76npRyGu4uO3S3lj5traVPdqpj/b5BXg97IhZzb44zrhxJvtqz7fi7s1FOfMf/ah1pg6V79Z1xOsjb9Z8tVPP/30L0b+BD8gnMFEpCUMv8QGwuWwuQgdWsH3V7fyT6fia4tFP710tG3wV0A/kVN8bZDGcdfSMZ99rTeNLjX93sZOv/gI8cZDZ+bjgoiP35D+HfbbJRtirHGc5QzmZ5zF5+Ce4t/6T6Cbv+zwz4swnWD+yY/5id3fmD5mLKH6fAngtl9werYXSChvMlGMCY4ONzF2iv0OfPXhmE/P9m18dNKDzd/8PwG8V/m8J8+t+7SHfvjhh0/ff//9p38DUyk0sASwz4kAAAAASUVORK5CYII=;" vertex="1" parent="1">
          <mxGeometry x="92" y="160" width="205.75" height="200" as="geometry" />
        </mxCell>
        <mxCell id="wUmB1A0e3Jy-pXlnWGp4-2" value="" style="shape=image;verticalLabelPosition=bottom;labelBackgroundColor=default;verticalAlign=top;aspect=fixed;imageAspect=0;image=data:image/png,iVBORw0KGgoAAAANSUhEUgAAAUIAAAE5CAYAAADlSCmeAAAAAXNSR0IArs4c6QAAIABJREFUeF7snYuyZUtRtcELysELghfg4Fv5BPh6vpWcAxqhhobgXf7IJkb79eiRlVlz7T4Q/nZEx957zppVeRk5Muuy5vr6X/7lX/7iL/7iL772f//+zwL/Z4H/s8D/jxb4q7/6q699vYjwyy+//Np//dd/fWSD3/iN3/jg2te//vWv/fd///fXfvGLX/yvsVfpVP/rX/0s3fT/f42S/6fI/1ng/1MLkMNSfP/mb/7m137wgx/8kgj/+q//+iOCq4d++7d/+z051N/VaZHEf/7nf777LwKRjeueBtM1Eo3IRs9VeydW7/PkPxFyyVUK1T8n6UTcklPylJ7VR41dCaF0Y2KgvEke6ix93ehul1tckqz57ETaGnfSofoUaG4SnfTVs2Xvm2T5ql1u7fikvWM44cyv6ZnJltN9l5fxoWe3MXM71hNbedxPuLuRadPW8fRbv/Vb77hB8V3Y/Pd///d3GK1/de/P//zPPyRCd2YRRDV0sBdR/Md//Md7skiOoJMUJA4oBc2NwZMxql8pS1JORCsdSSz17De+8Y33JC79ZCxWix0Rqo3uK2k4UW2c2Y1B+0l+kU7X78k3HIeJjjbsfKP26p9EWEmEtjv14aR+g4Wvqm0iws5GxP2G5Om3qX3ny7cmQuo7JdqTb72fru02JqZ2niSE0SLD+i/7/uu//ut77mqJ0IODnZDdC+xkVt6jQ0mizJJvRYLMQCLtunYiiJRJiwhlrHpWRH8CgvSUXvpZz/N3d+Dk0A4wRTbKbJzCTzI6+Z+SyaaaU+LxACzZ6vnCRlpq8WThcnki/qqIbhrnKRFO/bq+vy5E6Etim6Tmup5sluyyiYmpDTmIxUvxQhV1Fd/Vx7/927+9w2f9/gERfvHFF++mg8xyzPTqhAqILOo5TTXpSM90HsQS5KScM/wp+1Q/iSTUB43UEcHv/M7vvDOWiFRLAIlokmwOoFQVdmNvqjDacDMFTcCoawnYyp6nCpa21FKEAMckp+WFRHwncpiAviGWT9HGMeS+ctx7gpgCP2GJSZaJW7F2o6f6urEvsfyECImLjaw3snlbt3fqq/Ba8V3/qoCLRPjTn/703U12QIOXUaqTBHZ1yKDzAJRRRAzKhBojKZaqto2xklEU5KpYWPUQxKwK67p0EyHSocx4AoquUQb1rwopZf0t4TvR31RQBHZH7EkOT2iygUg5Ab7soQS5JUMfZ+PrTYC9RZsumfJ6krcjrVd12xBtisEbvNCvCS9buzJO3iIJdlzhPnLyFgcUj9VsT4VfEeQPf/jDX64R/s3f/M37DQJN67w6JBly+iMj0emJ4CbnTZXSrRMZgDKC+khEKIdV9Vv/qX8ZrhKFE6HGIBHWtUQ6Hfi3JOiE0hFUGidNdSZC9qqH49cYIkLflat2wsepkjjh4VWi2Abptl2S9Ull9lZ6TbEkvZKPb+PoBp+dPV1eyZWKlo1PUtJUkaBiSzMmH0MzPq1jfzA1ropQD6oKcoGqw+qkSKIE0ToQiXBriE2199RITlYdaDzLyTmlY1WGDHARYUfW7hiR6sY2TjAbIBDobN8FGivxTSB04HdbThtUU+CffHNjh6+i7ZZ8OlkmW9zosJXlRGI38rxKhqxO2ddtjHfxp0LH5Uzr3WorvvuACH/yk5+831wgk5Kw9HuVlgosseq0wO4ZwInwU1SDIhiu0+layeMyS8ZqLzIUOKuM5sZQShKJDEWEG4d32fuUXAiwEyF2Fc2mb9855zOqCqW79L1dU6LunU43RPEp2m7J5zT2Dfmc+rmRpSOxW1le8YtjW4WC6+gyserekiC5xdfRGeMqCArD74/PFBFqTceD18lQu8hab6tqaSLCrlRPTroN2gkwqT8nQjlGumsZQOW2NoZK10SCsoU7S2N7/09AmIjWSV6ypWrXK+WJrJg5PXE5cREzt7p9CtL6VfV5Q1CbSv6UqG50fCsyvBlzistNXycsKaY0c2NbEmhX8KgoKj77/PPPf7lG+OMf//j9xoAaJCEUeNqOrrY6fJwWJzdB4eARqTCoE/mI0T3AU5ZhBlIQe/AmOX73d3/3/aHxqn5r2z3pWVPpsoMbnRsKes5JagOIVDHVcwIBZZcMAgNBIZudqk/dS0TYJTRhJvlk0i9VCxvcTP3+Ku/fEuKNvrd9n3z2xF+v+HqK1RS7yY/CpuKamE9jpEpTetRS30efLCH5eBXD0rgC0MlQRNAp2zmbVVNX/nbHPbr2JzK8AZ3WREU4miKTzLzM9x3kROg3MpySAAEhmRLR0ncMDF1P5M5nXpH3V0lIv8qxbwjrqX1vxqDfT0XGJItXYFN7EU43W+p8dOKLDvdM9EzoHq9MAB/sGtdH7KriISk5EXqwaC2tGFVTx7TRkoJwkxlIMKympgyXwMGpnSokOvRkdJ2hlGFrrZBHQxxgHOs2454qtW4cbuokQuuSAgG6AekE+I3sT4mpI/Jb+z4d/8lzE0lN9tyOOY3TJVJeT7JMREQyfaoLMeN6eBwJr/qZEjX7YN8dEdb195slP/pRTY3/hwhFQFofq8ZadExG1fnCIkGtFzrRpSARIXl20vhifU43T8y+ISTvu/7WUY+kmwylddFqU+11Mr0D2S0w6MBXn2UyO2X+zT2CbyKd5ONTUnKMJDJmMDiwpwS7JZK3bLclpVsfn2Tcjum+PBGhbL0hwzQD2djU/ddhhQVRIjrHiOsl+ZxvhOdfVoR//rWvkwi1plU3aYT6vTtWwyM1/CSGE1MiPDeYhNVH5UiCcg6nngzOU2CQHLhup/H9s7FeQVZVWOuAkuvnP/95rAo3VWYizwl4HbASeFIi63w3keGJoBPxdXKeqtZN0HRJ7ubZr6LtiZTSrOQtCFF+eEqIlMH7mEjulWTU4ccxp4KoG0ucQcIUL3Rrh8TCR0RYD/m5MFVA066wPpFR7eoDzcnBpwxAkKQ1CBrnZr0wZUG+iYJy+nRXBq6fJRMPWmt63MniTvYyn84jGd0GBoOAgCHxK4lNu8Td2N3OtFd0XcUogEqm0y7eV0FWn2qMjohufXor3xMiPCWWlPw+tQ4JS4pdzkw7jKktOeZ0Hpr6RCJUMImM/BzOKVj0yq6aNt4QoZNEcgSJhSXuqXT3ful8vpxhS/b6rGLJomUAfj6b/Z+qJernBH8LOI7Dat6DSdP/qf90vzuekMCbSM9B6lk6ZXrqdbLlLWn8urR/pZJKM4o07dvomipAJ0n9PSXS2/FOseuxymLByZBJP8UybZ30jVNjB7JKYxpawGTFVAJwOttVSq5QMh5LXBorlfBTYCfQ1DUeBKaOMnLK7nVNywDVLr2qi313b19RhtNY0kFybACVMrqSmD5C5IBJGzw+VkeEft3/lr1kV4LP226IMAXjra9v7PhVt31LIuyIa9JpW8EqHtOG5TRGF38nHvBCweOFz5IrEgnWtS6WFW+RCP1BJx8FW113w0ioErwrSzdraKcsRcM+qRQ8e5AsEtlzvLpf8msZoP4ucqkKmP9EBm4DJws5wpPGTcB7tqu/vdqVbBMRMsF1dvagcLykpRUnek88J1L4FIRxG7yb9rdyPsHuJEdHbN1zt0Tofjv1u6n2OjJ0ucQ5vO6zPcbSpjpmXxWvn3/+ww83S07KSSAqkI5rVEXCT6k4Sejvtyq1N8RB4DkIPQMp2EX2ngz08bv6WWT3s5/9rP3qAh9L2Y1LD6limkB/8pPOeJLku11/Jzw9cwJy6eQbVnqO66+eRHyZJVULqdJ0+2/8/dR+T597QmyJPFOwTzJp7KdE6MTRVfuM+5MPuqSwId7URgWIYifZ2rHlBUKqDBXnFcd/9mffuyNCGYOVnaY6Tihi6QT4LhtQ4GTsDijJON01EgTHk2G4ONudF6xPnIgI9WmTDkAeyDWmqkZuHGhToptSb4mj2uldgdMmVwqyiWi6wCNgaUPuyE99T0H/v+F+F+x+XQQ12eyWACcbnuJmSpSnBO2JUbHn1V1qp5g5re13fCH7JHKsfiuOv/e97/8PEaajKiKHFITqOAWujDmVyMxGNMhUkZDMOsBsiFD6paqwxmCmoSH5hhpNj58QoapO12cD1lMySRscHRB9rMn2rAiTnCRBJcMpmCd9b+8/qdBux3jS/oa0tjY7Jaab8SZ9aNMb2ZIvNrHScY4n+SQLr3GNkX3KNquKkESRKhsHespqt1li4xCSUkcIm8yWFmKls/T1ileVD4/T1LnCNNXnFDiRrcbw6pky3FTGssUpAJIfuyzswEl2T4C9JfbJ5/9b7ju2OkKg/d5C9w0hpsqsi/mNTF5Esa+n/bJPxczEOZp9JZ6oZ4tYP6gIvbLzwK2OPBAY/Lw3ZWQHxI3jnZxJJh64E9A6ondiSNUq1wqLCNMGUXf0xO3ozuT9jgi7DL0B/QTkU8ZPwHPfy58dDthHV9FPMt7enwLmtr8n7SciVIxtK66tDBtMTAmyKzhOhY6I5umB/tS3Y2ryq2/gecFS97///R/0a4QcMJHPqbw9VQ7sK61hnYJHQUNSVtCdKqdEZKye0qHhDoySr34WGerV3+njhUnOroKSzZwEp4qwA2LK8NvAOVWIJZ/s9WTDS/7XGNVHlxg8OF8hiEQGr/T3xJaOh5Odn/bvZHpLgoyLV+XT2Vt+yMKT4Cs+mEiw5NcXsiW81bXC8gdEmKaAiQx9Gtc5LJEL25JQvILoKiSS3olsb0DEwN7oxnHl6DpSU7vH6X2Fmn5357C6c4XbDDwF+CYQEjlrSsETACTrk62IG8eBiFDVMmciUyW6CZopCb8a3DfYOrV1QnirfkmEiSgmPJwqw439PcZP/rjtL+G0+j8lZOJNbYnjIso//dM/+7ginIDklcZUsWwqKwYOSZG/q8003b0F1C0gHUhFht/85jffvcG6iNCn6vqMsj5xk+T385WsfGWDSa9OjwR82tvHUiCJoH3nXMCinu4/D4Yku+RKFWHX/iZwpoDf2nWy+9P7nXw3Ok5jb4iQ/tfvp9neNGbnuwnj28QvfDqGT3L5kTLpWdeLCP/kT/50f3zGCWoj+KZqO1U0VDb1paAkSb4lkDrjUpb6XYes06dNytBlcB0jSfJpJ8yrLJLFBoBuo4kMuuxPshNRMQGyyt1OjxNRp0BNJPrEp5PuG/xubP5KmxP2X+n3Uzx7Snab8fgF6+nInRcQp9gjzjfYSGcQq4+XiFDMLmKcpjMT4DaA7apOKaMx0qc5NobaOLIjdZHGZ5991r6iSxmp+y5n2pSVCglemXBjb6/aO/2cCPlcAr4yad0rYBeg0+etT/akv0m4XRJ4Wrk58U44eyucbLCUyH6Kk9t+37r9q0SoGFA/TKBOghPGq6/TGdlT0aQ40tJPFSFvVhGejORgdwdxjayrLlKprn7VX/0t47w1qDmWB6zG1xS4yM6/+rN0rOM2mjon+RIZdkR1A/JUiU3Pu22lM/2sV7UleyQ8SA7+1DhdgkhyEuQT7iY9ef+tMXMz9q+qMrwltydYoh0KM9y8oN9TRXjjE7dhKiLIFdpNLnn++I//JK8RdhWYVxqqEBJRbYNYVZ2I7FQBVJ9icgVgkunGgDfVC2WT7romsquf//Iv//JBtwx+yuY2YpBv7TcF3JSIuucn0MsP9fxUFbJtCr7StTvQ75XSJBfBPtnG778Vbm7H/VUR4Rb7xP3W/l0Sq+f1veEsXNJascfYCavalJOsp1iqe0WEIubvfvePd2uELsCmQnLAn7KPAqV+nl4OIMOwGvGs/iqY6eiUZWq87tgPX1LrmyOdzWgXOu82mDag7sBxqry6xFR9Kbt7BVzPUC9W/SQ2ycM1VH/2qR0SubCvG1s8lWHz3EnOp1hOsXZ7zeXyxHwqWCYslr9rBsUE6KcqXPfOFiqktvIoDjVVLy75gAhvP5fqu0ACsK57f6dMQuGm4xQklLcmQenAn8mp3fRYDtZxmmQD2WG7ybAJpqmNxtyOnRKA6ywA1k99FNGJhtV6F4iy9S3+tjpPQdn5cur/re5/CiJ8K9km223Jx/spnStGyBWsDt0nJxIUH3QzLY9pJWUS4R/90XfyZ403hpQALGnVeT3vb6DpKqIUPJuXBtxs2mz0cTkSQDdBU1VSHafRx+7ciSmBdPK9VYXoySPpkSpTgUj3nLzruqYYVRV20/lTEtQYT6ufyXZdIvtU4z7BWvfMW9vkVrZPSYRcSlIiTRXiJMOpck0xLSLk1PgP//Dbz4mQg5BlJZgWQhU8N1WJ1hB8F/ityvOUobxvJ6wtKLk7lr7itMb2vr1a2jr3Bth6c4dI0I/FqK9UDeqeE6HAXJ+u+ed//uf4nc9c55kqiLciflYBkn3rP7fD7XM3Pkly8vmbsT2Rye6syv3aRDI+/pTQbnUvTFasF45UEdZP/w6hrl/xjuRkgk845ixGRFg/v/3tP3qdCNW573qW8Gk3ME2REjExKG4AsXVGIhvJxnL7CRjKFjpkrY0E9qMdq8nhT4GXqlm+wohT2WTbjgzT9LjaVhWsT9Uw8CbiY8Wptm/p66fESv3r90+5jJF89ZQMpwR/UwWnOH2Kxy4mNaMo/BQ+Kx543raze+Iax09HhIptbZQUEf/BH/zh2xChvyeMmcfXj1gZsl0XkARiVymRuDYVQHKoB40DgXJPQVtt9XaaIgh+4uQ2+DeJY0P+2pBSf9MH4bsKMU31OT3ekoZ85kG/JcKnJHdKuiU7q/W3IqTJPycy3NqDYzChnyrCjuxO1eQmuU36uqz6qGpd51flpiJkShxTlav4Y0X4ne989zUiFJhTiSojp1PkzEx0Rqd4BwY6Wdvn3vZU8fDeFFidA1IFJLtUVViEk77QSsR0IiSvTDgFuAFbteXObfVzQ1gKjBQEyur1str6cP10lMYJ1pOSB27Sc/LVjW18meJ/AxHe6P/r0LZsru8Or7VmbZg+Jb2ueGAxU79rGev9geovvvhx+z0jp7KWoGZV5nP2E4mk6sz7TWTGayIVTd08mBLBdlPejnRdBxm7I8K6Xjtj9S+tFZIIU+WRKqapEk3VDkmMMiefdElDfbjOSmilS60TCsS3VUzCTletSMfbMTpClR18LTu1f4sxN/H0VVWin5IEb5NVta9ZlGLYZeuunxLlCSvC3AcvZv3JT778aPq2NZKzbD3nh2OTUh1rd+N2FR+DkVUoyXRrRMrUBWJXHXXtVYl1lZL0EsmpH+7A055bXWQXyssxkt9SdepVqfrgT42lj91tv24gJbwT2ZyS5oTX9GwXrLz+ypiTTClxpVi57acjB2HhVHULf1N8ntq9YjN9bl88wh3lTSIirrsZFPspzP7gB5/fH6juDORZ3UnFQeeV1JTpnTDobPXtLy/YTv86QNJgU4br7KKXLlS15G3q75LZz9DVuKoYRTgOgo1uBCRJp37nVJlnuJzg3M7VZ/qCrrrOpYC3CN6JKDaBIZKWnWm3TbBPuHxLPZO/Tv64GfukayoAJtt4oXEjy6mt8KWkWj52fHZEL1/LjvK1xzGLicdE2Clxyq5Okmla6lmkm7qegCHy2BhORuumgx4AT4hQerMvd0plQE2dPTn4lN/72RBBF1zauRYoqt30mV/poyBxUnlaETqA1f9N9Tvhkn1ug/aE6Y3tt+N4krp9zmPCiW0i8ydEqGe2hHmjk3CvYzWO+y7Bq+I9EaGwRpt/8HWeiT1vhN8AUQ7rSI7AOxFUtUvn4Jxwp8xzAogHgfreVGIO7Hq21j/SoWM/PE69OT3mdRHEjSy0hXTh2cK6v/nuYyYQ9xGr2O2mCUnQiZZT9SkRnfC3IcHk74SPp3JsYqlLWptnp4R+KiAcGz6F3oz/1m3KFpq1TLzgGJKujI9udldjRCKkwbxK24Dg1Mb7cwecgozk4lnoSXY+yeJExkxzSz5yKInQ5dXnLp2I/MhLIkMG6zY7S/d0trALKAdSIhft/pVM6fPHyd+yLafq6ptHrxJRTX4XsXYJOCWH1GcXRG8Z/K+QoMvhM4tTwvdnZftNrJ+Sz+Sbje0UOzyVcoo/x7PPKJJMHxChdo1PwtG4/juNx2BMlZ8M7BXdhpjI/E4KyaGnLLgZbxt8JwLiOGmdqmSsoyelj3/viQJZ66MOAt2vZ32aOulez/iRmgm8ui/CqzFZ+U3E40FGMtWxFfrYz6B2QXsKSOLt1G6D/VObbRKa+tgQxFu06XztPrpJtHx2wtKNDlpnJ7E52RObxNUkR8Xk++8s+fLLL96f3REQ62dXWm6Al7IwA2Wa2qYspgxRP0/rgAyqLoM4EXZA3gB806Zk4qdNvMoQKZ12blmZctqgE/my2Ybk1ZZrhbKp7Ff9pr7kBydgYUen9qsq7DYnEhaEGRL8TTXj+nckqOue6Dx5UPcusUhWYvImyLsEnvq48etWhlSs+LOpCJoIfSKgrXzCFNfLT5gQdjeFkoqB97vGiQjl2M1UkIBK4CFRdM4kOKVE5yQyPg3KjCSA+o5sIotXgm3r8JKnMlu3IaHPXPo6ogMmTZc7HSew1n0RardGzF1tBsTJB6XLt771ra/94z/+Y1upkkActCJ8TxaboE06e3+O0c7/WyL0pLSJmY1vHNvdM1sMnsZMszy2Tz5JJP4WsnRJgIVQIjomV09clJ+Jtn5viZDA2CiWMiuFKqCIAE5ZbZvxZBApq+rSgaNdJ5bUiQi3Ono53lUJp2zeEcj288dpOnubsZVl+TMlH5KV5FaQ01ce+Pqa03pB7akiJyCnDH5TOUkv+T3hc1ORbAhTWNT6lD4r+5QMuzG7607iHkMbMk843sbixo5v1YZEmEiaeO6IkPGvivD91LgOVHNKdgOgDmQeRE6EYujkSN5LxKHqqn52Ly6Q0aRLWl+7JbJEhKmakMxOzDJ8XU+B0hGDkzdt7jJtSH0DTMrCaQkPS4uUfYeYSTAlIepD/zqWOjtOlU1HBk9scyIg+ZPHPepa+XZ6oUanQxpvIsGNPxNOnUwcr9MzN+Nu2m4SVkeGHiOJCJ0o6+/y3QdEqIXpE3A3yiRjJgB6sLjgVDitBzI4Oa0jaBJheEZwnU4ZlIEp+U9V54kIuyqV/SXZJB8JpCPoU+A7yaRg47SZ8lIG+Y1jyXd6K81UHUkWre941enTmgmHG8LbBB0Dp8MFccpdyyJCf9nGJHeX8LbPbdp1tvFZBe0j/6TEtBlzS/rsv5OTcdcRtxO8Y5P3y2ff+973f/nJkto1Pm0+JEU64/C6k1ti7QSwbZWTApJZbAv2lCm8YqUulDmtoU3gcILR+AqqzhdcCBYg1DYRWWd/jed2Tn3UjjY/CK8+aXsufajvIsFaJ+y++J5YIPl7ALJdWgJxv5ySX0osN6SZcEIi5Fph9VuV8nQ2s4utNJb7bcKZ3z/p2hGh23djr0muDqtb3wn7+tnF78Q/pUvh9AMi9M+Hbth5Urhzci2mV4DVyzxJXC64QFbX04YADcFnT9nkRA6dPk6odCR/93FPlXA95zpRn1Qxph2xDuybJOB6pCMs1SZVNkoU8pEffq7r5Wf/1Ewio2rH99CR/ByHyedqk5LX5O/OTp2PPegkD0mQfZb+N9Pk07hP4o3PJDyy2ibRJlzTF1tZ0jNd3DoXnMag3ekT6eg/2Rf9U4XMB581ZrZ18KXS8mlmqL61mF6vs+e/tI53yhJOHDeG3DqSQdlNQSsIkuE7IpTjuimj+vPnT6Sre+67CUzUjxsxIjgRmVdjtIVI3cG2kaXa+Oet1TeJubM9ff4KEZIwaedEfE7Uau/2k/6VSLZk6GP7+Le4nYjwdL9LEq/I0BF9xycnnnEyTLp4QeH2LZ999MkSgbI65PTsrYiwywQnsuuYXNdTsExVwOTIU+bjPZIPx5ySBJ/ryD9VhC63g0rkJd+RvKapj56lbPU7p3aTXpNdJ1JOJKBnpMuT4PSqJ9kxYZyE5+SX/ha+PUCr7yLD7qsbNmR3ss3W7pP/usQ7PbcdP+mZ9HKsTmQoDmBfih8vUJyD6u8f/vDPP3z7THXYffbVhbtVvp5XxqzfSQAncCficdAqiH16f+tYd0pX0bHymIIs2Unylj18DWkiYVZADDhWI92uJe3soKl+PalQT8nV2aRLPmmclNyoi17bzg08BRHtkyrAriq8TY6eZDg++/IqkO2YXLR5slkzTOTwKhEmv51ievLbTfyfEvgmCWyKAi5NyD9Ohimx1XMfESHByME7QQRKJ6uOwbnGpTYMvrRbSOG1K6fvx/CszHFvCYrZ3IlazuqCrNO3AxPHSmufBMepb8+EGk+bF+mlBR2AT0GR/Oa214aHV7hO0CmJ8YWcIr8ugZyqAwXAqcq4CeBUPahvJd3ST/bxJY36u3TTM6VbbTxNZHgiwpQo6bvJv7z/SnFzY8cN2U1EvyFDFXEsFqbn6pn3ROifNRYAOkZNGX0CKPs8GZFVSwqaejZNJwU6rcfcOIqAd6Df9uPB2FVSGrNbJ6x11NK/e8mpqg3PciIefuzOCfwUOH4v+c2reeriOCAZ1Kv8U3Xga6zJ79IrEaW3p010b8JnksuJkNWezk7quy88edV4JXP5kffKL2WHzZGiFGcnIjwRzqT/LSkmOTZx3bXxoqFLZic9vJiZSLBkiURIY3QB7A6/McjE+h7UrghJ0kFS9+otLnpxweT4DmTM3jd9VH+snFzX5BRPOJSpHFTPdAFDp9NukkGEcQq4zh+pEvLKNZFV0pFEqO9uccwkDFE/kX791LS/A7nLTjknf8oetIv/TnxorDQ9VpxwxiM99QVFExkmjHdEMlWFk+5TvzcFQWo7xf50XwXGpEe3/NbJPxJhGtCBsmHczignonAw+5RZRnGgiDxEIBNJd8DXcwr+FLgam3Zy0LPNRISuE+3T+cLtxIqFGya3WVhrxZLZf56IKyUvfXxQU8IJzNU/XwZBUvH1T+/rRIS0Q3rOE7FjlH0nsnTyTsEtbN4eq6Fvkz8nIkwxsyW3yV+bfiaim+57LJ2m//+LAAAgAElEQVQwLT90y05ecHy0RuiB5IOROJgZt0bm85rPn44VaGrBc2xSsiMWX6fZlNJeyUnObi2HRMDfmY3cdqcKpiN2t7ETP/2l/iXPBrzqv9oSiBMRdslNtk/rhFpLky87oq/r1ba+DKr+6VCypqAdESZiOtmguyf7uQ28/1eJsJ6XbjeVoXzOn/Q9r58IaoMPTxyOl5s+NkS3abMpvoQ1nnzpbPFBRfjjH/91fA0XA0RKM9g9+DaZgVl3ClpmYI5Fh7gzSGpdlcXsKcA7GNNnozsCYH+U7VSBuB0ka8rsJzv5eCTmyR8d8LgBILtIrtNUnVmbYyuh1dJFnR1VX8IXfai23/72t98duOdXodIOfGYTQF2y8etcr9S0XlVc8rMTE5N9Iisl11o7rLaFs+kltpMfE5amZ25ILPV1+/zko9N9jkUfTEVO4i/X5Tg19sqDwcaK69YYLoQr34HbiUAEmbJDV2kQLCR1vf7KPwGRjL8lwpLBCaQD5skGCqSyOQloY/eOkKcAqfsiQo1LO3d20XhKRNzkkb/qXrf5Q58UYVZbvs+Q5DnhaKOjbMtkK9mYTGSLEzadDH18yq61WxFh/T3tIt/qs22/wdGpr83znpgnQmScbgqJqc201n5NhFKIAXZb0ndEkiqJiSBY+SWHbCojTbeY8RX0E6GmYFQG6ojbd1upd0dcqsAnYmVAdxk0VUWdT6o/EnCycSIH6ZF29r1CchDXs+WT9P0uTzZ9NoQgPautjyF/dksnDNoU4MkPPHYjnKSd8I3sCYNbotlioZNjQ4Lb5L9tN42Z7nPdPmHoo6mxVxwkPg8KOrDLzpPQk6OnioZT9CfTNVU+NQ4rAQXrtiJkcAtcBKN+V5XIcp02oL4s/9P1E3k5wBNZbXwjYu0IjTJKJ+rmYwhDRXLc2ad+qr4KnP75Zo7RYe4pFifycCJ0n/Nvxy2rQSZZ96vuTXFxui85vQjoioINDj4FESb7nfTaFCVdXNV12WVFhHwtuxtIpKMgo9NoZDrXfz8FyQnYnbMmpu8yNAneicv1TNNRB3pykkhEDmfiSATB9mnquAECk1Vnsym5dMQ8BWcKPCfkalMEV2+kqRe2OtG5v0i0U/WSfJ36O2FyG4jst/tdfSlOnAy5Dslxn5BhkuGrIELGzlNCPSWgRN5qn06RnJLgSb64WdIFnALVO5wCzp3ckQaBkyqsBFLPfqly8fFSFSPd3Cn1t7+sdlNx+GZSJ8OmLxIpybQL2gQete2I5klfSXavPCWLX9fXFaTsLBmTHttg64LrFHQboj8l667CIbG5HU6xtNWV4yb8elwlPW/G8nie7Dbdf8Unbs+nsrW7xqlqOBEY23sWPxFhl+UVBEkOX8TnulmqtEpJvRw0LYSXDL4YTmJMr4aiTp1dOgefMr7GlV1oy7rHKeUJYGntNMmzDQDK5ZWOk6zL7PpWX5Sv/Od+dju4rhu5k76vBF2XTKZA7zCernPGdHoujckEcpLJx7gd54kvTvJsfJJkdrlvkzxlekyEBIWToECaSv8njvbKQNWWgoUVWzJOKVnn0eojTaePqtGQKVhvNoX4vIPgdMDTCUckout6EQHJxUnDiZk2T0lqSyoeaJLB+3Qi7Kp0vX8wfQn8r4oIHWtdAD8NupOtU3Wz8Y0n5Q2xvCWZCV+3sk4JJCXHU+E09XcifBDhj37x4x//+KMNA2Z/z4iqonRdhCTDpGouBWVXUbhiHuAiG684HFDVro5i6BT/yXGcaisYq72T7WR02cYDi+SRgEOy0W4ticSn3NJFScft639TnuSfU+B7gOkYTEeE1RdtSH3r2fKJ3sZCDCT8cIxtwN1WhFt7fAoSPFU3W31pb/rRi4/Ox0+KFMm9td0UNynmk/wpaUxJS88ke/6SCH9Yr+H6kAidnJKjCsw6n1OG4BSy/u4+6pay7gZcXZWwAUrJWtNjfSKhyw6sNmWDzcl0d4L68SlqyeqLvC6/CL6Iwl+Pzym85EoB71WZj/Gk+uA49XuapjvRCgf+ySHiw88aEvjsb+PnhNtTQu3ap2R5svMpwJPcnjxunz+1Z5wQ5zeV4qlYmMjsxk8ib090KWE7uXccxWKiI1GX8UiEXnH5wyLCEsi/oEeK1DNdNlebRIyTo0UI6ewVx6ax6msBTif4pW+SPREngZXIbJN5E2impECgnzYbvEKgL7qMOoGYmT9VAe5LycqxZRdfOpnGngKQ909Bn+5NNp8Kg1si+5RE2Nnhhghdnxvf3LTd+HRKQMl3nrQTiVLOVUWoTtNaT4G5KgNVWtW2SLE6ruMRKQAUoF1VljJ49ctKykkoVRHukKqwdIK/cwArOMnXEV4iAgch5UoJoSOTk21ELrJJImEeK1JfavcUqGla7r5MRCibTMniRA43Mm8C3ttsiXAK3EnOVPmcqrZXKrNE3hvbJB0nvbpqbSpoEia2OEn6pfEmIq1nCtvHqXFHWuqcaz1ymqq1+nzoaWOgy1wyBKeXWo9if101xYqOY/BNJmmBPhHwKTNOREhHeQXmzklJpp7pdn/5fKoKSVpOhFMwT0lC/ZU9N/7ogkQ60F8b0E7yb4N9UzVMY22TeUd2t0G/kWcin619npDbjT1e1eUpESbeKCx//vnnv1wj/OKLL9pNgS7oVRHKAB4YXhF6xUCilWISVMSlKThfWdRlqK56E+vX7nG1qQ/9U5ZUyVDnE2BP2TLZzUmqZOumuPyMZJJBVWHSJZGog+cm01OX+v10FtCTnCcnkiCJOuFjGzA3AX4iwdtg3thwW+2+VWV6shlnC6d4pF4nHTnrubXd1rebImVKAJNN3hPhl19++W5nNSkj43VHIVQdkAg7UCeyStd8erc5vnICUsn4zW9+8x0B1htNTmV5tXH5varbON2JUP06MagvJ5tTVlZfPIfnBESSuQHdhpA2bZSANLZvFHmy2faZdHEMdcSYrr9CQBNJTLISR0m2DdHe+lYFyJYIN1g/YfVGvk3b5C/psvGvj1Fc81FF2BFhDdBNdT3gJ2USQbyFIU+AFnHoHYh828dJ/nTPCWuqUBOJkvzKEU703dRYIFZleTobSV8mGRIhd7679bHkFBnW+NRR/lDCkx5ePaW/mai6BNURIeXqEseE3xusdks4PoZXVrr/1kRIEnxLPT+lvC7nybcTfj1hCp/vibDOEcrofnaNYH3FMa9k/E1mJbl0AOT3KXtgdmThhLKtIDry4PP1u4hQ46eplMumt+bw87oMJnd4R8abbC/iUZ9uN9pdv7ss9bf7RMsepUutKTOYHCuefDzwTsGRSOZJML1KgKeA7ojwxj/JxjfEMBHjbezftp/G1/1T9XfqQz732Cj8/eAHP/ifc4QyJBXgFJXXnyj5qYjwVLV50NYudx2lqenxNN1OweKAnexwks0dm7Jq97wI1Csp9plAMcl7Cpxu84ZESB/7WIkIyx+1o/+zn/3sI6Lsqr1EKB22ugTwlAhPOt1WzR6QnUyTz1KVs401JbmO5FPfW8Ka5N72s2m38WciQlWE74mw2yyZMu1GyC7gN8/KUSLp5Bg/9lL9dtVLsT8PK0/OSoDagoxyeLWzJT31UWN2myqTDnJ2CuJt8MoPSQ5WsIksO/l06qAS0z/90z8dibDDkBJCqoZ8XGJnEzjJR47ZLVknLHj/T4nwlPw22HAyPNnN9T31vxl7wwGbNorJzoYn3xcnfP/739/vGsuZTyvDGwIhAXDqSGLkRoE7iAHuFa52u/2TGxuD37Zxx3TgOBFSyatD6ySd+r3uJRJIcjrgT/bzcU5EqIowBSQr6FQRaqmCFeEpgGgnyaTPYE+f2nEy2pKh5KFNWAW7/h1GpurqVSL0ZLFNci4vY6wjcPr1lDAmMpw4gQTn9vfiwrG2SXzV5gMi5GeNuyB64vyJOE6GkCLaGPCPldXf2vwoI/g0WGtQ+jJ4Gaqu11EafaXiJOPt/VN2SsAgyUgP9qGzmel17k6EnT1lQ9nUN75OhMWkVM+nV/CTjD3gScBpw0RHcdSHZNkEkfSdKrNEMjdEeKqSNpUjMZTGTcRy2+8tTk/tfZZ1Yyvvd0psk5+9ADsljO7eSf6P1gi7HUgJooCcvnWu2qUXFUzsf6piFPAMJAdPqgprTD/Woywg0pnWCk9y3VRjSiQJZDo3WbJ0b2Q5VSZeDbjMGlOkJJtsQEgiPFU/iYy8SuyOYOn7qLtXpXVVy0aeJ8Hh/Z6IcGvDrmI7EdJt329Fhl5NfVVE3elL7vBCoysupuSj+x8cn9lUhCyZOwIgWW7L545o+LwcsyEeB34CcbU5vQpqky0VLLdg5QZUEYOqNV0nESbZdc39cZKZVVlXFU7Pp/tTtt9UB6X3Z5999u5VadtP/ZyOD50IeQqOyZe0/YmEO1tuK6snfb8VCbqNvICZ4usVOSb73/Ttcna2jxWhT2vcKCVoWhBntnP2PhFGqhJPMtwaoiPQ0qEOWFcFwq+LnPoXoUjuJ9VktxPPao1TXiUEjfmECEuvqSqcfCE/3vinwwLt/IQIeR70NNOQrF2bTpdTn26HbfC+QoI3Np8wfHO/k/mky9Yet4n1Ru5q+zIRsmJIg9c0ppT1NSsO7EJoYf5U4Zyy9alk7rKniCW9MqqCr747o+SqF0R0hEYilXGZCDq9mBgYOCQ1kp361JSVH2GTHnVNXzma+p+AoipKeqQD8lsQu12msaVDtUvTY1Xnvg5M0u+mQCStbgqrNhtiln1Otrid7Xg8PJlqpj5Odncyn8h98qHw6tibnttiyvvZTJMn/U+convtGiErkzRQqggZGG+RvbZOV3CX0brjJQKAT5mKWLSe6VMyjU/np8rsydRQ9mWF9vu///vvZKnpob4A3eVNekwgJGiTX25A2iW6TVV8wkTdK91F/vJFR7ZTpk8HvhMRnghvIg2fInfJOJFGelbtbvyxkd9t9XQcjZX86LhwHW512hLihP1Od7/erhEye5cSrojWAZXdU4bfKn8C3ESoJJKOCOVAB6p0rOq2fq+q0AOv/uYLZm8dPAU/g7NIoGTRa81KHlV/kx0cpJ0/Nv1sMmz1oxfd1lgbIqSMSb7yZe3kl851rOkUwF7ZEqMJr/K1EtkWm1Ogdfe7qjSR0Ks+6WTo7Mf2t/ZQn4xZFgddrL1q72TPTZ8TEaqPD94+k17VL4UTEZI0toGQnLYhwk5prrWJlLsxki71fJEP359IwvSEMGX9W/28fZFLEWHJpdeY+dk4B3Kq+F7xxxT8solP5Tu5eN2Byelh3ePr+0+BXPdIhtwBT1jZkMKkN0nshrzS2B1RboJ7KydxsSXsbd9JJ5Kkx8kpMUw6T/c3iXvSq7DUvo8wgdaNqzbbwEuk1xEhifaU9Tw7nYiQZKn+i3iKCKsS8bfvnGTYBgPlu9X/trI4+YPyuhy3YBMZJvukvnhNz6pyo1xcM/WE5IS6JcK3JsEpqE7ETzJN7W79sJWls8HT8br+WDg8KRrSM09lrL62vm+J0NmdBMIBNEX2N7m8IryT7amvjkTZB6uO1JfWpqoa01u1qWNXYdDIm40WJ40n4DwlpykonLwYlKdE1pE3CU19pbW5BO7Ob17h+zSXuBT26pp/5aoT72Sbm/s32KbPnybEG9mmtq/gZ9O3E+ETMuwSabLfJv47uckLx4rQycQ7LCGqmqp1nfp41G0wbQzbZdDp2XQ/VS/VrowgPfSewml6RYdX221FTLlY0ThgTsQ6JYYT+LwqrL+5S9vpPdljkmlLHmWTqs5LLn0aSPq47Nwku33xRMLyhDUG3VafLfFMAf0E710MbGV/MuYp2W772xDhtq+XK0KvyqRg+miVfwZ2K+RbtesILoFdFYfrobVCnSfcVIHs/4YIBXpuOHG8p8TKammSR/4sGW42O576LGVznwZX39VOm1fptVzJp6waO0LZBsRWvxsy6ca+6WMr169Du9I3VfZb2TZEuE0cW7+vK0J12O32VUenj911RtiS2MmIMrpPo1LQJEJXAKoa8XN6nhTYb2eXjdN9GuF6TGT2pKqhLgIsNxo2cj9pQz/rdxGhT6e9IjwRCe9NxNL1431M/XCTaLIFfez9TuNMff+63k9V4Y2un9JOHQZWROiB7+svyuI1lZk+q6xnXaAbQzkxsbLo+lEGORFv9VOvgzq9iCEFtPp+ogN14VSvrosgttPOm6RCsCqBaM3kqR5TlqZ8qoZTNSrZTrvliQQmO3XEkTZdqq33RwKv+9ObwTUe/co+Xb+ndr8hxMlHp75unk3LPtvnPyURquhxPa+I0AGqTuu6PvEwVWVekWzbd9VPItRuWut9JELffN7Vx0xEuHV6R4SSLU37tn3fVEsEyJOATAmi84MIV8+kWQZtSn1TRp/kFW67dvqonsiPNmfi1tj6mYjQE0z1WevP0plj+KHx2xlAIq0TNm4SZZr16Npk72qnqjnF54lsU9+b8bo+ZY8JQ1dEeBqsBuI3rr3q1G2wM4Dp6FNlqGecZMoYf/AHf/DuUx11oLcL5M04tyAVeDjmKwBIme/V/qZqgaTOgJ9AmpKcJ10SEttPOjl5pWqD61nCRMLfFNQkQenvRKjxKz70dqbt0k5XDHCsrY86e5LsPJEyoUx2F/7Yxyam35oIGeuOT9rqighPhtA9OuVkLAL0VdKk0atfrXmdspqDR/LrJQynaf6TzLp5ZgMUEtwExs2YDtinvqD/3e7JH1PA6vtYKiHRVx6cp35SMG6I0InWCZBk4bpWW21A1Vj1e82WvCIUESZ/uoydHydinvC/sZ1kcfmnZ0k6jPUJs29NhFNFqPEKb6sveKchTkCgAabjNF0/WyMnR0txGnQLGG2WaJpfZHgikxQgXRX5KXSdqt7tmCQxrltNoPWM6psfbrttf/WcPm7oL8N4ayJ0svSKXLhPSSoRlhcLwpQTnjYWkz6s1qb7Nz6+iasT7rd+JBdQ/5Mcb02Eaaxk05YIaQgHQTr24IqqMnOympzM7O9KbCum9JwDxgEr+bVhUus3tWnSBR6znPe9zegdIFIW63TqxqL/NsDdVo8nmTtc+PVJHlVR/gVb24RGLJLka9wuUXWEIyKUDvT1qS/dIxHyWREhp+XEvqpJjiv5WZQw8af4SMl6Q4hTkp98mMaQLpNMnow28m7bdGPHqbGDxwM9Ad6J04kw3dfOUt3j0ZtbI98SpPTTFIZVUF2r6bGIkLonHegAyf0KEfoYKTEkEmf2rfuu2xYoXQa98Ynjpw7cV3W92QWv8UWEOqjfjX2qiGVH7l5We9/gYMXnFYzjQr7QuN2Mh+QlX7BvySGyE3ErZkiiXmWLDF2v0wH8re8ZRycivMFChycWEt7fWxJhR3w+5gcVob7FzgHhgp0C0Z2a+qrn9Vp6fiJATu4y26sOoFOSDrpWAVhjaZ2wI1o3MrOzj5UI7VRdiRC69U6O7efwqNu0PLGxqfTyQNGzDur6u6a29ZNV9Ym4eE/4qN3W7oW5EwmqD7dTevu1j+2+E1aFTx35OcnguHcilF+K0FgVcgNFZMdzniJuPad709puRwiuq/vUMcpk731usOQJu4utRIZd2xPRT3prnJEImaXUqZxxCm4KQONyYGa7ZGAHqBvaDZPGnMjGdag+VJHUPX66YcqsrwDD+550Edl5lcJEpMC9BUqyc7JTJzNle3JYW89rkyF9981EQvIjZaxnEmEQz10F49c3CYZ26J4XoQnLToT0IQuFsk39Y6JMCfGWnCaMT/1N91OBkMjKiXBqI9x32O0IXddHIvRAY3VwIkJVNF0wCiTqLxnwxqhOAJNsHdHoelWFBdI6SnP7jwnj9tlTICYnK1E5wE529bYpUSXAdpWTiMTJmRh4unOsj29un6dfN4lpW2V4pbTBptuDY9FmqvzqmmZIvJbOWerso1eLjAONrxhMMm8rpltMb+wjjHUJg8WR9ErxcRprK/cHRPjll19+9M1zXUBtQOYLvV2Qd8J6gKZ2vJYCUWMmY53WOosIyzh6U/RTQtsG2ql/13uyfd3XdKurgm71SXrwGhMbk5DOlrKq8746v2q99vRJn5uAS+TuCTPp+coYjk8WBqwGVd0Vscl/9VN2YyzoORIc+9XzTqbCwilZdJXTllBO8TZhPJEyybAj7YkIN/77gAh/8pOfvDf8tOZANtfC/KksVQacKrWusqMRPDt7nyIBknhXTelZ71PvKNTLUW+J46b9DVl6YCV7KhD0peenjz1OlR8zcbJhl2D0XPkifRezVwMlM6s+6VDfKVPP+1d8piqHZNDZn35O+PBkugmija+lD8moWx8kEfp6ZD3jb0x3EiQRSjb1I6JNOCKWbomvI9CNbRjzXcVH/ujapOvysSdt9+tHFeEJtD6QQFPOSes41Z5V1xTwrCq4fng629YpqAVuOXciAydCAa6er02TtwqILTBeaSc7br6qVID3REN9J7+RLPW7pm6+GZYwpDVZfppHwVw7+PznfuoCJF2va6oudf+r8CuDkQlAL5cQkSmGiF0Sofxa95k0pmqwxlQ/Gl+bWSJm70PtbnGQnttgOeGQxDwRIdtuxvM2H60Rbr5Tlp3IOTJYYloZuyNSV9Kzp7LYlLEYzKmCnCpJyiciLMDUlyndBMxkkyeOSlWCSCfJ5jbssmWy2XY9znGgv/WpkOqn8MTKi6Qpv8vWnnDqOR2sppyut/T3jRnurOp41pPNmyf+6mzD6yJC4bpkLD07gtRUl/ZMVTCn3GorkiWZskipflgsMCZvsP8KIUk2tze5xXHQtWXCcflTYv/oQHUinckQCjoPIDnVsxGFTIqpv2rnJ/A7MvN+NjKfspeqlKqq9NbqqU8F6Km6ehpUAokvQ5xkSsnAA1TBQBB21f1Jdo6lioZE6ONSbgVu+mrY6reqQq43kwhJbL6e5kSYSOOpP6bnZI/OPynoRT4nItSyj1eEya91jXjx/pmwRYRJ3g3uXyHAiQ/Y91QZ6v5WZibvDz5iR4MSOJNDtR7FtcXTzlciDTdIOcpJNBHhlBU60J6IQlVKESErwg3xEORPqiuXl0HlhODAoHwuR+qX66nq2wmlkyfZtcZnIPuRjpR8lDDTskzJVJ8wUUATN5w2+hTS2/mLeCciezWwpySUxpe/+JMExYpwIkLp74lTVbbuS47qjzZK0+/JZozNWyKiPF3Vt+nztpLVWGWn90RYB6oJ1C6DerDJQV5JsARNGTJlRV6TE5n1U59O3pPDtvdJ5JtqwoFc42yqK+qUZJMc3QaWZ3YCknZ3IKnyps2rTZo+uoz620ErILrMlMnJUeOnpMHAVd+ur0hLsxmRe12v38sH9APJnzZ5pRo6JYtTldLhOflU1/iWJ8cl/eExp+d1BpEy85Ndmg2pb9mOs8UuCYrQNqR1Sga8Rxs96dftn+LtozVCrzAEWgmQgilleVdETklBQGB6X920ektmbKdxEqkl4xA43VurvX8RgK5vN5+2SSNNjSe9uupGRMiEc1MJnTI3ybV+7ypj9nGadcieU9LocMG+iwi0WZA+2ZTwvEmElPFkx5Q8kn5uGxIhk2xKfF7Q8FltZNEmWp/VTIh2VAzWT8eak+2TuPRnmMgSsd6QYapSRyKs7zXWwHJkAkAnSBeQXlm54nRMytA3ineZufqggVMmVcA6ueltNF1FRhCnBfAb+TtiEJATEW7IpANoqq5uwJzIkDgQjgQ+ApP3TsTB5YCngZfI4kSqwqx08c/CpwDryJoy39o7PctrwrGSGu3IBMSk7nipPrRJKiJkfDCJeaxOMXGDJdqPMrrPb+LJ8ZeIta59tFlCwqAxEkF5BvSSXfc9MDqy8us3WTgZXM6XsxLheoC4YwWwzVofqyDJcwsU9qHqPAGB/tiQw1RJeR+U46SDBxUrimQznxFsQO0Vwok0T4G3GUuBwsRT1yQ37eSzpU3QO7GlmEnJxRNIGss3WSS3cKQpL5+te9yQTERNsuWxm7quanHC18Y2bCM5HF+3vt/6PBJhCn516B0zYNKnCJwsE9m50lI+TYvd4CcSUAAJsHplOo8SMGOo76SjwOSO2ABg08btpGfki/rpXz7vFUiyRQJS8kkKPtmPR2AcrB5U9Uw3M3ia2NSnnt+COwXfK89KDlXlm/XfEwEwafjxlq4IORURHkdMRHVPu/nEsjZJmHS96CEJ84yjiPatjt38WhFhKSWHe0ZPIGIG0RQmVRAp0Fgx+pSy2vPVTSmgvU+Xj0QoINSY6VMKKRN2oEvZeZOxpyDsSJ2ySaZTQkrrsCefkGwZEHW9nuteUJvsr76YMLS2NBFhlzAYfLfkw6CnTKcEcSKvU+K9rXpS8mPscf3ylEwpk7DiCTut/SkWFPPsR3ZjNai+WaGrWCEe38JGTuquzxRLnqAn33xUEepQZ5f5J5JLArrhqm8C0bOVxlbJflJ6IkPdVzBJFv/O3MlQLvOpQlRbgnLa9OkSRQLVxh43QNEBaIEtVQxJf7+m57uKsLPxFDiUjwf+vXKhPJ3+E142JNglo/TsLeESM9Uf14Sd1BOxMyGzvWLM5REuVYio+PGkRbmYmJ0PfPxNXKU2wtDJXxuMb9rU+PFAdQI4g6RzeDdoCoyJCFWNcJF6AppnDbaXDLXGUVPk6p8ft9oaLBGWniXhszISuLbrhR4MKeA3AZuqRs/c9beIxqsOBQPXgU7jMghuyUJjJz+UfFqb0neYpApBGxxe2UiW0uMJMXU6OzF5ZXbrt1R80CeeMLZkr371PIlMfeiVZ/I5f/J5YrzayKayva5t4+mUHD0OUnyfxjnZx+Og5P/oO0ukFAf2DOEKeBAlElIfiUzKEb4orvWLiUA24JZ8WjCunzwSk/RLIDwFhZYGnORldJ+ynoibYOWYW4Alf0g+70PTJt0n8OmD5LdONg9arR/72CQTysx2vpbWkaySD5do2A+n6CfbO3FsqpoTBrc+2yS3RJYeH277iWB93U9k5muMqTqrtm8V/i0AACAASURBVJrOy3+sKje26wqcV4hwa3PpNBKhrxOeGPzEwFyvS324M6qNKhE5Ojmi2k1EuCFpBYZXNfrbM+GmMlKbU0W8yepeeXRE4AHsWS9VXQKbyMblmXwwySL/qOI44Ynkn9Y53eYua0eEaic7djjqAnKj45SsTkl1G7ReXPgauGw29eeypNjzmViKMdlTRKhigvZmPE1yOWGTCBN2p2S2Ge9IhKeMMoElgUaGqmBIb3wugTX1EQHqpxNTCoYTsKlLR5gyuMp8BozAxSpZwSznkEzSWmAa90TOIo/kh0QWDuyO8LjelIKKhC2QndY2b3DiUydPYPW3qvUKwvTyD+re2U/T/FTVePXJCtiDmD6gngzypEO1Pa2jq4JSn8SSbL6xqyew+ruWDaZZh2OR/dC+frJCurqd6pn0tuxUWGyIyZO5ZHpChCRKjxGXJW6WONl0U6oEBJ3VI5AFcL7AwDOok5mDIhFwdy1VQgWQtCDshue4NL5XdW7YAkO9O+9nP/vZ+13WFEAc71QN1rOaTpKUUqLpiJC6iIhYkTHJUNaT3Dd+SGRbY3LXPrXRdNxtNRFh3VfSZSJl8MpWJGYRpNppXPXltlM7X3NMvun8Tbw79l2OzuYpZhj8ju0TEakv79OTI+1Ke0/VYJeET3iSv6vNiYNOejH5ndqtiHDKUAKXDFM/SYQKar3AYEtg3o5KOduntiLqGl+gpaPT2oqM5cTHipDnpjiGMiOPeCRQk7iSLRIo1U96loBxZ8tmmv7oI3+eLDY+eUqCko9rd50eChivbFilnxLIhgjlMycN71fLBfIHZVKl7LbfVj2evDr8nkjQx+pw5ddP7UienPIyGQuLso/usVomXsULdW271MZkxARInbe2ZqJze8q3pcvqC94dNCSUVFk4ycho0zkwJ4EuO06B7DLRSTLsae3Rp3J6pn46ETKwnECTs7ZEeKow6NCOCN0GGrezaUfAJwLcVhmU0avSNG43vRRRdgmEh4a5aM/AdCLsAkV9kQiJIyVX93mqyroA3ARzirWnSWl6jmOJwHStZOWUmUmHZEh8sQ8S4UZv+Sl9Imxj46kNdV0RIbMEKyBmiY2BZRSuO7nh3XD8+E9HDHQUQe5ye5a6IUIPni6js3JJ6zU35JZs2hEr+3V7SHbJ1gFEtue4HWlu9CD5eWLxYEnk5Pr7dDbdZ+WuMfSTU1naiHahbWoG4+uI3JCo30kGPt4pJpKPuvYiWpLNFG9P7zvpyp7Cu5KL9Pb2tDWXFpIvNjISk479DZlObST/mgiZtcXQcow+guXB6FVb9fGNb3zj/aKujMu+HVhcL+oC3IOSzpmyQiJLr1BSdZKe86BhG5GCL46f5COR1O9JDne02zTd70iMUx0GXTpk72SZQN0RYfeRLCYXVmn0h9qkoOCheRKtbC77OVn6Wp/6FhHSFh7Q7IskOQXghgQcY7LDCY83/XpbjxvpnQoNxil9oqpRBJZsrcpwIysxlNpPdp7uq8/VGmE1pkLuIP8okGfbai/D1Es260WnCi5mYynt1YOThxPsJiglg35uwJQAcCLd7qwc7cdquCMk2jdN9ahvt855qji6eyJC2ZfZ3X0+yS47y+9eUfB5BiDJUOSv+wq+tLxSsvpUlmTaHQfpAqXG5NlWtlMgqyJ0guqwRd02JDC1eYv+vA9ig36R/oxRJX73bbVlxUg8JfxPevJ+IsYT2b05ESYBnPAEPLXlWpAC4rPPPnv36ns/HqG+6qd2dxmI3ZoRiVQZjEGbgt6vbY0lvRSgBEeNmb4Qh2DRc65LR+x1PQUjq5I0/RYQCcAJbNLN12M8ezM43N5pDMeNZE9BzCCr3/2tKGXLsge/5MmrFpePhEusTD4XXlMBoGBWf2ldOPXvuEtEM/mJCd1x42PKnrJ56puEpQTjuHYbM8nRvyQ5vjtAz3PNdqPnBk8bDJ58LR9cTY0JXhIXA/NEFjVYff9EVYQbIiwlZdzN9NSN4tMWBgJ1mYLCibX6TeesWL0x4Pk8g8gdnUimI0Lp6iBncNIvE/DkNx18Vvspg9/YblNFiuzqZ505ZVCWfWu6yutTIKREONlC90VwxLoHdSoQOuKhLB0JpgThFVFHsk+IUITP5N4lZtqaestOvn7oSYiF0dYHjB0mAT6/xaBjhT54RIQp63KdRUZyxWuw+uL0yuhp51WK+rqCqpIOJAlUJOSNk9Xm5CBWLIkIObWkzJ6ZO0CciFDypWrSK79qW6Rxk4Gpm4PsVFFsQOhkwWf8+bKhPgteCZOBIPv6W783MtwEnuMsEeHTMTsC9IBPBP+E1FPMdNdOicrl5t9O8IpfjeNrtDe+8KTUPXvjj1TxXhNhCpLkxEQsKUA70N0oloiZBqwqh2tENAQrqOmrTBXQRTL+bsC6xwVkkgeBcqrSHFDV1l+I4OtjXnk+rQjpw67iSCDc+ilVV15tyr46j8kXLHhV5LJs5WBVcXrmhKlUeW3HT8nupNu23+SbjnSfEGqK8VSVcaqt++XnrvDZkqLwc2p/ayu2j2+fue1wk81ITKcKw0GRQKdsSRLtMlZd55fV6Jn0ktNJb5Gdpmeetemsrq/uehcgqc8TUemer1uJACYdO6DdEIP3wQqBWGFyShXGadPhKRFORDQRbqrUNsGc7Lf1xS1xeUJNMnckudFlasOioHScllem/ur+pyBCjnusCFMJfRJ64+xEXhtAJFlO8kkWOUVyp4qM40+g4/SMALsJsFP27oi/A7NscLLFxr4kqI70PIFNtmLyExHTL+kVa3VfbV4lQm1USf8NPm98swngLrHfxJa33dpdNu9wqtkDZbzByslWIq8Ub7d2cyLs9H9F9pEITxmwE+gUSDdGmMByAkSqMKSLG4zVEwmzc3S1Z5ASUPp9Cmbve9L1JAv10e9PQUEi8gA5VeebBMm+6/e0hnkiwhtcse2rRHiD2VfaOp63hHfbzmO6sysxeYOnV4uCDutMoomXbmT0MVZE2GUMOkBG82ubbPOEUBPQWdUkQnMHUWYF5on4WdUk8lF/mgreZMMNEbpt629WPVsS3CSQBOZuSj4BkADm77SPV+X0B/1KO+n3RNDpeVZIU8J7hdCePJvIqNOP/dOeSs6nGOzw7bGgtT4/5TD52mNQhcH2uc52Jd9EhFPsnvyy2iyhEAJvIiK/lsixY/ukRLcuQBk6A3uwSwfqwgoxEdspMynQ0vjc9RY43xIIrDpVnfqZzdN4PO6QKlP3N0njSVXIjRL5xeVOVVsay6vxVN1I/s4mieQ7X7/qt1tSdHzW89MSAQkzEarL0GFWcVUbB/UJMJ080AuM6/50BCbxghLQq7b0DbeO+LbjEHNjRcjGzMZk/o4cXyVCP5Sp/pSlkjypKpQjSFAik7qXdmJdP/6tbNl9jQBJV7Z5WoEQWOq3+pQu/ITOJkGUHB0RpqzrJOiVW6pOEjnJB8REqgi7QKIPTwfS1Y5ydeQ9+eSEr1uCS3YiBmmzVPl4HPr4solj/EQKrNaoK5NVbTTqgwI1Rn2Rlx9fmmxx8un07E2invyZxpJ91h+xS5mG13iOUE69MUCq4EQ46i8FzsaQCnCChM9xV8vBmYK6+qudY37LngPd9XniJA/q6pNZsWQtIvTp8WT3U9bmGIkEOyJM+EgJsqvG1C9nAU549Sw/xqhnnhDdZCPZfltdbHDIZHrTvkssxIfijzHjsxG1IeklvDuWtUGoY2P8igvqxFe9+TTddbjVv4uvU8I7EZ/H55oI2WmaspIIUxU5AcqByerElZ36SgZQEKWA9XUQJyAP/tK/Dobry59S1npKfB1AmKUFZE1VRISegDo7dSQtm3eVEKtbt+OJCDv7UI5U8XREWM9xoyXpuSW6UyB1dngliDsynAhpo6NIMPmXyd7jd1M1Kn48OdJHIsIUT29JhKlA2PSfkvh1RTgRIQfZgNoZ/pbZb8GoSocbGerjRIQKOs989VHB9Jlp1+sJaZ90E4hJSk9s0QFHZDj1vyFCEnOq2hiwrCB0vSNCVSYuY8JdwuWJjG5t+bT9qSrv+vRAdpuqcpPdXXdW0Pw8v6+ldrGoGPJn6SeSsX8d71vHAgmxS+4nXZzTxhezbpydBGFVl0DNYPTASk7fKHvK4spYntUUUD6mHM81RGXGei3/z3/+83fTYwbWrbO3Vce23eSrk08cWG9BholYZVf5s+zLV311RKhArzUrX5ZgkKt/+plY66qvW99Ntp7uOxmmqnpbIMjOTPSapXklX9d9Q68j2S4u63mtHfoae92rzZb6160pvqWtiWkmX0/2qSKUfY+bJcmRXUDeEiEX7BMApuzXgUzyJTk7oHWk2xFhyV6vE6upMd/F+JbOnYLo6X2ShO8A6p6vOZ4I0W2a/q5rTIROhHXP32mZKlYFbyW0boNLJNctF3TB8VaJ5sYvHcnc4NSTF59NRMjAZwymQiXZxJNIteGLQTQmP82lTRb/mN1bxYt0nnjkkxNhIkE5SMZMZXy1OS2qesbcgIxE6Nm0k7Mj/ESE1bYAxM2SUxJIJPJK0HXrs66DsqSP75WAZ1Dp7FVyAm0XsC4LSUm44KbPlgilU/JXwpfr7li8wcMGe7dtToF7ku0UbyRGkVbCgLcTDraVIXUVZvj2JSYcyavKnzH/qclw2/+jitCzkIzSTTFTdheoJyKk0zdKnYKzI+VbIlQWnI7d0C76/Qm5d/buqhuRtfT1NRyXi1k+EegrJChZ1AfJjL5NH8r3cd23UwL2ta9q75UpE+ep8r0luZv2rteE8w2BdzibkgnJ81RVd4mXGyb0udYVy8/daYsbm3VtXb/JlurnmgiZ0TWofnJbnUY4EWHd446zZ5IbIuxIkMYpuXwa4NlNYFCmc8LTdQ+cjdET0cimp+dp60SwntG1nuYbQR5EJAISLv3A4PA2J/DqOVax7guN372dJJEh/eN6007yM9unKbrrlwixw9bG5ycbPen3aTKV77ZjpqNKE1lV33qnpXyrZKjpcvGEziKeYnEa61TA+L3JTy8TIYnxCRF6lu6IcDJYAoeCQm9drr6nV7bTeYm0NI6vo/E5OeEkUxdsncMki+96sx/+rt07Eb/6pdxJTupMkiGBeiBNBE77pyCs57lGyDbdJpvbllWtAk/26IhQNmLQSJdUTXrCVBKfkv4TIkzFQ/JXlxRvSYI6yLa1/CMd09cjKPa9kKnreolu9askx69SqOtVGfpbsZ+Qnz/DZLslxEdEKEUJRhGBADQxcLUXEE8n1T0wE0C6DMnqQNktVXcu6wRsyS4STyQtmUggBDJJqyNRVirShYvQ6qOzORfDO4A5MUm3yY9J5m4MJ+9TkCu41Fdn2xMZe4XXBQr9SNJU8mCSl691zfEuHdUuJbqOnE7BT4J3XCYC3xJJSoh6VrMJnxqT+CVLkkm2Ef5ki7pecVgYVnKseDy9qHmrz4kMiVWPO+p8PD7TZXDN+RnwnIZtiFBZo95EfKqEJocnsqGCzPyqCKdA8oBk8IqU9FnMNK0jCadnWXFMFVXK1m6T1McJ7JugfOKTjvjTeF1ge2JzOVLG98A8BZAncCYoBrvGYUATF8J7XRN5MNBYXW4DOsWbnn1LIuxihtjuxmUV1/m7S5RFglVpqjCpMbRu2FWdW9uxXcII9WGCkf/Gc4QOzHqQW+YagAai07og1Ye762DyNPV9YgyBlhXJJlNTXmUxgp7VmXY8TxnJHSRivAneSf8EvFOCkG1c1ymBbeTwAEq22fbT4UIVhdtwI3/CMxN68r/LW22YAH2aTbnUbvIHSXayobfd6D3ZXITg8eL45Wxhk/jIBYkI677iiEtXyU8bHWSbTVJRf4Wnzz///Gtf/9GPfvSLH//4x/GV2kkgHk4WuXg2PGUdkWllhyLCt3LkiZBOxNMFR133zxVviDCB2u3xROeTc0Ww24ATeXp2VD9b0CWiPz2bbE0ZNnbREgE3RDbPJful50iMrC5oW65r8ugIk1LJJyK8XaqY9HmFKDr/kNC7okHXTwkl9V/PaRbIb3xkXJZN08tMJltsCxG2Y59HIuyCzkHbgUuA8MAkyMrwqiRPAbwJ7k3gThnMq4Hqs07Jc8s/ESHBn+TQMycQTfLfkGCqYJywyvanSjzZYlOpnEBJUvHEeQN2LeSLZBhMG194QJyCmhUN/ahNgrqmKkr91jXNImTjDRF22DmRteLxxn4d1pz0PdbpM+msCpE2TD6QfOW7+s/TBJRH64be741+1IM+SfitftebJQ4UktlNcCRQeTC6YwW0GicZ/cZAE9mkIPYvf5KRiyC1vtEFn4PjU1VbJIIaQ+uDkpVrkqpWRYRb+71FBdIlzVu/1EsvSid+xHHbx01S7ZK4/Jj8K7yWXUWGXQLYytwR5JTwnvbP+KYNSOqcQju+unEV2/VsxY8nED1XccVjNsLsFqtqn/zjfDUS4RTccq4HWyqpvSLyYJwc1oH3xjCbMbwKSkSSiPCUYbuMlHQSUDxw0hGFUxB4RvRkk/wx2efX5X7JXh9xrJ++6STs3U6ZhUfquMEWY8SLg4QlyXfqO1VKKaZcZlZvb0WQHYFrCr2J/SSLnmM/0kfnELWsoGN5HR+dcOk+SW1HIpyATyJUhjw5TMAlMfjO5smZtyDdkNOUaWV86kUirOv+4gVmHFZqzE4dOXa26ex60pG29cAjgCc//zre/+yzzz54D2Ppo7Ulzjo6QlC1lnz1ir7Jx9Wfb0B0SxKewBLRiDCo50lnxeZTvTxh1988LsT7Iq/ODpQlkVRd00asYk8bKduqcxPT3qb0eb9Z8sUXX3y0WdJVLVujenZzQkkfyWHfJ4OmdmqvKQmJ1TP0hnS96hAI63pap/IMyh22zkGTjiTTrd2rTx3vSUH3qYlw0okEtNWJ7eo1aL5zrAO6Ih7fyWUQEh+67li/TT7CRtLHj+B0ffuShghHZ205Y6A+GyxvKtzJFyRBxoJk6Y6ndf12CVq+Ez/wo3lP9SAm+Xv198FmyU9+8pOPPovJQeW80wK7K+yv+q7Dk8xeJUBNc1Km6AgxGU+AEeDqzTDa4CA5dkbcGNezLtc3vMLYOn4C3tP77uiOhD9FJUFCcUJUlqc8pyDu/FJrhL7zWD7XEkIins6WSho6GyuSnF5J73J7or0he9lJRCiSkR4kGJFRtTkl2ikZbTDvMehEqPt1XS9V4LUNflM8U3+dO6x4rv/OSZsxvI3b5oPNkr/7u797N4jAWr+LTDT4hgT1vIwmRcpQBVYGXwlQROhTh2ojw6bsmQLdr7mBbwyYQOSkcSKbzrlbp52e94DrAM2g6jJvl2xUCXswT8HDitj79l1GJj9WUyTSbjpUFSHXkohVyUDcbOR2+USQqk60gE+ZOONJOL1J5hpP/XgCr+s1niph3hd5b/G1aZfIgvryvlfYU2Hj45/wrnHo1/JFSqobvZJPPiDCv//7v/+IbfXxFwk6ASoxL0mOIJJirKwYeAJEGpPBslX+JPuUPZ0Q6BwP6K08XbtbG58qnU42BbcSG6uMeoafmjn5ofP3FAgnPHmApTGKCOuf1merP8fWEzt6cJHYnejKRlWZiiBPn8c9+ZpjOK7qOR4vq/v8mKXsrMJh0vk2biiPKuZEYq47K3L6+hRnnex8hrZiUTbpPcVk6fb+kyX/8A//8NG5Mm1hnz7+4sp1yibwTwT0qoKTAViJJAfL8AoQGt+DZEOIt0A4BeKk2yljMrvKBg44Bv5pnZHBWL8zCNinfEm5JvB3SbBmEX58ZqrIJnvd3FfiqNmOr0f7dHXyudtdcshOrBBZEXrRsPmIWvLHSW8Soc/a5Gv/yF09o6pVtmDCVZ+85oXGKbkLu47JV7jiAyLU1JhCVOd+nmcqY93xrCg8OE/BegPMV9pOhMbqqSNCrU1Rjg50pwo3VT8eEKnNSf8T2Ty5p7F8jXRDRAkbJ32SfDWuKrGqCGmfV3Dw5FmfKlZAVbwwwTr+Pb5kk2qXSFM2SNNiJaE0Ne3wx/GSzp08TJ5ci3VCUrwwQZLMNWYiwg0hkpyJjzcjwr/92799/90RBLWmHU4CqQJKpOKO3wLulEm7PmiMKROngO7WpBJ4tAZHoDIAHIisiJOcE0CTvTVeIhjPvImkFXyd3U7g2pDaJjHcttkQ4W3ls8XkqR0DVJuE1Z7LS0kuJx5WznWPpMOXFVAWVmWOCeLuRs8NHtWf4r5+psqx2kkP8QljJck1ERuJuYuNrb4fVITp+Ix31JFLEpoZTkI70SibJ4H1uh6BQcYkIXNDoCNmGdwrFgKkA2M9y6yfxn5Cvp2DPFBuwbgFVNL3ltgYBLT9iZQnwG70rTY1NdaRCslBAjlVui43bbapak++owxd4kmydXozPkQwJBrZM03H9azikHG0IQiPze5vJgCvBt22qlw7HpE+4gv9nRJ20mGDn/TcB0ToL104CbsxpBOhiMwBQkcR1G4MBzwJbgJnysTupK6/7lmvCDvHbImy02GTGZ1gNoAQsPkz+Xyafkw4IQ5ORHhKio6Z2izRKYTtc/TvFIgbfN+0EZbrp4hsOgDuwU/CUT+yJ9+EQ918bY7kuMVVijvZ0onLN1Q4hq8ldphNdvUE47LLvhNWO58didAfmoLkxNAdiXVjuEKbwJ6A+Wof/nwiwmmMWxsyyFNGTmQ+2UEgrv44XWHi6cCYADiNV8+k6dImELvqiUQ44XRTHXZ2dH/RB5P8SS7ZuOwhkqp+0hpzR0D0n+RRX91xHhJnt/wzxe/ke+rmxYMqQU9oIsNUSXe+V99pvd6f2froigilxBTsSdmOCJmhpoB6ev+mYkjg9YrOK9jN2ukT2zHr6vcERl3bOn1DhKmKrWsdOE++qWdUKaiPri+3U4cbTY1r/a0jHAUZf56w6WOlpOXYZwBv7c/KTsm0q+hOZJhs5QTkWK1nfJPiJLfr64m5s70vJ/GdjNSfRChZO593MZR8cMNR1e8jItwS0lT9KIP4rtO2/6mdj38LVDnmhghPMp0I2QHsTldGd1upqmOwp3FSNZkqwqnK3drQ7eCfApmqEmFDMvq4qggnIpzIsCNelz9VLOrbfTcl3i4uuue6oE79UB/KrLYkpC3JJvxPdvOTFuxD9xhf9ftE0LSD8EEiTUQ5+ULPXBMh2ZyVyOREkp476FMQocbjlGxzzio5+AkRdsQ2ZVBVSg4KEWGqpPxaCpxEhAxkgXJa93xKhHxx6aYqpP/StIpEKN34M+nRya7qJdmNGO+SnAeopr3deFtspPG6JNdVs8K/EoqIcPJzItS6xvFpb8rKKpQ2qN/9yJXrk7B8sqN20U+JtUsklPmaCPWwwNMFIYOMoObnN3VdTroJso1yPHdVfZMIJ+J2xzow6nk5gdMagaWrKBIRcqetOw8mWyV7pyrxabaXTskXiYRPFbADTTYnuZxALhtrU4E+4PsIvY8pabjMJEJWGsJw2un0CtGTuyfPT5HsUwVE3RQjPNxccnTHWxKZuh7J326LFDssoJgIvO0Nxsgf4pBk503ieUSEBMuGCEtZBbsToSoFfhXoJrg6IuOzJyI8jeGOShVh9c0XsyaC25KRbFPjMug9uFhp8N4JrLfJhQkukflNf+4Lt0fqyyuOVF1Vm4kIT/hIxKkExqRNf5w2M0SYiYS6hLrB+LbNFAv0qZKEZE4Vryq6RIwnIpQNO9x3ZEh/PEkYivPq31/K4Mki+aquPSbCSVkOKOPXYBRUGb/Wj2qtZ2sEVoMJBLpGIkyVVge0LRHWO/GKwOtb+J7+kw0UgE6EBM9EhKdMu5GPGTYFSAeiTd9P2nSZfEOEp/E6IiQZqmqiPzrC6ZJSIsaukjyR6Db5TP5XHGpa3JFhR4ROdIkDGJudDzhd99nBVle3V/VZPCJ+6ZJsx1sjEZ4US/cSeBXsJexbEuGUbV8hwtOUTYD4vd/7vXdE+POf//xJnL97htVgqgg9i6oCF1jrvq8nMgs+mWpsE9JjpYcHiSGRD/1RNlNFyNe6Ue+pSvL+PLAkg9aelCQ8QdxU45JJfZGIGEvdstMr9maSS4necbUpdLxNl7iS3CTDus914Jt+3G96WUiHYfqRvlsRYcqgDFCChesPvF4D1f/0PkJVitsATJlPxOAA9/WRJxknZeuS4Vvf+tY7Iqxv4bv554Gu10mRCFNW9uA+VQBPg2kikBs9n7R1nTZTYxEKK5ZkK05vWZmRmDy42U5YIhlykX5TDUlG+jfFkiezJ7ZMz0hXrouWLL7Z4PF0whrtnoqThCkSs5OwigPJdeIF73vCPfUn+Y5E6Mb0rEZQUDmxvIxU97qp8S0ROjGdqjeCc0OCExEQtDU1rqnTUyKUvfj5UZ/CT8F1Sgq6t00wCdAbm71VkKbx5Q+vvGp9tvTSCw4SsXk1nIK7+lfyJqHyWVbfHuhpoyoVDuybJOdY9rVI4k3E8Kq9Sfz6fdpInIgw8UTSORUVaidfpGJqg2HaSn0m/Epn+vgRESbW17W0I8WAT1PjeuZ2s4RBcwrWidhuQUVjP60ImRzkfMlRDvdd6I2MBGrZw8G06SOB9FdFhKyYErE4ETKYZF9/LvXD5O3BnqZrLtfGPqdklu4RsyQtJ/Zbn3YkVGNsiOZmvCmBp75UCaqqk0+36/tbIkxjj0ToROIB51nc2VbAkZJp17ie8SMSk9FvAfJWhPgqEUoO9kPH86hGCtwt6Z+IcBOYbv8p4N/avpOeeg8gk8YkY8JUqo6Eaa+SWOF05OH+naqiCee6P9l3ur8dp0siN89vi5TEHeIJL7b87TqdL29xq/YjEXrHiRhJjgKW1hxIhCI8TmM4p7/JSk6EkvNJMExO9gwtB3Jq3AExPetTtM6pPh28ydwCFKsaAi/15RmVVdapGknJcbLpq/e1rtpVz68Sg2M6EQTxyvYkL9nwNqn5eKfk9aot+fzky2TX7tomJn28+lufQuLzU1VI+/g64QYL10TYGV2DqRLxRWQJ9OBcaAAAIABJREFU5+BhQN6SmMiQz237YOaentFxA06L6vnb4zMnME/Ooq4uL+VTAFV7bTQkmyspefZmgumC+JSNJ1uegrYLQrdb/c1PFEjOLSFMwe7EIJtQjtIz2dWTlycQ9VW+ufmk002V5fLf+OQJ4U5EePKPJxDFmM4X69npi7RoH+pf/Xl8JJy8GRGqc7IxK4qUHUiaGzCTvBiwBGRXbaWMPQWOANQRYX3MqxxUX0i1/XcivO6eB4+PpeecqHWUwD/QLx/5505ZvZMEN4E0EfnGPl0QJiLsNks8IJLsHRY4U+Hvkt11TBV7wp+3S7jf2Hhjw7dok+xzko/tEw62z5IDlMjrp89q5OOuyiZPkJeUlJI8HxBhvZhVu3BPDepEOGWDdDyiG7sjQldwk6E2+k1EWG9AKXvVkaC3IIKT3prqdlNBVh4izkSE1Y+OgeiLj0g0TDAkw429PlWbiQhTQHjipX9OSfEpIXVkkKp318erxlfs2BUI2z5vSZBJgnoxKd/a1OM8VdWpsPIYpDyFed33o0LV1wdE+OWXX74L7FTe3xiSipycLKc9AQId3hnK9djq4JmJRpdx6ye/N2NT0d6Mz7bSVUnDKxTpySqGtmXFXA7XGow+EfMKMTxNADfPJSLkZkkXaKkymHwwBa0TaqocWbF0ROg+O2Fukpl4qN9VcXZTb19Dc6xRp67qko6JtIS3Gx+7DLLHCZunZOc24450OqHyARH+9Kc/fX/guVPCQUmn0zjp8GrX9gkRduC4MZwDyPtUVpMtmOVIhJ+6IpTdbsg2+UmZr0ik7hcRUqeUZacgfAL22wSYiJCfIDhhtSMqD7REgKlfJ9cTCSd/eQKnfT2R8fkNQTNRErNOMpUItUZ5WqdM+muZyImQsf0qERLvHMftKez6bMjbSQ99qKPa+/nTIxGmwEigdOPUc2XgLhhJQJ3DTkQ3ld2JDP1aMt4U9E6EWqdK78Sb+vpV3S+HOxF6oEz2/apk70inrt8Soet40mEiHU+g2/Ye1InopDOPkVT/Pp2bChKPsfpbxUn1rVlBxamOrjFGTjqxXf1efflM8sYmp1jXPVW5spnP9mSjjnN0vfrRy1L4VQkfrRFOGcIz2FSBTQa9JUJ3cHfkxuXyTOyG1P20fkAZ1W/9PL19hhnyVeJIJP60z4kIHXi0UwLfWwA+EQsBnZKvjs9s17QnnKakv7VxqpxOz3b+ZD8KfLb1A95eQXafcknHSYT3+qlCxglxE7ulp59OYN8iqK0tu4QlOWkj3yRNCZztJZeWh1QZlt6lw/svePcvb9pm0Q4IU5CQfBgM03PetsuOlF/AYnb1zEbCk1HZt1eEVVmVEZ8EI0G80Zeybtp3wBMR1v3a7e76or2cJNwmT0CenkmE14Fb1bg2fLr+aOeNnE9sm/C3GcvbCH8kEhFN/SRRpUSuayed/V6NJWLQRxZFMBsiTEWCioC6l3Z8N7ZJicvJsOTj/2TPDheFn8K4vrO9fv/888+/9vUf/ehHv3jyLXZyWlc5bIzJNYUSfAtGZ3t/jsb0rMgAk+M4dgLTLRE60ZJQUoBPANlWHqd2An2Nld7cQhBP8giEU7su4Dvgdn6kT07vI0xJNQVWJ/cWf8QNsbP1Uze+YkqVmmTnbMWJULLQJ4zNTie1KXtKhyKHzRlHEZPil9PX6osfqrjByMlXIm4WNB6XJ/+pLeNAJzF+8IMf9ER4AqUL3BHT5ARurGyJ8CYLy9nqO2VFAcnLbQKMwK8+a3qmLJraSUa3kwByo8MpaG4CVwvG1d/pJZZ+DMp1OGXiE+jli25Jo8vgxIXWeaoPVYSTDTwppfZd8pv0SZh9SobEjPrgETMFsifyLm6o9xSHPFFQs4W0TDSRt8hxcwC6S4S6Tn/wd2JIdmDyOBEw7Vczuoph2e7P/uzPzhVhyj4T8EgakwO6tY3J6Mo6qQK4yUAuKwnKsyqBeiJC9umyeMBtbMk+PFh8KjNVhLrfAd0X6mWD+kmQTWTWJcatb04J7PaTJfRj5w+38cYvna2fEmHJwCQkYvEpJtcQS870dRFOlid9UqJIRdDpGivCE4l2yTAlW48j6sTfdT5W8tVP2cz7FfHV9ZoiFyHWv+9+97uZCKfs3FU0myy0IcqbTLytrjYAdSJkRiYJ+YHltwiKjXwdODaBOx0sVSB6YPBs2tMpz0SA7sMNEZ4q0xQAXeV0qk5OiZzPecGw8ccpxjzBe/XjSVq6ySbC0hZTKdkq4Zy+l2dbnYrgKWcaU9dOBRh1U7JgbKpISoTMqlBr5kWG3/nOd54RoQIyZYmkzBQIW+JjgHBaPQHP1wm78ZwIZfRUnivzvKIbAf/UbluwE4xdRcc2LtuJeF61gSfQiQgFdsmUyKyrBkiIWou7xfGp71dtkXRRAKcdZbXn2t4UD5OMpZ+OWvmmYPJVN1638Zbad1Uhk78TpHDiP1kV8hkSYT1TZFifEntcEU5Essm+m0qOmU8G0TVlqsnpzBodeZHoukyv61tSTYA+2WVLaBsQJ5tIbpJgqsQme07je6Zn1bCtsKoPkhT9s5kak9A9AaTq7cb/DMwOK55QnyS5RLYnImS1frLzxr81tg5fay3cbdSRmfxNcuqmy6nySzbtuIJj+JJB9Z2SA+NMa87tGmEC+y1xJcA5iCaHsTLwCmWz1a/xNC1kJUEdffe6Ay6JeQMoykwHbJ/17Lshoc5Pqfp50v9Jho7MEwl3icITDoPI8dBVhCQ/D0hPBOpDtqD9Jnw66SfbsArZ+I8x4kszToRe7XSJPsk5EVtX9SZ8OY483jy+Oht7P1vOkV1YpGzeY1h2uX77zEmoUwZMVYfA6ZniFJjumI5oHWzaAKjnOZ6DnJWLwJg2c/jJhhTMIgOXb0OECQjJJicinaZ7DEz325agZZ9Ne9qfVbw/6/5NFaEqRU9U3pcToZ7jxkPnp031lgg/EUf1tbHRKSl4hVX447lC2ffmTe+UVXj2pLKN6Y683I5MYrT9VBVubFj96RMz5eP0gpLOD4+IcHJqCtqOCLtszj5oPAdLR6IpwEpZGVT3T0SYiFrXau2kjm4kkuyI3G0w2ZFVkQcsM3nqp0tYifTUt3RLNumqmG6clIjK/qpuuilcIpJEVr7wzkBRHx50Im4SCPt2zHXY9MpqE8SnKvBUcXZE4nK7jZLNTkSbsLmZPRA7yQen5ER5aOunyaSeYzXoFegp3q6J8ORQGYVlvbefSvFUvle/IjE3nh/87AKTFUnJ0E2pKZ8M669sr+t1ALUOJHe7abRFCpwtCaqKIbA3z07js5p7CyKcMnbZX0RYbfk5z0mf5NNEhB6IIkIPEI2tqVRaL/WEecK97m3wn/o56Z90d8JmG0+QN32zX1Wgya8JWzcJsbOlyPApESpWqPOELclyJMKtcgSCDOfOegIsEqpA60SYFmCTo9Iiqmdyz0onIqyXstbbW7r3A3bO7giqs2HJdKp+NgF6qgQIeJKjnpmAtMUIibCeERn52l/yiY8hgksy+vPyofrwabEq1I6gTtUek1OSceObyb5TH4yLVMHKvz6Ok16Hka18Wxy473xcngK5TRqe3DcYlg9HIuwMuMk0Ij9VY34oNGXSyfEyOIE9PXMzjldHJbtXhHWtttudCLdgOJFkch6JcJNQJrLl9IFEKJB2x2qSbNNYsgkr8romAkzrdUyAKZBFbm6LhMkuIUtXTf+SXVNilGzEX6pkTsTjydzxOdmUzxNz1DUlNelI+yZZSFaJXBN+tzJ7307IrGhPcd3xD+WYZKLtRiKU8Qic7kCtO0XCakqkKqBz5ElxjZ8M59OBE9HcZDgSA8eo65wav0KAJN5pOkIg35C724NTQidC7lCmgPHAmMBGOelD2bN+prOgJ1LuiNDt41ihHUTMnhQkl1eqvjRDIlRbyZzIw0lqi8MpJlxnJk0dMaI86WREl2xIplPho4QyJdHqkzYXfqYk5nY4FWgTJtP99RqhgzgFBJXiYA62k3NPJCYwEVRu+G4qsB2TxKRnaHTZQe9g2zh+O/ZTcrslYidCjkudPXiTPba6pb4SIOU/Ek0ag5g6EeCGSBKuNAugv1Nf+kxtyS1yrXabYsH7S/ZIZH4KdC4B0S4keE8kHYbdZ/V3antL8rS3V93coGGSTrZP1eNE2KmYqGvXRJiMq8zRgfc2UE9k6EHrawpddkuA6rLQZEwBSdM6AdOnWRuS6MB/UzHc2rcjwo289DWruu2zbJfIcUOE9Zw+8eC7zy5TR+ZO+CmYKYsqQm/HlwskIkzJo/PtieBO99ymicBEOCRsEVtaZ08k3RGh2gpXm3VzYlbJRj/FMaciw4uTjuAS3pL910SoAOgGpBI329ZbB3cKJQA7MdTf/hnbpMemmnRndYEt4J2yZUdgtza5JeBuapyCNhGcbHBDhB3puf22RFhfparAlK3TkRyCPgXAJuF4oFIXVo4iwurTyWWSQ/HlVU739zbx0FeyLQnbZeV4bhvq3ZGJ+2SSk7YVjjVOt6fQyXWbYKhPjb16MeukUBcwG6Bt+iY5aFpUhiIJnPohESpwWF0KEJMsCVgiVZIkr7HPdFQjgX0iQ3ciMz71SoTvmTvJvfVbR+ZdgiDIU9VBImRQeX/f+ta33hNhl6R9Q6abrk4+97ETIZRNeU7VN9hSYjwRzSST7LRNXsREOk/Lfk6EQlwm0mSSJfYSnuua2nN8Xa/+T2/NnmJkigPivn5/MyI8VT+dY7fKUCkGU6o0OJYA40TINiLT7csoFaBJ30QMp2sOFpfdg5BZvfqtqVlnw46kfM2WWVnyeDBsgnZTTZwIlvZUMCSf1L0iQm7spMqGZCEimsjwROwJayRunxoz6bnfth/9SgnFE+eWDOXnRKK8NyVB2uG0Zsh+3K4aT+8DdNyx/fassBNfKgI8ienvkqN9Masy7WSYlNmTECmzenU2ZULP/h04T1mcfSgjlRzbl0mKeNyoSfYEANmmc8rJgQy8andaR9kSYfXDRXavLk8VggdhIuUTuSTskJg7IqypsT4WptetbzaupMstpqcgk45dUtHsxZdoUiW/iYFNm5MvqM8pgaXEvMH9KRZ4j4fs6RsSs0+Rt8nU23FH3Um65DgSYWfwU4BvCPQmA52cTmefHOTtCFxmo6cB8hZ2muSXDl7pcKeNcpyuewZ2IiQZP01WJ31OFSZ942ttulebJdJPn69NvkuJ0sl7QyqJsE/jJd0Z9I45VbRPZLl9prNJV2m+FRn6uDWeqmgnqa4iPCVlxUXXhkWPFyNvRoQedCkbpSrtSZB5PxMQNhnkLQhwkym76mh6lonD9eUU0YkwVY0+NVbi0hiJKLopUFdNCOA+PUx9p8Ak6bu/b6riCSuv+t1xnhKz5FU1mNpU5cvd1gkP8hntOcXcFCe6r7FTIu3I8saOHgNaX01EuXm/YhdTKXmlOKpr5Zvvf//7uxezdoZm51uD6JnNdGZy4FNymfrdVqIkEq+kbsY4OTTdkz+65/SVl36cIREhA4sVp65vTgIQHyn7psqCwedB1lWNLt8Wc9RxEzw3/arvKelyHZHPlH3LT5KrfvoaaApsr2xuZU74VGwKP5qa+nTSfbcZm3bn7yJDkS/H3PS7jTPZ3xP4R0S4OVPUGW87NSGQ30pJBzaziwBFktoaLlUUSX5WU9IpAWcKlFQxPZVV36myJcKJ+E9E1hHa1r9dJeX2r3bp7OiNjcouNbUu8Osb2za4v5m9TMlZVYiwmV6ppT5UFXnRsKkab+xCHwrPTJq+E96RcCqYkn8Zj14NvhqrXdKo674uWXqVnsev8+zIjYwqJTuCODljGyiTQzsi9Gp1O14CWcpmHqhdsGwq4E2VMtlBVYbey+ZTrrovcPtRHo5/Smryc2fLJ3psiJAV3S1pS1bp7rio4FCAEM8kSFUpTHqnkwbJDsSVyyD9OIUWIZT8vtP8KciDuul36jEljBMm3B7bWEzJcEpKp/hVEqo+FANHItwGXcoAJMrUD0nzLdj/RITTFOOUPVLWctkZoCcinPR8QiDJttVPvRSC1U5XWel62izxClC6PalEtrpt+tb0ye3pJCP5T3LrGU2Z6m+fvno/9Le/TixVbWlm0PnNSZDtlNRSbD0hlU4G2URE2FWFXVyf+r2NxVNsbmZX3oa6se+PiJCMnwguCVbtfLqSgn7KkDfOTLJ5VUGQC6Ac41T1SH7vcwq+KVNtKhkC/cYmJLU6XlLfTZuOBCU/dAvW6pMBfyKrzi+noJlsfBsMLkMnb0fOqhi4o8ldzZQgtMbHc4q3gcpxKbMwx5eWUMcnGOlwKPIT2XOt14+xuB28IEh+44sg3mJ/4BRPHSEztmXndtf4BBLPSClDiRw3gm4INxk1EYb66qqDVCV4xlYfnAISID6lTKS/0bsLcE7j9PsUVLxf4K0Dx0WE6QvQk281NexIRF8Gf0PS7osU3Kyuae9Nwphs3NlswhvvK0Hos82uA/FEwuIr87d6iUh8il5jcolDWJymqZN9JjJkZVxjlU76d+IHxk/CuJ79VRIhSbv0rKWkD768KZ3bSoBihmQVNBHGCYRPMluqJsj4KWudACADeWVX40jn9KHyKbhOY5IMGFhu400VwAzH6iQBmP2JCDtydiLcBJlk6ZKT5GNQedsOeyesnAiQSYtjeTLsqokKGH2zW+c39SXyIIEQXydMsEKv/vy7SJ7ibeM3yVhj8OQBTw7QZ25vJosnMb2V8Uk7yiYbVz/1+3si/OKLLz54CenJaZ2yJyOQJN1AXhk8UbID740zukzHbfe0C8t1FJHozbhd5nTAs89T/906WpfRExFy7CeB6P4mNur3jgi75OXE2vm7rnfVBmVg0mFfqQ3tJr1USZymzZpO+vrelIwVe1xT07UnldQTcnL/caYibHjB0OHrSTx3sUi5lNgSGXcEzWJBU//6+Sd/8ie/PEeYiLCrELqMMBGhArQjQgbfWxCJg/3pdEkGq/784Ksyp5yyXSeawJEC7ESEXll59XP6m9nRiaDGTDuWU+WlwE3jOoA78vFKrQsOjuVEOCXgDuPJP5JHfWoa658acSxIJq61Tv7XGCoSpHuakZz6ekKCJLTOBx0JJb+fiH/CEW3ufu4I2XHiSbj6YdVd/vvjP/7j/yFCL+MTSDwza6PEQZJ20EiEibFPFdDWwJLP1zg8e7mBpworOb7GIolwWtSNtwGtg0+663qX7SSj2zEFA9uIdOlbJhHfbPL+qZOD7pStFeRuE11PQZj8VNe8KlefTGJdNZXsnWRKvpP/uc5a7bi5IRnqmjawTjvMHsinGcmGUJmMpvavkuC2f2GaZDbFhidM+TwtA1GP7ncmsg+I0A9NduQgx9b95NASeEuEp6BKRLypFEVQacp6ymQe0B1ZSmYnQvZNInRSTA5/NXNPYO/IkIR3svfWT2yXCDkBf6M7K6QkM31NW+g5XSN2u+SWEo4HodtbhMiXxnob9VGxoXXXzv5uR+mRyHwTE7cE1SVj6pTaMGZOckk/foLlhGH6sdqx0KlxeCi9S2yepOWzkuG73/3us4/YedYi63ZEyGe6ivC0BnITjA5cH+9UqSRCSE6Sc3T+y0EtAkwJI5FuZ9MJxKfnOpvpGd7vgHtj99ugnPzEpJPk0HhdRegkywqR5OKJy59LRChM+D1tqui4SH31q6rculb3K3CLDFV8pKSRKmL1qYqq2kwzuQk/28R8srHbcjtmt+zUySRb+yu8tB6b4torQvUhMq2ff/qnf7ojQgrGkpRB6OBxZbo1Qjl1qmq2xmV/ApiDakuEiWQIWs9UHcFMBO+6bQiFY9XzXXXulQ+f04s6SeIkcAVwsv00Y9gc8ZD9NI5Xzyci5PinqbFso6BLduPmTcIMMUWcJsKUTqo4eAaP01yNoymzB2xXLDh5bDdQNgntlJgc64kTlPQ3+JVNOeYmTqq9KkmOR6wm3HIc6lL2XL90wZUWYG+IMJHKpyDBVG1NJNqBROSdwC9nn4jRSaiTw53khHDK2pKxI0LJ6clAgeq6C1wkss53Lle1U4WcPoI2ZexObw9QT5opCRPs1a9X7sKeHzxnwk79nsZ2nHAKRxuWPL7E5InD/UWiJFnfkM6p2DiRoI+t8UnKTkpTzKU+p+TJJOMJ25NVwqYnm/q7dLh6H2EylJNAZ2gPJD7XZfOtIV9tJ+NuK6pk4C0Y5ayOEDzwumAgCU9EmLKsCEu2d53qme2asSdJEQ4roZQQHE8M7hOI/d7J9sSWPoOt51U1OBHyExAkU+7Ydn5h3/J19SFCrN+5nsV7/pG9hOukq2RkEukIvEv4Ewl28crk0k1Pp/iU/Bty9+QmH27kTyRY11av4eIAJAwHgpelVJ7PJeJ0knyVVCbD+32B1CsYkYUH9G3/J+KUPehg2sjt7GDhc9uNKwWoEwPl9KMeKYDcbwKVptvM2CJCysjnU18nDPHeCS/Er/RlEpFvdfpBVTLX7mRj7gS7bB1p0W7aWfaqVzjT18TW2uG0w+1xWXJ7NdXhKMnqvtjGIKvazSymi52UEDZxJt/Qb1zmIC85EUrH9iN2k7DJ4AI6ByPgTvc3Cn+qNjKkXsvkxPONb3zj3aJ2B0w9/xQETgBOiF2ASR4GRKoy635XEZIInejSm2s2we9n6jg2E8qJBBPpirwTsLsqyclStuXPelak50sF3m/3tpmkSyJqtauf2l0WbjR2PVd2qipVH5GkjxVHiQh1L9ljWkf0MTxeT/E3JbFNISD/OqF3WKj23OxgO81mTpihTCsiTIH6hNROCr01ySXgnMhdBksV1YkIGVAdYU0EmUCUQCkZZUcnwkSCytZpVzGRgsaonyci7OQjOJNeaeqUiHzCyjZoUzsnLdmtfoqM0qYeCVO2S749kRYLg2rHzxXX375myHOHwlfyM0kkyTRhkH5PBP5KfJ7w3SWwtNTjdqX9mByka0paHW6rIBg3SwhKB9GnzBpvYfyuD69UOz1KXx11cJIUaLs1NmX2zeIvgXgCrQfgKRNzd7L7fLTsQ4Cwz1MVvEks6ot9SpatD7og9fG7qVwH/i4IPbnp+dPyyMkPrGBdZ5EfD2Ozr2qvL6ciYXe2T1gUnk7k/dZE6PbwxJaSH7HIdd008yHxM3Z9ScZxn8i0nl+tEaZgSc51Y/oU860zDfs7Zf4EGhpXTjoFxukewedy+IbDiTy8Gujs1VU03jcPqspf9NvJHxvySG1SoDsuZHtv2xGZnvdgeiVRnp6ljUQeCjbK7NWd2mit0ZNrZy8lLL3MgXgSiendkvqb/kxx4PdJ7uwjxXaXYDb2Z+I7EfdEhEoQJYtmM4lcXXeeLax7XNPtSPCaCN1Ak2BOhDTkCfS3AO+Ctstydd2JkNfS+D6GBwGBRrv4Z3RPRKjdN1aEDvxtMikZag1Ka01Onl51JN960G8CoUuaDtiUJB0THM+rmZPPb/GTAt+xTb0oi2OsdBARJn3cf67j7/zO73xwxEf9CQeaKvtzKanQRiQWYZ2VYiLOhInTOqOTW2fDLUYUD9rRP/Un/fx4FJd3OiKs6/Xc9773vf5ANRneCUQKbUCdAPMqYLfPUwcBaFpfO/WdCMFBlwjrRP48a+ZgE0gVgJxqn/rUEZA0pVf1qb5Ivlu73rTrAle4qPteSSXyppyfigxPhCy7uT6lRz1XgZfknjYqSA6VwPiqL/Wr2UW38ZXkLll8p1xjcUNB8ify2yZf6uDE7P3Lfk6ennBUHXebVNU+bZh4AklYIS+MRCjBGDgpg05B4eBIRnvLKjHJkzKWHNJl7ycy0cB8vutLBOcL9J5g0gLySb4ug/I8WyJCZddTdTP5+yaRkOC75zpdPhUZJjmYkEjgCnLaywOabTrSYayVj/QxverXv8S+Kz5S1ZMOkUsGbl6lGJXOk8xdvFGetBEpO6ZELFwoSWoMx7zwzMSfkj994IVLS4QSQg87EG+JoyPCJ6SastYTh1FHGq7LUjfBf9OHiIdg67J7AswtWScidJAUMBQkrH42Nuiy7wnsThQc52TLr4oIE/F4wpN+vE5CZCCzbfKfMCEy1OeSu403t4P6ZLVE0jkRIW1/i62UAHSti7HTeIzRExlLTyZ2Eik3X1i1y24fEGG9j5ALk+roFHwJDBOInY27qmkbgKm/jQM7/RJBejC6bF1AnqpA3dsQYcqcKblsEgKnd1wioKw6y9Wtd3lQpYD3oFDF5PiQvbsgZ6VMu39VJOjFgAekFwl1P+3e0s+btWPZpabK1Z/WB7tpdjryI1mY/ORnJbonRUDSOZGg45+YTzzRTfuFR6/Ku0JN8lFvteVOMtu9Pz7z5ZdffvBlP3IEDeykJedOIGY2dKbm/N8zb6qMTuRSfXdAOTmvC04ZLREhncCEwGzbPef2kI153Z3sulEfBZ6IS4TRVRudviQ4BQoB7kDuZgbef0esKenwWZKKxiLZu70SOU5J8RVCPVVz7gPivp6bDmfT/3WWtZ5P5wpTEvI4qmd1ZlGxmvzr9nRfCB+8njCQYi3Zw/s/xXZKSIlMPS680GBCjkRYFeGJRLyD+ruMW07613/913eLxf7PDSJjCBRcv+BW9wTe5KDTNR5NYTDX74l8tcDsJ/vVNmV8XZOOvu3fyafA3pCWk4CeqapBwcXkdFqkpy9OttskIyYCEpYCh+ubGlf3TqTtROhEPOHAfb0J7BtbMHFQHz8B4DYUGdEWTjKOy8Jk9atPOSW8ePVM8hAZJgLcbuZQxlOMMrE7Nhhz5IdtoZLIWNd4jlBFAWNVv/sHDOr6+5cuiAjpHM6tk/NEhPWNaU4qE0hZDbBimMh06jc9T3KYiJDBl8roVJEw63RE+Fbk7oAp23GhWID37xnx7Jn0OGX6ye6srNS3B4FPtf2ZNEaqlhOJd/pMdqcMk45TBUN9U/IVMXFJQn0m0qZswpg+CppmYa6Lk6kT76RPIr6pDyeq5ONOV/adEvCEF1W94iK9V3VSAAAgAElEQVQmZS4JqWiQ/h99xO4E4LSepDn46eMsp0rHFevaTmCmQ1mZMUvX75QzVSIkZ4HWq5DJQer3NstudfQs6lMeEbkqbA8O1zsRwa0fUnB0tjwF66ZiI+FpDK9Ct7bsqguS00SUna2oP5cuWFBonI1NapzqRxsoVXxsyFA49kToOp7ilH1siDCR4VQoTSQne9bPFFuyj3+6hHp5YUci/Pzzz//nHKETYTXkTkwHnGREZvITeZyqQY23BTaNRSDKed3bQwhIn8Z5xvZgdWKa2qfn2UcCbgfiul5LE/KTKi76zZ9NCWCS2eVLOLjxEf16eq4jafpZ1TCrACfGRLAdCbEtSffUR6eD5FQ1ckpOJHWShstQ7b75zW+++97q0/m6DbmedKKPt76d+tveT3irZ7sqm/2qjeJItqQ9nEgLQz/84Q8/PFDNB1LQ6Bqdm4I7gYgGJUgS2bISe8URNY5ngi6rqW2N59MX6kPZknPVdiN3jcm37XLsDjj00e/+7u++Xx8UEUp2J4T06RWO4VNXJzzqva3G3NaS/UTIE0kp+2tG4sBOpDiR4eTTp0SofrspPm3slWOKq20S6Xy3JaNfVTtPCJ7IT7wjnbvCoovHj4iwKzk9O9RAmpLV9zEkYX0K4EDbEt2JtBI5JQd2GWZqy7F9g4RZ+5XsWWNos4MJ4VRlUO6qDrSbqKzpH0siQJyA0jiJFLokRts6AaWKzm0+VVPK7PqpPkWCdT1NEVkRkFin5ER9NvJTPpLUKYlVv6zeHT+TjIkgu2e4gTKRm0joZlln6tO5YaNbF6+eRE9jOy5PbWNF6JmEHUgJ7aqWwdIbHkggqTqiQh1g07hJGZ8abRzjAE+k7M4QSLr+vfrayqGKUHZQUJ928BnYVRHqS4CUoLTb7SBkZZzkdZI8AZJERB860Pm3V5SeTE6EnYiQB7+laxrvRIQ3STIRUPLzFOzEH39P9kj9O35P1bX33/W3LSocU54ITgnA752S4LYQ6Hjixq8tEU5kWB8OL0G7ncmUSd3QJBYBoMvAN1XDxjEijHSUwCsfyt0BmEG4BTNt7NWmJweXSc+qKuer5lVtTAGU+vRxmdAcE06EPh0/EZN8PxFhmvJKDo1ffaSxE2ZScLiOmwRGYn1ChLQlMbWpxLoYOeH+hhSc6E6kftOvx85NnKQElPy2kTUR55EI5awUMJqO6WsKT+BJ5DFlzFPm2JBRCkJ3cJF5ye/gSwbWmLrHv2Un3fP1zm1gMTF4hmclpf6KCGqjhK9oot4eMF3G57gkwo40NAbPgArUqcrkuCnIHAuUJ51UoL27QOwIdsLF1lcTEaZg6xLThghvC4SNHqcEkLCTyCjZs+vXYyZhpRsj8YWvuaZE0NnN42skwiRYCVDTsZoS6/xgaucEmnZ8bgnx5AwPipOhq2335ulTlnPSoHNJhFz/2epIpznxpb9reaL8UIfZp08piIymjNmBOBGx3v1GEuxsngDJ3XknyE11wyCcKmr5jfpv/bJN8l27aRzJlhLyyS5Tv07WyYduZ0/4E6E7Xk6xwwTmBHqq3qvPVClPySH5nDYhVh8RYQWfTrh3FWEykJ/vkaBSyKepm6wmRyZCYnWTCDStL1W7dOwn6eNjymFl4K6SScB22boKirpWGxHhv/zLv3wAlFTBnwDdASo9Q519vTFVYSkY5XfZv3uL8Ck4On26ZOJBMVUjXULoMHmy4ZR8nIxI6sSClgK6I2CbcYjvZIMJCz5GstPJdmmNemPTifQTAZ9I3fHziAg/++yzd4FXC/LpuzDE/HQwhWJmIBlqvXGbuZ4EisbmTpr3k445JGclnVgdnRwsgHdVckdmul7PFRHWbrMTYSJ9ArBLEB4Ek30T+DrAMjgcoBPIPXl4otg870mXz2zX5TbjOPGfCNtxTt96P5Q/bVBuZJMPnGg7cks+24xzKmASZqb2KjCetPMEmIqOunY8R5gIQh+pEwlOIOqYmo7V78p0GyI8GWW6V0AoAikdUhXzJLsng59IgYRMG/EZyuZ96dMF1U+3PMFgSuspup/k3FYX28DwoJqeU4LojsUk0p6qOPkoBcOk7yTvhLnpPmUXUXmMVB+aNbk8N/LRDgn/U4V2M9akN4smFk7Ermwz+UiE6TjwIkBjUvcPiFBvn+myWDWuDYYaaDrV7hmtqy6SUzzjnwJ2An9yxOnz0U7cXvUlWVJml1xJPvapgCcISKod8PUWYx2boX05dvLD/+vtXHcsOYog7CdAwoBtEO//ZFheS7aFkOA3SqMYfxMbeekzayxZc7a7uiovkZFZVX3h+B3xbsHQYWS6jnbaQK2K1zeedF0igmu14YR4uU1pC/5EzBcS6NpoGuzx0T2ZkkjkUkHpuk0/Etal7VV3kr2IyftnPEzFhcea2noFvBLhjz/++Osuage2qkKKCMsZabf1orxXBl0WSMb4Ug6YKsKucuKtGp5FaS8GY0fSiQjVJ4HBCoDBWm30jjpVgyQ/ZkY53bNqIviSwW/yVVLaktNGQu73CdAls3yUNmS0S94FvycmtXOy2hKs22wjlqfJYepPeNO6ugiQa89P5GNCdILoqsJXiowLB1CWGsOXh9IsgEtZT/3gG2lJ33cV4adPn34lOAUPg49rUtVme2b3iUHI0E+ve9reje6VFAOaAcXKzQOKazY8NwV7IhaCQjZJ92mW0xQg5QsnGREhbZPaeOC6LabAZn+0zTSVvSQy2U9E6BtsJHYRnOzvmOyqtI0Q5YeS4RWcJwLpZNnIkETYFShbDLg8joXSM/ltS27buOm8j61vs3jST4UQE19H0snOl5hcp8YaXAvz1Sm/s0qyuAC9M15XMVyUeOKQqqRK6W5djRWhE6EHocZNRMhK6iofqzQFYwrE0qHO1znfcb0mFdrVK4tEFB1J1nFVLwKzMOOVGcl/qwhLBpGA91fj6UWljj/5QjeYT5iU3h1xuV1KDq43SfcrQT0lw2qv/0n6lxgiDiRzdwtKSpwTjl6NSRKr9OKHpbQMNN0qw7F9liQbuXyJ0P3YOyKs9xGmwKoBVIVo+kQGvwb6K+2+dFaqACpdaqfV/0sEoDY8pwpIgfJK1TDZgoSYyni9ZEEv6EwyJhKaAiiByNunKvYpEV6ImvqzCtD4Ikn3CQmTQfKRG9xpRwUvfeKYmTYPnxCIJypPBh12p+RDWybMpPMcx/3CxPdqbKfZREpeU+IWpjyhpaqSiYVV8Ge7xu5IAT0xqLJvyqivGMaN/pEKM42v6X3JWxWhj9fp4dVQtfNdTa6tbVUIbXnVkdfo9iWt53qweqBKr8tY7ucpOShwfP3Ug/ZLJ7PkWw9SkaVkEa5TYnECSDhQACXf0UaXuyg2P7xir81Pslk39rYGRwKh/Tt7XuOf/U59uX6J5DTF73St81xqUQVa7Uci1GB63x2fZ62S9vckwkvlcDW22kmPNKVktvfqqMtQTjAdgBlYiUSnaaJn+Lq+KsKyvW9YUQdWT9J/C1JWCan6S/ZmRUggp6rJE8pWgTz1b6qSRIiagnFZhwHjPnL9aU8nQ9drI7pJLwb8k346IqReE862dsKt9/EliPCCgysRSr4kF4lQT2Kp/YkIK/BKEBGIhBKjyogpk16c/sThT4ODoNWLInT/oFeEnkmmzMxzTkCbzlxn2sjJA7TIXIv4rsdEhNs4nS0mXeQ3bkAR1B1BlJxFTNOSwrVSuOBBfSV8chf2gkPK5YnwEtAb5i76eMJS0cDxEzGKzLvE3iUG9e/r5xd7PdHnI21F1IUrXzJSv5y5+OZQS4TMgEUgKju1hsjqMAGAQdkBxMnkKZCuhpMstclQBnDZUxZOwbM5PpXrrlMX4CKHaq9ptj8/XD7Qyy7SB3wmInyauackkCovP7YFW/d4I4PcA7ML9M0vJIqEmcv16oOVYiLWrbJy/RKZbrh233QFiB/fEnYiT9nccfsRO170o47d7MQTbV2jByWY4KSDL2dRjvHJkmpYHdf/ClBVgdsGgRt1C4wUSE+CcTJu9VOVVMngT694kEhOEmEi6DRFuDiYAUWQ1W+uX9T4ToR1rJISH0WkvCSO+s3d3GrX3dqS5P5StmffxMSFAKaAv+Br84f7opOVx6cq1xPqRLBP5U9Fg+Ny85nOb7fLJH1JhClWU4xc7O9tJONE2mrjs5w6rgSrxJ/IPfllJMLqpKbFKokVmOnRNB9wA3qXfRjMm2OvhlYlpfsfuY7QESF3syZAe1+SSfpvenZAUOJhPwLH9Z4vEaH64HWXKkjXJRndN5f+ZGte2113JYqnGJn6TRj2AE9Vfx3jnQQM0A5rV3slfCZMXUm42nFjRNXWlFDdb4kIn+gzxa0ToeIgJak0y+EyDTcwvUjw/ooI3328ScEig2lNShVFne/W2GRUXTvdtrAx9VOAT8Yt49ROa+0U8yURXv0RwGknlGMoq/Ial/kSzHS86yBHKtDKWb7I68TbkRZJjaC9AtgJWdUrfTyRms7Jrk+xMQH5SWWXfOI4YBKa+vZg4tSLBJYS19Xu7EfxJXJWYtRfHRdBJNL2/tjXpYLtcHQtSjYSpH+6hDkl0jrHZZcLj1SbWlt8+67xP/7xj7f7CMupep5VxtIusa+xESxeSU0VE7MtDeyVSFeZXIxf8hSZly713j4RIZ1OY2ksTis9w7sjSBKdTlfC0kaKT4v1nHfp4Av8V2e7bHWdZ80tQBV0/rEpYiSRsR+7BF3yb1eR0b4Mdq+U6hyXe6Z3OabxO1s7KZGcqp/LDd6d3ZLO6p/x5hX/tkG26bJdf4m/J21oQ16XKj8/Tw5yMtX1ngTZR9nxs6/YVYMKvJoW67/qrIKz25GRIJ1xE/ATSDswKGifGFZ61Lpa/Ze+A+vyJiMysDiVSGRKsukCaaqcUrZTxio9/vOf/7w9C66xks19h2+S5UKkul4JIu0gdpUI7ZcAfCHO6boJ4AljdYzLBv76tw1jE4FIVyZSEeGrxJL0q2MVo44XkkYa7+JrEdIkr5L/Zqsn5+WXxCWdLNTXfZ1iW8c8UZW//vrXv77/nGcd1CN1DGy9kZpGcOIgcZI0ukBke7bRGBS4qy5TIGlsvWlG94+lBVYnrwQWB2NHgh8hwg40qs6rkiER0g+c3jlxTzJdkpHkki/80Tf2z6rEceJ23ZLj00RCLE3k6NN0J/CtKpZ9p4Tma4ZPNqouiYFESPlJDJt9t4TcVWJPMPOECMtm6bHKyR8XIvRELNtRthr722+/fU+EIkGtgwnQeusMAd0RYQ3SZSQP2hSoZG5f3L2QTbURoddfPVt8ATkDvyPq1KbTw0kz6T9dS3/Uo4F+fQJDB1bX333J5JUyKisd74vrfomINO3vSCGNJ7t4BieIU8CmZC3daOtrvyk5Tsld/daYXOt9QgwdxiS/v7DACbEjVNom4ZtrnQm7vwcRyl7CiCenhCf3e8JPuq6O6QZ76V/j/uUvf/mNCMtpWkORE6tRkSBff+TG7ATdsvoEME5fJAtBPGW0Old66LYZrq1tYEyVTBdsG1FyLLeZACc9nNB03PVQu7Tx4IG9ZVNOcZ0gnGyqb2Vt71f+4fql+tMYkjetMStxdVWIsnpX6aVxt2Tl2JNudbz68+pW+ky4k5z0qY51CXyKgURatIVsKvvTfk5iHTHWcdpPfuY6tSdM/nvC2BZr9JHrqsTFpOL9dTFDmxMz+i0i1L+rEv3Tn/70GxGKLVmF1W++lj9VFWTy61pIyiw0RkeEJJ/kbB3TJomm9K86zIlR/Twh/+QYAU7nPPgEhNJDT2Lw+WJd3033PWlIXv118ugClcEtUHLqJ+LwDR4nUq1pdZ93IOa6BOo2ZyAIg44PD2Lp6X5lUFbyqb6lk1ezCUtdfxPuNhJUn8SccKHkwR18YSglgU5m97t8zErWj5GcrvGeiJi68DyxyoTvs4kpcTrJMgbJLTXWZ0RYB1RyyxDaJPE30ySATcHk2VJO9kzgCsjoBLh+yzBOqtKjjvtTGHTqNWMlYHmgJ1C7bmpDIhGgSYRyMF9/5vdBEoxb9qesCuruTUMdYN0GHbF2dnEC9nEuROjXUG/p5YRY18i2KXl1RKAKkZW7ZkVb8Dsek023WGHgpuKjjkk29ZWIwXHJWQBjgWRbbaQjyYpVGsd8GkddeyZa6e+kS9tfiJB4kC30Ni3+++uvv/6tIqyL9PZjKa3X8ndrfgz2V6qujggJBBIIjejBzGqQU3onCs+0TxzZEV4i6tSvHOt/eY+g5K2dYt0X1b1k4UlQMkC36zryT6SbfOiBJULqMPKUCL0fr1KZeNOTUBspqmqoZFQ+qPHKZunxxs7Piew2ktwSEc93Org/SGY8J5v5NFi6pyrfifFJ7FzaepGgQqHkdj++QoTVj/STPPXvd2uE1YgfBirHiwgT2NWpBPIguRBj168TC4lD5zw7yGhFIAKtG2uqpC7yTqDnuakvVlOslHyqoG/EdN8mqWuvhCbbbJncg8urgEsl47rrOe+pCt2IkIkxyeDTHbUv+yigLyREAlcfKg7q31ovF65SYuzILNl2I4epUKBNugoxEaf71NdDa0x+4Mxl3OLkIvMWH7RVJSJVqfQl+0j9Mc5kK+eRuq76f9s1rhez1kHdSF2/02Np7kwCYRJmMx6NzelIIrIuGEXkpYN2uVMF4yS7gXE7v1UXT7I8s1StDxZI0w25lwBM48p2AquDNgVrytIMHicP+ofJsiPtC0FtPuBOIMGuW6fqmNYpmbglO3XwqkfEoPU4vYlJy0dPk8uUTNwWT0hFhCHCdj30bz/e4YRY6ez/SsxvOmks+pFVOe2uttNaufohGXKMwvc7IqzOtDhfv7XbOlUJBJIH5ysAp/IEbHIEDaqxVEWld8+9Qh6edbeAnEA1BYBnbr02TEHXAU6VQAeIVBFc5SApd9UME1VKCKz0Oh3kxyfJ0hNnmhpXf5pO+XSIVZGvz3Z412ypzmvtfKpKiLdLLKiN/nJDyxN6spXWNet63zgpezmBkBgTTigHE2eKiVd9N8UTCUz+TXolPOta+plykxSLZL/55pv/rRF6RVhEwm97XEkukVNnJM8MEl4LnKo6rkau6+tVVdsN1E+IIOl9lccB8yQT1pM918V5Lgh7hcPMt+ndyZc2IBhEXUVY/U2v3CLQpyl+IthU6ZNInExUzSV8bm8lkt24bli/tW7LZJAS4RUvJBv3hfeRfMXlARGfX+eFi3zk6291nDMSTzxu3ykhPC0eSFJOwJ2tr4WCk6uSx5///Of/EWF917j+0ycUfXF+K6e3iu1qjBI0TY03MMmhNS3WlP5LVEMfAfZVZyer+nfpkb5iN2VuEh3JiWS+2THJ7ESYgsvJSnjR2s7vVQ0m/6QEJFwn/ZKdqQ9lFzY1zRaBdFOzC4ElHTwBX/ym2GEh4X37bnBHhHVdvayET5SpL1bXaYlE7S4ydzFKH3oC7xJvF2/EL5OllhLe3T5T3zXW4Fpfc0DVvzXVceFeJUI6PGX0rsJxI+txOu3qEZgdqCeiSoHdtU9Z60qCXbXjmwc+BsmT1UHK+MqC071+k26TLRIoGQge0In0L1i62DNhSRhO65waN1VDHC8VAaqYqh0fNkj6PQ1cVi1TtZlsIpJiAkrVu3QXeZLQ1K+IkJ/5ZYLzMTo/XggxxYH3l7DU4Yu2ke+ddFUN1t+3ivCnn376tZ0W54tQnECeOMgFZCB3weMBzfEYXMlAIkI+hqZrEqlMwadxlUk2AunIbAtejdORfZdc/HgiKgFWY9Tfbn1lIkERSfJnCh62n6a7Wvx+EugdIXdBlOxE39ZvrsF2fiQuPZg0fax42f5T//LFZHfJ2dnY5SABk9zS9Z4wpJ8TFl9ozHOSjRsYE9ld7mxwrhGOpji9tiERyvayke4pfCPCn3/++ddd43Jo51Rmxk3AKVhJhPrNjO3l9kbAZHY9feEZ4UnAMZjLUOk+tAREJ/hLJuwA7cBz23tiSEHMwJP+rA42ApSP2Q8DbrPppL8T60YiBD3bpjEuxOjjJ2yn4HQ59UqydGsQyWySyXXw5JXipcONy9cVHY6vFM+KqzpXnMDZYMmoj7hts6/uvI/p9pYdHGdMTClBJ11oU3JO6VR6vN1H+Msvv7zdclKlfpcdvbq6AFgg7oJQ7My+WSVtBKybXrtXKj2ZzpME9XvLyldnXGwlJ7v9aYNEignY1IVrQ1smncbudNh8lBLTRmgpmbodkjwddkniTCQX4pyCi1h1gmLQdsmM8ZGILPnjgiXqy3V34nki+7qmqsJqUzMtElP9ZlUv+6TE1GGzS2JeHKV1zc4fkxwsqGRzPYX2jgirmpo+HE6HPal2tuwvJ4mwmEE6kDGYfeF6ypYXuT17TJUPgdSB6jImQetAqH9P90lNhELwEjwXnzARkDg28tn0ZWK6kuFGbonkJtLuzmkcEljSvSPPS9DT9gxOXtuR5mbblDyI5zrPuzF8fPZfftLtaPUKOCcSJ3An/aeyuuwk7w67bifJ0JEseUNk/q4irKmx3tjrbOvB7g5zELLymzKOrtMCr5Tw6iWxPxndnetE+MRY6ldOn6pBt0vSNRF5R0J+XB/O2hbzHUATCFKgpmPbzqCPcfFzRx4TYT29puvrSrj0P3GX9CWupgBMhJGIm/cNMmB5/WW9jbqmjQIldiZcbXywf1WE9bcqQpeJ2CZe2P8rZEif6/arjgjdr1rX74oXknn91vT/7Ybq2izhRsOmgAdtCoRLcJQiNKIUdkU6INZ9g+U87WxNcjMzJrJN2fRih2rDNU7144CTbqnaSGNPC/EbQUhujXXxlycmgYpBXv2mTZfN18n2G4Ff7JQI5aPVVKp8UkWexpkSBP3vAZySqo7Rd/644IZPPk3T4dKnzcSBXsKSdsY5tm5F0bGnG3NevIh003KZ/JM4gkRIfT05kNRL9rc3VP/www9vH2bqKpYu23pQMgjJ5JfruwDvFlz1rV9tkjB4XA8R7kczViItOodAcvAlPboKjt9iTrZLRHElj6mdQN2RZ8l7+T50AreTAclkC+oOP06GF4Ka+vJgusiVglMVR/316SjtkLCTCF7XVF9b4tH1upG8q5A4jrepMbSrWu1UbBDTJGuNVee5edQlkQsfOJEzSaUXlSR93X9M8NVfkf27R+z0rrjkGFYFiQg8w22gvRiBrN05qZTi1JEk7DKzKqFxJpBciUXGJbDoNFVSGsuBnEhHx55MhzZ5L0lOVUBX3ZAIuyToJMhxPVEyWdJmntGvhOTYmsbrklrCM8eXnSf93f/JniJtb9vFmHB0JULHpcuwJSJNHQsTtXTmPumIUD6t/n1HPWE04VI28aeCOJvz2GV1K12T3dn3uzVCfsXOnetG7xz6CvltgSmBPQvWWKlsdiJKFZjrR6e9ogMJW799bUYA9nUgVgYMWK3ZXIJ/k7nTt7uOROjVlYDX7TyS1NR/V2ElEnEiJD4uCWHS9UIeEyElX2x9pgQ3BSbt58QrAvEkPvl/I9iNCOv6woN/PMyTCwmR5CsifBXHkj/ZORUw1U7jb287UtvS7+1Z4yLCCdwTGW5ktjnKs8zWnuT4CjhFVr+HTnScZye+nbmzma5Pi9cb4V2q7AsgOcWpPv3mZwHwEqieJEj8qXKjTzyIPYkkQkk28KCdbPAkaYiYqOOTvl2uaUq+FSPUO8mVElTS1duJCOvZ93//+99v38xx2elX4odLAq/iNxUaU/GiRJ6+we6FkvT77rvv3n+8icL6DowY1HdSafgrKCgQx7wEaslVynYfm++IdSKfBIAEnqszZSuNqcVj2WqSRXZPO9avJJ2UTS96iIi47uJ60I8bCThOkt8TETrxpp3BJwS26a6+aOsu4aaKOemZ/O4yeyXVJY2uMvb+Nn8oVp3UfBZVcukZ/q4K89mM++xVDDpPMDl2PKQXGqenzNz31V/p9u5znjRAKcKKxkHbZdmnCnfO28Ck816VbNPlj5BbCqCJmJ4AU31rQyc91tcRyUQwW9Bv50kKsvUlWXm/aTfPMeXrWUxoxJvbNS2bvCJjJ/M0JX+K9xSI9H3CE8nnQm4k0FQ1M0krsZHQPbbVvvq97AZPSb4rUiYcenIUL3GzpK5X7OtVgv4dcJEocRyJMC1qssLTxsQTZ2yBxv7pQCe0KUu7oVLAunMmArvIzEzlfXX2STI4oW9E2BH5K6R70fMa6BsZbwlDiddl8gokkeU2Zb7oyTZuy6vNWWFtRJzsJd97NfXR5C0CoF4scnQHwERg6sOLpSe2fQWjdY2WZkR2mvrq7fkk7vo9VYQuQ/27+vvsA+9d1UNDfGkiJBkqM01EWLKksjjJrv46J6eMec1asonW87zCcQBvREjApvVanxJ6Ndzp/wSsKTE9vb5rn4Kfx7qqkXo6EYo0ZDvZfCOiSwXiVShJOZHlRISeUDpbECMf0cGJXSTrCbxwprXrKYGn+En4c71YaV4LBpeRa47Vh0ic74OkvtvUmL4Q0f7tb397/11jL4spVP3mNCQZLlUQNM4lKxDUPi1J65aJgHhsm3J18m1ApFO66VPqYyLnDkhymHzAoCTYvgQZXnzkyWsiFiW1KTE4kXWkItn0V3ZnoPvtFcTwBbOJtJiYL4mhI4lLDG0kveHSrxdOWVmRlHyKmcbviF8+ZRL3Kr5Lrpse7JMYUox00/SaGpeudbvP5u+Srfr++9//3m+WqBFBx6DbFPGsVO1TRlc7krAU326Z8AXmTSZlEwEyje3Hkh6eIBJQ5LDOGX6edvb+ElGw36mydWBvNnLdpkphspXO6Q0tafNHQcKpmsbzv57J6UMRoWxaf7e3BrmeTwguJQuSi2OGscSXmlx9ITtNmOrkF3b4uJrL2m3MUT6SEcdi3HoiVzuf4V1snfwtO9aYHZ6KCGs8vmE/JQfK9hkRejbUwE4cU8dT4DOg2Qe32ROpdIHuhElHaCwn0wTiJ8G/ZRlWLT7FddCwopEMvluyYtoAABC8SURBVOZF59dvZlyOxXOdjsm/F1B2yaALfrb322/cR7Q9qwA+vZJwQ78ywcle3TPaqVqbbLD5+5IMSr7anSw9dGNyRxoiPfmTPiYRTgmKOGPAd+upF0L+CBESJ9tYqQggkTKufYe7+tZXB9Mr+VLyayvCJIiIsAOxZwgPEALcg9eDW+QxBW2d4zQ5kV0KUg+CLiiuzpqChKBNoNex0kPZequAU8DSniTJp8H9hBAT0XaBLT8l0DLo/bd0IXZIOk6ETtbbOvKl0u1IzvUXhjsblg1UqeijaJO9pXPCZ53rEmzXJxOJ671hnURKn6TipOMHtt3Gc9umZQnGluu8EWHq/11FyLUVz9KdAZ4AgtNY/U7X+y5WAlldV8Dq3kE4Od77c8JNBOrGdqBOhFjnOpKo43qeU9/M3Wzq513XDWjb+SeEOAWeVyWygyfNZFsSkPTz9eFEhBwjJYWUXNnvNXmkRDBdKyIsX/tuZ5fcuuTphcPFX0/lTX12a72JK1JS25LFZoeUFBKW9ax8tzTidq3274hQnRJAiSRSJujAnUiFGV4gZNXAJzA644kI/f2J7hRdn4DggbmRGfumo2m3CzGwjQKk+uAbPiQvCdfHoU6yXzk/EanLlUjqElDXNhPxO6Ymu7s/WQlwWeFa5SQ8b4mHpOwYuAS3fKhFfL0FfkpIdU0iHvXVrY9d/TO16wqBhMWUxBRXFz9v8k6+SUmt+tN6cbeZ4mN+RoTcEX4yRUskI8B6FqcQcnb99a/ndYEkAiIgOqB6H/p3d/xVIuyCoUsYJKGSpT6SU9MlvvRCYOLrjbiOyjGZWJwIWY0mEugSGAP+lQpy8p/A6nZL9vJjPk1ywpDcHX5TkKfZyTb17Miiq2q0Rlg490/lTtckbNXYFyJ8ImMieB9bOKvj4opXsPEUWxxXRRrxleJZul947B0R1mu4/NVKIp00eOc8GY+ko98T0TwRXIzPG8AZ8Em2RMhcYJ92NBMYOc33CjplbelHW6hdvUqspku+m6i1Q3d0jefZjqD3xJTsUX3IjgJ2mkpuGZsYubRNFQTJbfOjj1e6+quXXtHDbebJKvXpiWXSv3TUB+KrnV502hFJCn7p3iXeV+yf/DH1vyU4yvgl5XRSdyKUHu63x0T46dOnNyL0wL4q5MAQ0Shwuww1VY3uKPVZfaWXVD4ZwzNcB4ouK7N9Nx1I8vvaVnpuWkSl97ElGeR033FncE0ESRLh+vArRNIRHHWdEqH029Z3piSncwn8F9JK2KljaYoqf3sAJvmEM5Fh6VhEOAVpJ++FiJIvUqGRxuji50KyslWyiXz/kQqykyElMRYjm+zvKsL6wDsD6qnAyajdSyHTdIcg7pytwC1AqXolIEUeJA1miJQ1JiBfQSF5WWGlxxUVULyFIQFUMumcA8wdr0XhjWgcECId2StVxa+SooJedlA/G66YPCUX/TBVUMmXtJX8NMng2GOyVLXjiX0rFDj1rqRXu5r1HOylWtmC+HKeNnUCn2LliZ2qH81gkq//n0ToBQrjKel02ixhp1M2SkTo00d3GoWSs7jGlQizgFRj1VTSCUNA7cjNx5sqiGS8lHmok4hQgeK2q8Vybu54gHdBy4qCgan2IkIS7BYgTCrVVlNtryaTLhuwFBT6Lq6CbSLsJK/ww6WQdGfDpKv7bCMt9xl15cxlwqn3wYqygq6IcHozipNvwvOWUByXGx5EXimO/dquQGDyo3xfggRTgkqk3nHMVNR8RoTTiwxFMk8zcnJIMhIFTYTLwK1g8J1lVk9b1lNfvvmQwEJZWJkx603BpiAoYxcxFIFroVnXSQ4FgOR3AOm85ND1aW13A76TK/VxH3dTTdkmYUKbA9zsqSTgz7VeArqIQ58tUCLRdR1WLv1OiV14J65Y0ctem52VFCgvX2nVJQAtiXisTNVWJ0siVsqj5DDFjZN79UlcaIwqVNKbkzjGxWaJfF3mSz+uE/+t/t4R4ffff98qcBmQmZOk5oAksFSJ+LUp8AqE/JhRB3RmX/ZLIzKAt4BRWxJHRwwMDhpcxFsGV1WkCtjfqUhAVR/TF+w8e3cZcgNQChQBt9O1gvk6JVf/pb/eHFJ3/TOZ+TieGKdK7bKDesUwyZEVvpZ50mchJgIivhxDHZnqvtKuX8fEBcO0Z0dqCSep76mvFH9PksbVT4ztqYBJROj6l8zrDdVPBGPFIgMmI3gAb0TICkhTuC6bs28PJhmlFO+yVqcvN2lU0bncXZ/aLazx61pNsap9EaE7RlWUV6y0qQOhIzsHsuuxBZFsxnbVR+10i8y8TfIvsUFCkC3Sc6GdbF6lTb7ssLbhWiTIsYS9j6ztCctO3sSziLAjnI8SoZOzbOHJuyOwJNdUKCTcbvZ/cp4+9uLH48IxJX98USJUkNXfbRfSiUyGTMZXNejToslYyTjVnk7cSCBlTu+XgdK9TFUL5FzDEwl6UGnBWdVyJ+MGUlV0biP1L/tfNsjcVyJCPiGhNvIjx086SA6u/ylRsP1UTRAzIlQuM2xB4IlMNq+/JEL52CvgLhlvuKzrUgXMRD3dLbARYYotkt1GMlvymIhQYyefP4m3qcr2c171Kc4dO52/Ppsa+7pbV3VMVZPIUEKkbNAFBoHoIK13jFUFsq1jumx0mgLnmtE7siZQGIzpvkZOB+kwPV1ApzEAExGSdN2+Ttop82ksDzIS0AbWksFvcWFFyA0FytT1K8KpZKGKq66rMerfTC6TbDVVr//UXsl400c2J9nJTqoWnAh5/lLtJBwRC7SfxkxrhLLnRoQb0W1EvZFmIkLa5BpfT+Uk/iljIsJNB4792e0z3aL7liHYKadeHUgSU3eCE4zbtPipYVN7r/gcsHK4/krfbnqmx6pENgoKf5yOAcuqqsZJgaL+dP5KhCIe130iQwYyN33cvwknbk/Km9qXfEWKXA/ulggcd+y7iNHx3JGiy+HJU74Wbukf2cY3Dtwfks39nPyrZNMRqLBGXHwE+5OPphhJyfaSeF6RNRUfXF6QrVL8bnH+2RqhKpoEhBRwnUJkbgdNXSNCK6NxcTUZtq73G44TQFJgJzBOmcL7VVtWuZze6jyd4MFSlWwdU7WtHUMuHWxyJnuSCJMfZEvP3vKHEoyuTUsZCVTli/qimd8Hp+AlaSVwXoJXMlZbfUqy5OQtJ55M3QaSveytx9q4HjvJQRwkkqixeA9mxQ1nA35NYUDVrQevE6EnWmKM2CXOPkI+woH6+0hfrxCcx9DGKbQPMdD5yROPx0X1F4nwoyToQa3+VIn4grMHKg0jJ3lwkZQ7A1COjhSujhMRJiDSMTxfclUQaqdYRFiVjl4xzoDjGB0oSV6sMBlMnU4KfJ7XNJY2TLamTzRlS7vdSmqsFCdSmYKO5M/1P1Z6FzJkoOu3E1eyGW2SgocJRfb3QkL91rPk1YfGVUXXYT+Rn8tImbpgT3rJlsSM/JbWV68xknDFeGDMvtKnx7lwlXxD+3XTdPb3GRHyoi+ZGQQakQKzmRtL/+aivoIuAedKhAnYV4dIfic9D0QnG91QrDWd6oe30HB8VRjVhhWz+2Fbg+vsIR1IsgwK6cbzbrOqrErO7o0/rO4T8JUMOYbrl+Qn2Gt8XnNZM06kWvKVPCKlaWqbSId9yo9ptlDnigjl1xpPr46byCH1PyU5x14Xv8QyY02JVf28Gv+pf/aV/L2N5TjckpR0cLLs7BfvI+yIiZ10WX7L8L6A7cHJMRR01WdVUCSh5Cz2xX5Sxuiu3+SXDAxokhzBSNJL2dzl8sfdBMwULF0WnLIjZZ6m5SmYq9+UmBwTrDIcR6rGRGRc59r6SclAwVD9MEFuCU9ykNSdTDUexyXmPSFS1xS0dasRq9oiQp+muw068nZbkMCYzDxeko0VMySMpPsrBYPbTth4lQjd/glfjBXh9fKwwWdPlnhF6NnZMyPZv85tzC7hCVw3ss5pbS1VHxo3lb3dmuNUaTiAkky8PhEh+6jzvOG4zikQFHS0ZfWtRwdpR4Iy/Z4A6vqSaAWYbkc2+V2vmU/TSvojEYGIVNP/yy07l0CW/kqwTFS+wdIRga4hJrmO98TGKQGXbLWmykRdNuQjoh7UXCbRb48Z4qHbqEtxJkLxxCRCLd2n+NzskeKMBPWECCWrz1zczixA9FsxqNf1T9x0IsLUAY2ZDHOprGiclA1rWql77ZxA5cQOAJ2zvHLodHNgMliqj/SUAfWp8wV+fUVLT1NoWpSypciVQPLpWl131Zn9iGg7X02kIb1qelft0o3PHjjJztKv+tvGu/gvEZuqgPo7fbinS75+PFWiHW4ZjGojnFZS55KGiDBVnLpG7b3YcBLQJsxEUIwfkotwrOSbEsBWFfv5Tt6uUJI8Sf7pnHMC/aIYreQtHJyJUI/YPSG2lP2362kor+h0Tl8947STirO6ulahk+FEdKpcvDpwIGl658DR9XqSRFN6f+lsF4hOXv5vrh1S5g5ElFsydAHjfaeKtdp0z3g7QTgZ+tT8yQxCunYkxPPCkCobBVO3aP4kAB3vHJfkp98iZn1DQ8fLhv5hIfat6ya9ZT8lxysRyg+cqtfY9D99txGhE1Cq3tS/+/xCdFe9KIfsV5jvvn3Mfsc1Qs88XfCmUne6diPCUoI7q2lcTX+7ta7OeARbF7i8kVXTha4y8D6qHV++WfIRcCJGyid7ECSSU+f01+8fm4jBg5RTLLeD+knrdtWWn+NMySvJ0RHhZVr8aoA4UVHnV6vQKcl4FcjEo3O6j1SylRx8MIAJR9enZ40dg6zinpB82URJUeSnpQWXZUtWqRBybDExbf1NpEfemPilxuBDDL87ETLAPbCTQp5ZPJOUopweam0wBRRBlSrCdIz9iCRSWS8iVOBMGwvSkwDSInyRijKTwN9VwCJ2Znn1zWDm+qLr0yUqkorAxDUoXacpVvKT37LCgE82cKByWkwdL366VASbPF79UOcn/XtySfgRAWp2ICLUOKoGfS2OBJKIkHJ6MnlKMI5xj0XGR1foJNJMGHSy5HXJ/7QxzwuzbnPXncVI/e4+7kZZzxVhyvgdETKAmTEnZ3EKUYbj23udCEWYCnAnFxkqGSw5io7hhoJPFacsJFm0Flh91vX6N3cJnZg4DdKYU9V1rZZop0TmApZIWMsQntRofwcuCTyRkXCjwNO/E+ETN/U72aALnCuZlS4kmbRhce3r0k7VlzbC6pqys75r3CUvytglei7LPKkI5U9hXUThlZwnZ/fPU/K92IsYSljr4leyuG4puSc5xs2SSfCO5btrpuqlzmk6Wb8LKJpCJjJTX91fbiY4iUo+Zm1mPydZOpvjMZBJTLUoXv/xKRJlpXS/m0hQfbBfB5rbfAOW+iagfXqY+qTNCyClU/cdXrcvE5/bWtWokyGPUycF95X4EyknG7kctP1m06fnhSfNEurf+nBTJ5vwSLwlPzG5XRNE9aP3OtIPiUhlT7UjEf6/SVA2cVk6XpGPSZCTjd4R4T//+c+v/vWvf735x0mIjvOBXMDOyS6MMrQWk0WCiYBSkDGDqEK97qrSuCRD9ukkWfIyE1PPGl8P/mvaUwbWelByREeEsidJgFOpi71VjVJGVsudHpRTOvnCPm30JAiTLD5N92rxQnBezWz28faXSvcpCdJGNV5NkUWEvIfQE6zjL41Lea/2F5Z1G5Rf5/fbdRVhiv1XbePXXZPeZTyS5IahP/zhD1/98Y9//Oq/VInacSgSwTMAAAAASUVORK5CYII=;" vertex="1" parent="1">
          <mxGeometry x="323.75" y="160" width="205.75" height="200" as="geometry" />
        </mxCell>
      </root>
    </mxGraphModel>
  </diagram>
</mxfile>
